<svg xmlns="http://www.w3.org/2000/svg" id="svg1449" viewBox="0 0 289.04 290.39" version="1.0">
  <defs id="defs1452">
    <radialGradient id="id0" gradientUnits="userSpaceOnUse" cy="86.921" cx="70.284" r="79.477">
      <stop id="stop1353" style="stop-color:#fff" offset="0"/>
      <stop id="stop1355" style="stop-color:#fdfcc9" offset=".369"/>
      <stop id="stop1357" style="stop-color:#c93" offset="1"/>
    </radialGradient>
    <style id="style1350" type="text/css">
      .fil0{fill:#630}.fil1{fill:url(#id0)}
    </style>
  </defs>
  <path id="path1458" style="fill:#000" d="M133.04 289.87c-60.9-4.19-114.38-52.4-129.47-110.76C-10.351 118.59 17.3 50.44 71.253 18.85 105.96-1.965 149.5-4.567 187.913 6.274c47.44 14.639 83.55 57.028 96.23 104.33 11.39 43.58 3.18 93.06-27.09 127.41-27.42 34.28-71.24 54.04-115.06 52.27-2.99-.06-5.97-.2-8.95-.41zm36.29-6.86c10.93-.96 9.01-4.33-.93-5.18-17.76-3.43-36.93-3.52-54.07 2.5 15.09 7.3 35.13 5.42 52.02 3.24l2.98-.56zm-53.8-9.64c7.8-7.99-.33-27.09-7.15-34.65-15.231-7.8-27.042-20.56-40.974-30.18-10.493-3.83-20.727 3.46-30.869 5.93-.045 10.06-.699 21.42 8.121 28.42 14.52 14.39 32.046 27.01 51.825 32.74 6.357.29 13.027-.09 19.047-2.26zm83.51.4c25.27-10.94 48.98-28.51 63.23-52.43 5.13-6.88 8.9-18.93-4.5-14.94-16.84 10.62-32.04 23.77-49.29 33.84-10.46 8.3-17.99 19.73-25.43 30.65 2.59 6.06 11.02 4.61 15.99 2.88zm17.13-43.94c12.7-10.46 31.09-17.2 37.76-33.07 3.01-12.48 3.25-25.39 4.5-38.12-12.66-11.27-28.2-18.92-43.4-26.14-15.03 1.21-27.17 14.59-39.05 23.27-6.33 3.5-4.7 11.38-6.42 17.43-2.3 14.12-4.97 28.21-6.5 42.45 11.82 8.77 25.01 16.83 39.38 20.21 5.2.07 9.51-3.46 13.73-6.03zm-90.61 2.2c11.5-4.41 26.73-7.73 32.13-19.96 4-17.14 6.23-34.68 8.35-52.13-11.43-10.91-23.64-22.41-38.63-28.1-12.92-.2-23.88 8.97-35.387 13.98-15.479 4.21-20.855 18.34-21.532 32.93-4.541 14.43.671 29.25 13.723 37.2 11.4 8.43 26.056 21.88 41.346 16.08zM29.261 211.8c-9.334-17.31-15.771-36.27-18.341-55.77-9.23 1.86-.841 24.58 1.703 33.85 4.352 12.53 11.01 24.04 17.914 35.29 1.263-4.63 2.011-9.23-1.276-13.37zm-4.02-77.06c4.076-5.84 10.564-10.45 13.009-17.12 4.315-20.193 11.354-39.686 21.421-57.738-.425-11.663-13.414-18.749-19.881-5.897C21.361 77.776 6.905 106.77 6.269 137.36c-2.423 10.5 6.685 18.13 11.931 5.71 2.351-2.78 4.697-5.55 7.041-8.33zm237.3 14.46c7.81-10.28 18.6-22.48 15.8-36.4-4.89-26.397-18.41-51.461-39.18-68.664-6.16-2.622-17.43-12.269-21.73-3.157-6.36 12.242-22.17 23.816-16.47 39.062 4.88 15.05 8.44 30.779 15.56 44.949 13.1 10.25 28.27 18.21 43.52 24.94l2.5-.73zm-174.23-6.84c12.093-6.12 23.833-12.89 35.633-19.57 3.97-13.92 8.96-27.528 13.61-41.221.65-14.807-12.53-25.446-21.34-35.83-8.66-13.891-23.304-3.237-33.989 1.844-23.518 12.591-28.917 40.309-36.908 63.447 1.109 8.66 9.023 15.89 14.799 22.37 7.983 8.03 16.958 18.77 28.195 8.96zm86.733-74.848c6.25-.86 13.24-.23 19.05-2.005 8.68-9.375 16.33-20.359 19.95-32.682-4.37-12.422-18.84-18.083-30.46-22.311-14.8-4.415-30.65-6.577-46.01-4.833-11.09 5.677-30.98 22.15-19.75 34.92 8.23 9.817 16.98 19.174 25.9 28.365 10.46.103 20.89-.716 31.32-1.454z"/>
</svg>
