<svg xmlns="http://www.w3.org/2000/svg" viewBox="0 0 113.41 119.78"><defs><style>.cls-1{fill:#fff;}.cls-1,.cls-2{stroke:#000;stroke-miterlimit:10;stroke-width:3px;}.cls-2{fill:none;}</style></defs><g id="Layer_2" data-name="Layer 2"><g id="Layer_1-2" data-name="Layer 1"><ellipse class="cls-1" cx="56.71" cy="59.89" rx="55.2" ry="58.39" transform="translate(-1.46 1.41) rotate(-1.41)"/><path class="cls-2" d="M32.94,7.1c6.25.81,17,7,30.31,33.95,18,36.49,41.27,17.37,48.29,10.25"/><path class="cls-2" d="M53.91,1.5c5,4.17,11.27,12.55,18.44,28.79,13.09,29.63,29.22,21,37.42,13.61"/><path class="cls-2" d="M71.08,3.54a89.47,89.47,0,0,1,9.74,17.14c8.49,18.69,18.57,18.15,25.71,14.18"/><path class="cls-2" d="M15,21.54c4.94-1.41,20-1.85,40,33.58,21.7,38.49,50.4,15,56.83,9"/><path class="cls-2" d="M6.52,36.25s17.74-11,43.13,33.84c22.93,40.53,53.44,14.36,59.14,8.89"/><path class="cls-2" d="M2.12,51C7,49.48,22.63,48.6,43.4,85.5c20.41,36.27,46.85,19.13,56.25,11.21"/><path class="cls-2" d="M1.85,66.3c7.45.94,20,7.47,35.5,34.93,4.45,7.91,9.19,13.28,14,16.76"/><path class="cls-2" d="M5.4,81.34C12.29,85.5,21,94.16,30.94,111.46"/></g></g></svg>