<svg xmlns="http://www.w3.org/2000/svg" viewBox="0 0 171.16 55.44"><defs><style>.cls-1{fill:none;stroke:#000;stroke-miterlimit:10;stroke-width:2px;}.cls-2{font-size:16px;font-family:Montserrat-Regular, Montserrat;}.cls-3{letter-spacing:-0.01em;}.cls-4{letter-spacing:-0.01em;}.cls-5{letter-spacing:0em;}</style></defs><g id="Layer_2" data-name="Layer 2"><g id="Layer_1-2" data-name="Layer 1"><path class="cls-1" d="M101.4,9.05s61.53-5.27,59.13,44"/><path d="M151.57,38.92a1,1,0,0,1,1.36.37l7.58,13.29,8.84-12.48A1,1,0,1,1,171,41.25L161.23,55a1,1,0,0,1-.86.42,1,1,0,0,1-.82-.5l-8.36-14.66a1.16,1.16,0,0,1-.13-.54A1,1,0,0,1,151.57,38.92Z"/><text class="cls-2" transform="translate(0 13.6)">Most <tspan class="cls-3" x="43.82" y="0">r</tspan><tspan x="50.03" y="0">e</tspan><tspan class="cls-4" x="59.7" y="0">c</tspan><tspan class="cls-5" x="68.56" y="0">ent</tspan></text></g></g></svg>