<svg xmlns="http://www.w3.org/2000/svg" viewBox="0 0 160.52 80"><defs><style>.cls-1{fill:#19e5a8;}.cls-2{fill:none;}</style></defs><g id="Layer_2" data-name="Layer 2"><g id="Layer_1-2" data-name="Layer 1"><path class="cls-1" d="M49.63,40.82a43.72,43.72,0,0,0,4.73,6.57V15.88C48.36,7.8,43.16,4,39.11,2.3A39.9,39.9,0,0,1,52.24,0H0V80H54.36V69.86c-3.91-2.32-7.8-6.22-11.43-12.32C27.89,32.28,16.58,32.87,13,33.89a39.61,39.61,0,0,1,6.66-16.75C23.4,16.15,34.69,15.84,49.63,40.82ZM33.9,75.33A40.29,40.29,0,0,1,15.42,54.7C20.41,57.56,26.72,63.49,33.9,75.33Z"/><path class="cls-1" d="M88.67,22.86A40.28,40.28,0,0,0,63,1.41a61,61,0,0,1,7,11.73C76.2,25.94,83.5,25.57,88.67,22.86Z"/><path class="cls-1" d="M92.4,36.45C83.68,40.65,70.67,42.3,60,24.4,51.59,10.29,44.38,4.49,39.11,2.3A39.93,39.93,0,0,0,19.69,17.14c3.71-1,15-1.3,29.94,23.68C65.57,67.46,86.57,52,91.9,47.44a40.28,40.28,0,0,0,.67-7.66C92.56,38.66,92.5,37.55,92.4,36.45Z"/><path class="cls-1" d="M42.93,57.54C27.89,32.28,16.58,32.87,13,33.89A39.71,39.71,0,0,0,15.42,54.7c5,2.86,11.3,8.79,18.48,20.63a40,40,0,0,0,49.79-10.1C76.87,70.65,57.72,82.39,42.93,57.54Z"/><path class="cls-2" d="M33.9,75.33A40.29,40.29,0,0,1,15.42,54.7C20.41,57.56,26.72,63.49,33.9,75.33Z"/><path class="cls-2" d="M54.36.05V15.88C48.36,7.8,43.16,4,39.11,2.3A39.9,39.9,0,0,1,52.24,0h.22C53.1,0,53.73,0,54.36.05Z"/><path class="cls-2" d="M92.4,36.45C83.68,40.65,70.67,42.3,60,24.4a97.71,97.71,0,0,0-5.64-8.52V.05A40.26,40.26,0,0,1,63,1.41a61,61,0,0,1,7,11.73c6.15,12.8,13.45,12.43,18.62,9.72A39.8,39.8,0,0,1,92.4,36.45Z"/><path class="cls-2" d="M54.36,47.39V69.86c-3.91-2.32-7.8-6.22-11.43-12.32C27.89,32.28,16.58,32.87,13,33.89a39.61,39.61,0,0,1,6.66-16.75c3.71-1,15-1.3,29.94,23.68A43.72,43.72,0,0,0,54.36,47.39Z"/><path class="cls-2" d="M91.9,47.44a39.93,39.93,0,0,1-8.21,17.79C78.54,69.32,66.38,77,54.36,69.86V47.39C69.46,64.59,87.08,51.6,91.9,47.44Z"/><path class="cls-1" d="M98,0h26.72V59.09h35.79V80H98Z"/></g></g></svg>