<svg xmlns="http://www.w3.org/2000/svg" width="24" height="24" viewBox="0 0 24 24">
  <defs>
    <style>
      .cls-1 {
        fill: #19e5a8;
        fill-rule: evenodd;
      }
    </style>
  </defs>
  <path id="noun-next-1442920" class="cls-1" d="M16.023,12.784,10.868,17.9a1.034,1.034,0,0,1-1.533,0,1.093,1.093,0,0,1,0-1.533l4.389-4.354L9.335,7.629A1.084,1.084,0,1,1,10.868,6.1l5.155,5.121A1.136,1.136,0,0,1,16.023,12.784ZM0,12.018a11.953,11.953,0,0,0,3.518,8.464A11.831,11.831,0,0,0,12.018,24,12.012,12.012,0,0,0,24,12.018a11.831,11.831,0,0,0-3.518-8.5A12,12,0,0,0,0,12.018Z" transform="translate(24 24) rotate(-180)"/>
</svg>
