<svg xmlns="http://www.w3.org/2000/svg" viewBox="0 0 286.41 251.944"><g fill-rule="evenodd"><path d="M46.605 127.387a8.364 8.364 0 11-8.362 8.363 8.364 8.364 0 018.362-8.363z" fill="#fff"/><path d="M54.718 137.785a8.364 8.364 0 11-15.8-5.332 10.175 10.175 0 0015.8 5.332z" fill="#e6e7e8"/><path d="M50.287 143.258l.374-1.314.457-1.555 1.566-.4 1.325-.334a8.4 8.4 0 01-3.722 3.603zM44.355 133.431l-.44 1.555-.443 1.554 1.128 1.161 1.125 1.159 1.566-.4 1.568-.395.44-1.555.442-1.553-1.125-1.161-1.124-1.156-1.566.395z" fill="#404041"/><path d="M48.368 129.532l1.568-.4 1.332-.331a8.381 8.381 0 012.42 2.49l-.374 1.314-.44 1.555-1.568.395-1.566.4-1.115-1.155-1.137-1.16.442-1.555z" fill="#fff"/><path d="M42.913 128.243l-.37 1.314-.44 1.555 1.123 1.161 1.125 1.159 1.574-.4 1.566-.395.443-1.55.44-1.553-1.13-1.163-.951-.984a8.37 8.37 0 00-3.38.856z" fill="#fff"/><path d="M51.263 128.801l-1.325.334-1.568.4-1.125-1.164-.951-.984a8.356 8.356 0 014.969 1.414zM54.95 136.315l-.951-.98-1.125-1.158.44-1.555.374-1.314a8.36 8.36 0 011.262 5.007zM38.262 135.194l.951.978 1.128 1.159-.434 1.555-.374 1.314a8.358 8.358 0 01-1.271-5.006zM41.95 142.699l1.325-.334 1.568-.395 1.125 1.159.951.978a8.36 8.36 0 01-4.969-1.408zM39.211 131.843l1.316-.334 1.568-.4.44-1.555.374-1.312a8.4 8.4 0 00-3.7 3.6z" fill="#404041"/></g><g fill-rule="evenodd"><path d="M195.568 165.667a8.364 8.364 0 11-8.362 8.363 8.364 8.364 0 018.362-8.363z" fill="#fff"/><path d="M203.681 176.065a8.364 8.364 0 11-15.8-5.332 10.175 10.175 0 0015.8 5.332z" fill="#e6e7e8"/><path d="M199.25 181.538l.374-1.314.457-1.555 1.566-.4 1.325-.334a8.4 8.4 0 01-3.722 3.603zM193.318 171.711l-.44 1.555-.443 1.554 1.128 1.161 1.125 1.159 1.566-.4 1.568-.395.44-1.555.442-1.553-1.125-1.161-1.124-1.156-1.566.395z" fill="#404041"/><path d="M197.331 167.812l1.568-.4 1.332-.331a8.381 8.381 0 012.42 2.49l-.374 1.314-.44 1.555-1.568.395-1.566.4-1.115-1.155-1.137-1.16.442-1.555z" fill="#fff"/><path d="M191.876 166.523l-.37 1.314-.44 1.555 1.123 1.161 1.125 1.159 1.574-.4 1.566-.395.443-1.55.44-1.553-1.13-1.163-.951-.984a8.37 8.37 0 00-3.38.856z" fill="#fff"/><path d="M200.226 167.081l-1.325.334-1.568.4-1.125-1.164-.951-.984a8.356 8.356 0 014.969 1.414zM203.913 174.595l-.951-.98-1.125-1.158.44-1.555.374-1.314a8.36 8.36 0 011.262 5.007zM187.225 173.474l.951.978 1.128 1.159-.434 1.555-.374 1.314a8.358 8.358 0 01-1.271-5.006zM190.913 180.979l1.325-.334 1.568-.395 1.125 1.159.951.978a8.36 8.36 0 01-4.969-1.408zM188.174 170.123l1.316-.334 1.568-.4.44-1.555.374-1.312a8.4 8.4 0 00-3.7 3.6z" fill="#404041"/></g><g fill-rule="evenodd"><path d="M158.605 9.469a8.364 8.364 0 11-8.362 8.363 8.364 8.364 0 018.362-8.363z" fill="#fff"/><path d="M166.718 19.867a8.364 8.364 0 11-15.8-5.332 10.175 10.175 0 0015.8 5.332z" fill="#e6e7e8"/><path d="M162.287 25.34l.374-1.314.457-1.555 1.566-.4 1.325-.334a8.4 8.4 0 01-3.722 3.603zM156.355 15.513l-.44 1.555-.443 1.554 1.128 1.161 1.125 1.159 1.566-.4 1.568-.395.44-1.555.442-1.553-1.125-1.161-1.124-1.156-1.566.395z" fill="#404041"/><path d="M160.368 11.614l1.568-.4 1.332-.331a8.381 8.381 0 012.42 2.49l-.374 1.314-.44 1.555-1.568.395-1.566.4-1.115-1.155-1.137-1.16.442-1.555z" fill="#fff"/><path d="M154.913 10.325l-.37 1.314-.44 1.555 1.123 1.161 1.125 1.159 1.574-.4 1.566-.395.443-1.55.44-1.553-1.13-1.163-.951-.984a8.37 8.37 0 00-3.38.856z" fill="#fff"/><path d="M163.263 10.883l-1.325.334-1.568.4-1.125-1.164-.951-.984a8.356 8.356 0 014.969 1.414zM166.95 18.397l-.951-.98-1.125-1.158.44-1.555.374-1.314a8.36 8.36 0 011.262 5.007zM150.262 17.276l.951.978 1.128 1.159-.434 1.555-.374 1.314a8.358 8.358 0 01-1.271-5.006zM153.95 24.781l1.325-.334 1.568-.395 1.125 1.159.951.978a8.36 8.36 0 01-4.969-1.408zM151.211 13.925l1.316-.334 1.568-.4.44-1.555.374-1.312a8.4 8.4 0 00-3.7 3.6z" fill="#404041"/></g><path d="M232.043 151.441s-19.045 2.755-24.3 12.6c0 0-8.38 15.4 2.53 14.321s29.809-4.19 29.809-4.19 7.307-2.145 10.719.585l-1.56-21.92z" fill="#dbdfe6"/><path d="M207.739 164.037s-8.38 15.4 2.53 14.321c3.423-.337 7.6-.87 11.748-1.449 5.451-1.241 10.379-2.413 10.379-2.413s-.285-2.059-.93-5.317-14.646-1.632-14.547-6.067 21.033-9.264 21.033-9.264q-.285-1.07-.6-2l-5.311-.431s-19.042 2.779-24.302 12.62z" fill="#dbdfe6"/><path d="M239.288 100.579c-.516-.984.368-1.791.93-2.179a20.759 20.759 0 00-1.92-6.632s-4.224-.439-4.735 0-1.905 4.88-1.905 4.88l2.624 7.647c.071.22 4.15 8.451 5.682.947a20.552 20.552 0 00.411-3.973 1.184 1.184 0 01-1.087-.69z" fill="#a97c50"/><path d="M223.615 92.364s-.048 13.406 4.541 16.306 10.981-1.968 10.981-1.968-3.06-8.3-2.239-12.019 3.223-3.058 3.993-4.589-2.022-4.481-6.774-4.752-10.545 3.529-10.502 7.022z" fill="#101116"/><path d="M255.281 179.963l16.027-2.727-2.282-4.19-9.45-1.46s-4.969 2.43-5.017 2.75.722 5.627.722 5.627z" fill="#fff"/><path d="M281.989 58.115a26.4 26.4 0 01-3.839-2.25c-20.043 17.684-14.187 27.667-14.187 27.667l-22.31 19.11-15.684 4.19-22.48-3.56c-1.389-10.941-21.606-15.377-26.13-15.912-.5 1.075-1.728 3.5-2.37 4.5l43.263 34.772 14.124 25.423c14.176 13.006 29.812 0 29.812 0l-1.894-33.76z" fill="#a97c50"/><path d="M262.194 152.054s13.443 5.066 14.612 14.906-5.456 11.592-11.979 10.128-14.027-2.336-14.027-2.336-1.64-1.646-6.027-1.358-7.892-5.961-7.892-5.961l8.468-13.237 3.9-1.363z" fill="#dbdfe6"/><path d="M275.081 175.072s5.539-8.534-2.707-11.523c-4.432-1.609-10.288 1.3-12.373 7.57-2.1 6.318-5.456 7.738-5.456 7.738l2.365.924zM263.629 109.036l-11.948-14.98-10.04 8.605-15.687 4.19-10.9-1.728-4.643 15.2 7.844 6.3 14.124 25.425c14.176 13.006 29.812 0 29.812 0l-1.894-33.756z" fill="#fff"/><path d="M238.674 93.183l1.925 3.871-1.312.787-.7-4.658" fill="#a97c50"/><path d="M238.467 94.476l-.973.742 1.018-.214z" fill="#101116"/><path d="M237.077 96.726s-1.917-2.464-3.137-1.1.114 4.392 3.217 4.033-.08-2.933-.08-2.933z" fill="#a97c50"/><path d="M260.298 118.298l21.677-60.183-.08-.037-24.983 55.4 2.131 12.815-31.917 1.064-4.21-5.109 3.137-6.723-50.947-23.856-.128.208 43.274 34.752 14.124 25.425c14.176 13.006 29.812 0 29.812 0l-1.438-25.819z" fill="#dfdfed" opacity=".7"/><g fill="#778cc2"><path d="M228.522 128.463l-.8-2.852a6.29 6.29 0 003.006-1.343 2.609 2.609 0 00.376-.428l1.021 3.625zm3.169-7.416l3.354-.944 5.271 18.691-3.9 1.1-4.82-17.1a5.3 5.3 0 00.1-1.731zM243.615 117.501l.91 3.223a3.451 3.451 0 00-1.072.856q-1.3 1.711-.077 6.047a18.883 18.883 0 001.221 3.28 6.041 6.041 0 001.543 2.054 2.852 2.852 0 002 .57l.921 3.283a6.259 6.259 0 01-4.94-.742 10.791 10.791 0 01-3.725-5.237 22.022 22.022 0 01-.727-2.162 15.054 15.054 0 01-.636-5.26 7.943 7.943 0 01.588-2.282 6.181 6.181 0 012.182-2.721 7.177 7.177 0 011.817-.91zm6.152 19.11l-.93-3.3a3.086 3.086 0 00.913-.7 4.521 4.521 0 00.73-3.622 22.144 22.144 0 00-.653-3.137q-1.015-3.6-2.544-4.772a2.684 2.684 0 00-2.048-.533l-.916-3.246a7.314 7.314 0 011.48-.24 5.844 5.844 0 013.671 1.007q2.641 1.8 4.05 6.8.237.839.445 1.891a14.1 14.1 0 01.328 3.237 7.1 7.1 0 01-1.711 4.775 7.847 7.847 0 01-2.815 1.843z"/></g><path d="M208.757 178.395l21.489 2-4.144-7.151-13.349-.194z" fill="#fff"/><path d="M211.05 166.57s6.42-2.259 9.712 2.61 1.831 7.644 1.831 7.644l-7.307.947s-2.484.163-3.066-1.05a11.878 11.878 0 01-1.169-2.6c-.22-.954-.001-7.551-.001-7.551z" fill="#fff"/><path d="M211.05 166.569s-4.749 2.111-5.262 6.477 2.969 5.348 2.969 5.348l5.653-1.674s.365-2.442 0-2.6-1.389-3.28-1.389-3.28z" fill="#fff"/><path d="M226.435 172.482s-4.307.385-1.651 5.06 12.236 6.138 12.236 6.138-.514-8.928-10.585-11.198zM256.139 173.831s4.672 2.336 1.443 5.565-10.377 4.278-10.377 4.278 4.605-11.834 8.934-9.843z" fill="#101116"/><path d="M277.864 56.095s-.625-4.481-.339-4.906-.465-2.456-.029-2.889c.938-.93 2.707 2.764 2.707 2.764s2.29-6.426 3.08-5.513-1.574 5.612-1.574 5.612 2.784-4.889 3.254-4.019-2.2 4.564-2.2 4.564 3.8-3.192 3.329-1.654a6.272 6.272 0 01-2.367 2.747s3.366-1.606 2.567-.054a4.249 4.249 0 01-2.8 1.9l-1.626 3.868s-4.121-1.152-4.002-2.42zM177.345 87.39s-2.142-3.48-2.621-3.657-1-2.436-1.606-2.521c-1.315-.185-.57 3.371-.57 3.371s-5.545-4.067-5.7-2.75 4.497 3.823 4.497 3.823-5.1-2.393-5-1.326 4.424 2.49 4.424 2.49-4.994-.251-3.734.77a5.747 5.747 0 003.54.807s-3.917.682-2.23 1.141a13.265 13.265 0 003.668.285l3.349 2.282s2.811-3.715 1.983-4.715z" fill="#a97c50"/><g><path d="M109.046 158.154c.1.36.165.561.165.561-6.891 2.388-14.1 10.808-14.1 10.808l.978 2.931 19.575-9.642.821-3.062a21.492 21.492 0 01-7.439-1.596z" fill="#8b5e3c"/><path d="M95.032 169.368a13.431 13.431 0 00-1.879.6c-.239.178-1.408-.162-1.649.1-.515.564 1.287 1.13 1.287 1.13s-3.646 1.544-3.119 1.94 3.193-1.109 3.193-1.109-2.766 1.76-2.265 1.989 2.574-1.418 2.574-1.418-1.788 2.254-.914 1.93a3.827 3.827 0 001.544-1.43s-.787 1.76.093 1.245a6.737 6.737 0 001.655-1.585l1.5-.937s-1.292-2.576-2.02-2.455zM125.756 199.26s15.378 2.573 24.132-6.3c0 0 6.194 9.287 30.753 1.173v-3.631l-56.385-13.882-3.945 18.368z" fill="#8b5e3c"/><path d="M139.142 198.674l.772-18.2-19.3-4.763-.293 19.274 4.655 3.649 1.974.772a37.89 37.89 0 0012.192-.732z" fill="#fdfdfd"/><path d="M180.367 194.18s2.72 2.831 3.95.728 6.83-12.28 5.947-12.138-10.26 7.3-10.26 7.3z" fill="#090000"/><path d="M159.175 185.225c-.033.61-.062 1.217-.113 1.827a58.158 58.158 0 01-1.75 9.851c4.712 1.016 12.095.95 23.327-2.761v-3.639z" fill="#090000"/><path d="M161.706 197.425a32.616 32.616 0 001.945-11.106l-1.686-.415a42.461 42.461 0 01-1.768 11.425c.479.047.986.075 1.509.096z" fill="#fdfdfd"/><path d="M180.642 194.134v-.09c-21.181 2.612-31.441-5.4-31.441-5.4-15.108 7.882-26.276 2.9-26.544 3.018v.381l-.7 4.251 3.8 2.982s.793.131 2.11.229h.036l.515.033h.046c.18.013.368.021.566.031h.033a37.126 37.126 0 0010.074-.885 22.072 22.072 0 0010.746-5.715c.006-.008 6.2 9.279 30.759 1.165z" fill="#ef7f33" opacity=".4"/><path d="M132.798 148.051l11.606-2.6-4.5-7.483-3.909 2.18-3.736-1.3-2.867 1.8-2.194 2.362 2.8 5.774z" fill="#8b5e3c"/><path d="M143.589 124.238c-3.525-.067-5.584.353-7.01 1.377s-3.947 3.366-3.67 5.733a6.831 6.831 0 01.232 2.91c-.162.736-.417 1.029-.656 1.837a6.974 6.974 0 00-.221 2.751l2.118 3.7 4.3-1.5 6.3-3.942.95-3.649a11.7 11.7 0 012.151-1.354c.5-.1 2.952 2.452 5.252.852l.358-2.612a11.447 11.447 0 00-10.104-6.103z" fill="#232323"/><path d="M136.487 136.847c.728-.772 2.3-.35 3 1.652l2.452-3.052.5-4.4 6.055.35 3.1 1.593v4.704l-1.351.952 1.351 4.3h-2.85l-2.1 6.554s-2.331 1.467-5.093-1.418a13.154 13.154 0 01-3.165-7.007s-3.077-2.981-1.899-4.228z" fill="#a97c50"/><path d="M149.361 138.363v-.533l-3.7.533zM149.943 137.333l-1.05-1.065-4.274 1.065s3.675-.283 3.726-.317 1.256.319 1.544.4l.059.018zM148.345 144.194h-1.57v.957l1.171.288z" fill="#232323"/><path d="M107.818 200.168s2.723 12.334 13.461 14.094c0 0-1.287 20.5 17.619 27.709l1.8-.841-13.488-51.577z" fill="#8b5e3c"/><path d="M122.658 224.34a26.187 26.187 0 0016.232 17.627l1.8-.841-5.353-20.492a58.442 58.442 0 01-12.679 3.706z" fill="#090000"/><path d="M105.042 183.99l-.641 20.07 25.19-7.041-6.5-20.4z" fill="#fdfdfd"/><path d="M130.136 156.548l12.2 10.224 20.262-3.935-.916-2.926s-10.2-2.458-16.765-.257c0 0-3.86-11.793-10.255-14.786l-4.534 11.9" fill="#8b5e3c"/><path d="M127.038 141.275s-27.442-1.6-28.937 47.73l26.155-12.388-1.176-8.968s6.513-5.34 7.9-10.249l-.854-.854 8-9.063s-2.755-4.924-11.088-6.208z" fill="#ee1e26"/><path d="M138.891 241.971s-1.287 10.733 2.671 9.93-.87-10.772-.87-10.772z" fill="#090000"/><path d="M124.071 228.132a37.821 37.821 0 0012.231-3.793l-.448-1.716a40.309 40.309 0 01-12.408 4.027c.19.487.407.983.625 1.482z" fill="#fdfdfd"/><path d="M127.038 141.275s-27.442-1.6-28.937 47.73l6.554-3.1c-1.94-32.483 19.171-42.39 24.168-44.261a17.641 17.641 0 00-1.785-.369z" fill="#ee1e26" fill-rule="evenodd"/><path d="M138.891 241.972l.244-.116c-12.282-7.151-13.638-30.622-13.638-30.622-12.293-8.111-15.877-27.671-15.877-27.671s-2.411.3-4.583.615l-.636 19.894 4.292-1.2c1.472 3.736 5.057 10.165 12.578 11.4.008-.01-1.28 20.492 17.62 27.7z" fill="#ef7f33" fill-rule="evenodd" opacity=".4"/><path d="M161.662 159.749a12.1 12.1 0 011.763-.633c.283 0 .973-.97 1.3-.906.713.142-.342 1.678-.342 1.678s3.626-.942 3.456-.3-3.044 1.016-3.044 1.016 3.088-.242 2.831.239-2.751.4-2.751.4 2.62.744 1.776 1.006a3.417 3.417 0 01-1.976-.232s1.585.944.633 1.055a6.045 6.045 0 01-2.151-.283l-1.662.142s-.451-2.85.167-3.182z" fill="#8b5e3c"/></g><g><path d="M17.296 58.906s-6.791 22.487-3.89 34.441l1.86-.242s11.278-25.414 13.659-29.244z" fill="#8b5e3c"/><path d="M64.692 22.666s-33.848 1.352-47.4 36.241l11.629 4.954 3.137-3.739 11.235 19.9s9.324 3.625 20.026-3.811l-6.033-34.367 6.748-4.15z" fill="#fdfdfd"/><g opacity=".4" fill="#ef7f33"><path d="M48.603 79.6c-.57.208-15.22-28.383-15.22-28.383-13.948 9.127-18.254 36.352-19 42.005l.887-.117s11.272-25.414 13.654-29.244l3.137-3.739 11.235 19.9a16.906 16.906 0 005.1.856c.221-.825.292-1.31.207-1.278zM13.405 93.348l.391-.051-.676-1.484c.074.531.174 1.044.285 1.535z"/></g><path d="M88.99 23.028a4.4 4.4 0 01.051-.471c-10.659-1.355-24.341.108-24.341.108l-.653 15.029 24.829-12.025a24.761 24.761 0 01.114-2.641z" fill="#8b5e3c"/><path d="M89.033 22.557a11.327 11.327 0 011.711-.613c.285 0 .944-.941 1.266-.878.69.137-.331 1.629-.331 1.629s3.517-.916 3.351-.285-2.952.984-2.952.984 2.992-.234 2.747.234-2.67.391-2.67.391 2.544.722 1.711.975a3.3 3.3 0 01-1.92-.225s1.54.916.613 1.024a5.841 5.841 0 01-2.085-.285l-1.6.134s-.44-2.762.159-3.085z" fill="#8b5e3c"/><path d="M88.634 130.016s-1.052 2.587.673 2.772 9.94.856 9.592.334-7.7-4.532-7.7-4.532z" fill="#fdfdfd"/><path d="M84.661 90.726l-11.583-7.852-9.758-6.651-20.017 3.81-6.845 10.131-6.865 8.557C23.769 89.927 7.16 92.127 7.16 92.127l-1.427 1.768 25.459 19.219c10.725-1.279 19.741-11.276 19.741-11.276l4.113-6.295s7.624 11.486 21.572 6.192c-3.811 8.791 12.085 28.6 12.085 28.6l2.772-.285z" fill="#8b5e3c"/><path d="M21.152 104.976a28.354 28.354 0 013.137-10.69c-7.193-3.471-17.131-2.159-17.131-2.159l-1.425 1.768 15.388 11.609c.012-.177.017-.351.031-.528zM77.744 112.284c3.46 8.7 10.961 18.049 10.961 18.049l2.772-.285-3.628-20.9a28.309 28.309 0 01-10.105 3.136zM77.903 86.145l-4.826-3.272-9.758-6.651-20.017 3.811-6.845 10.131-3.508 4.367c1.942 4.19 5.662 10.074 11.934 12.618a43.68 43.68 0 006.058-5.311l4.107-6.295a18.731 18.731 0 0011.837 7.393c3.933-3.1 9.498-8.754 11.018-16.791z" fill="#fdfdfd"/><path d="M50.049 34.896l-1.409 4.159-8.631-1.038-.99-5.582 3.565-1.854 7.173 4.238z" fill="#8b5e3c"/><path d="M39.623 35.854a25.518 25.518 0 009.016 3.195 2.041 2.041 0 00-1.209 2.587c.5 2.017-10.445-.762-8.069-7.259zM48.64 39.047a4.28 4.28 0 012.73 1.689s4.278-6.341-1.118-9.147-2.333 5.8-2.333 5.8z" fill="#f4efef"/><path d="M47.028 17.623l.066.128 4.726 8.919-1.777.231s2.153 7.581 1.115 8.571-9.412 3.937-12.866-4.539-2.49-12.165-2.49-12.165z" fill="#a97c50"/><path d="M34.692 21.294s8.209 3.457 14.393-5.756a25.223 25.223 0 00-3.1-.673 14.671 14.671 0 00-6.275 0 6.642 6.642 0 00-3.8 2.017 6.168 6.168 0 00-1.218 4.412z"/><path d="M40.54 21.097s-2.1 2.5-1.092 4.652-.428 6.686-.428 6.686-4.875-5.006-4.327-11.141 5.847-.197 5.847-.197z"/><path d="M41.437 25.492s-2.416-2.416-3.035-.958 3.286 2.884 3.286 2.884l-.237-1.817" fill="#a97c50"/><path d="M47.887 23.176l-.391-.365-1.663 1.252zM47.632 21.719l-.784-.625.123.254-.262-.154v.168l-1.677.57-1.851 1.748 2.641-1.6 1.241-.151s-.048-.285.04-.24a1.678 1.678 0 01.222.157zM50.53 28.769l-1.112.9 1.258-.294z"/><path d="M7.7 92.52s-1.766-2.165-2.755-.739-5.516 8.3-4.886 8.257 7.673-4.589 7.673-4.589zM17.219 102.56l1.244.947c.456-2.684 1.458-7.416 3.177-10.268-.394-.125-.793-.24-1.2-.342a22.357 22.357 0 00-3.221 9.663zM88.286 111.67a35.219 35.219 0 01-9.527 2.946q.285.59.57 1.175a21.726 21.726 0 009.2-2.741z" fill="#fdfdfd"/><path d="M36.461 90.164l-6.865 8.557c-3.246-4.912-9.835-6.386-15.049-6.743l-.645-.04-.764-.031a40.166 40.166 0 00-5.99.22l.542.881s11.055 10.722 22.864 10.71S49.162 79.391 48.58 79.599c-.046.017-.188-.163-.408-.5l-4.892.933zM76.615 101.736c-3.223 7.447 7.678 22.8 11.087 27.313l-9.8-32.23c-8.706 4.509-22.853-1.275-22.853-1.275s7.618 11.486 21.566 6.192z" fill="#ef7f33" opacity=".4"/></g><g><path d="M132.088 2.566h1.545l13.16 72.9-11.926 8.225s-19.592-29.457-2-39.791c0 0-6.015-4.009-4.781-15.731s4.002-25.603 4.002-25.603z" fill="#8b5e3c"/><path d="M134.867 83.913l11.926-8.225-3.356-18.6-17.438 5.662c1.888 10.664 8.868 21.163 8.868 21.163z" fill="#eae8e7"/><path d="M137.783 25.591l-4.155-23.025h-1.542s-2.364 11.822-3.7 22.86q4.7.059 9.397.165z" fill="#090000"/><path d="M132.135.138s-1.078 2.579 1.264 2.428a46.972 46.972 0 006.794-1.388s.268-1.658-8.058-1.04z" fill="#090000"/><path d="M128.704 22.94l8.651.272-.281-1.551h-8.2q-.09.638-.17 1.279z" fill="#eae8e7"/><path d="M133.649 2.566h-.482l7.039 75.849v.634l1.526-.082 5.077-3.5z" fill="#ef7f33" opacity=".5"/><path d="M133.542 81.794a54.877 54.877 0 001.332 2.165l2.985-2.059q-2.156-.063-4.317-.106z" fill="#090000"/><path d="M130.884 72.404s-19.895-9.561-37.476 2.931l24.522 25.292 1.85-1.388-8.172-15.269 5.243 2.161s.308 8.25 11.722 6.862l7.865-12.646-2.777-6.237z" fill="#8b5e3c"/><path d="M133.738 74.092l-2.777-1.7a42.888 42.888 0 00-16.36-3.509 60.512 60.512 0 01-1.526 15.626l3.85 1.585s.308 8.25 11.722 6.862l7.868-12.628z" fill="#eae8e7"/><path d="M119.861 99.304s2.2.077 1.773 1.388-2.582 7.474-2.851 7.057-.772-7.057-.772-7.057zM105.787 88.127l12.14 12.524 1.85-1.388-7.243-13.561a26.569 26.569 0 01-6.747 2.426z" fill="#090000"/><path d="M108.382 90.786a35.06 35.06 0 005.915-1.782l-.621-1.159a42.4 42.4 0 01-5.947 2.265z" fill="#eae8e7"/><path d="M128.572 93.005l2.052-3.3-.722-4.237s-18-12.909-32.612-6.126l20.65 21.288 1.85-1.388-8.182-15.26 5.243 2.161s.307 8.25 11.721 6.862z" fill="#ef7f33" opacity=".5"/><path d="M146.356 73.243s-17.3 4.278-18.306 20.013c0 0 9.333 9.836 34.471 5.075 0 0 4.319 21.612 0 37.959h2.931s16.965-29.919 7.813-54.806l-1.234-7.609s-17.314-2.4-25.675-.632z" fill="#ee1e26"/><path d="M172.564 79.282s19.329-6.771 34.136-2.659V73.64s-21.288-9.87-35.474-6.065z" fill="#ee1e26"/><path d="M162.572 136.291s-1.927 3.85-2.315 4.357-1.7 3.085-.962 2.931 1.529-1.427 1.529-1.427 2.636 6.824 3.1 5.515-.888-3.741-.888-3.741 1.889 4.781 2.584 3.51-1.2-3.78-1.2-3.78 2.392 3.277 2.507 1.812a3.532 3.532 0 00-1.388-2.62s2 1.388 1.773.577a11.554 11.554 0 00-1.966-2.622l.154-4.511zM206.698 73.645s1.424.227 1.85-.453 1.042-2.584 1.311-2.2a7.371 7.371 0 01.308 2.122c0-.057 4.858-2.969 4.7-1.948s-2.353 2.063-2.276 2.038 4.822-2.389 4.529-.983-4.027 2.07-4.027 2.07 4.55.136 3.836 1-3.934.559-3.934.559 3.47.057 2.931.983-3.911.65-3.911.65l-5.32-.861z" fill="#8b5e3c"/><path d="M160.111 77.225a3.739 3.739 0 00-2.686 1.241s7.365 5.32 13.264 1.157c0 0 3.046-3.116 0-5.888s-5.526 3.234-5.526 3.234z" fill="#eae8e7"/><path d="M160.11 77.197l-.847-2.235-3.934-2.625 2.161-5.766-1.234-1.284 3.032-1.748-.36-1.44 7.367-4.095a3.519 3.519 0 013.429 1.268c1.7 1.8 0 .206 0 .206l3.137 6.568v4.113l-1.85 3.549-1.028 4.113s-3.24 3.618-9.873-.624z" fill="#a97c50"/><path d="M166.313 58.005a4.613 4.613 0 01.906 4.57c-.926 2.7-2.038 5.053-2.038 5.053l1.15.96s3.171-3.506 4.015-1.656-1.658 3.9-1.658 3.9l3.123 4.434 1.067-.657s2.944-9.369 2.21-13.688-7.332-4.25-8.775-2.916z" fill="#000a00"/><path d="M162.254 90.971c-16.125 2.822-26.705-1.735-32.188-5.324a19.551 19.551 0 00-2.025 7.609s9.333 9.836 34.471 5.075c0 0 4.319 21.612 0 37.959h.829c12.422-30.929-1.087-45.319-1.087-45.319z" fill="#ee1e26"/><path d="M160.753 63.764l-.374.308 1.671 1.207zM160.848 62.977l.641-.426v.213l.258-.213 2.389 1.209-2.647-.6-.1-.193-.1.088zM156.905 68.066l.82.677-.985-.24z" fill="#000a00"/></g></svg>