<svg xmlns="http://www.w3.org/2000/svg" width="286.41" height="251.944" viewBox="0 0 286.41 251.944"><g transform="translate(-1732.59 403.061)"><g transform="translate(1770.832 -275.68)"><g transform="translate(0 0)"><path d="M8.362,0A8.364,8.364,0,1,1,0,8.363,8.364,8.364,0,0,1,8.362,0Z" transform="translate(0.001 0.006)" fill="#fff" fill-rule="evenodd"/><path d="M16.47,29.732A8.364,8.364,0,1,1,.67,24.4a10.175,10.175,0,0,0,15.8,5.332Z" transform="translate(0.006 -19.328)" fill="#e6e7e8" fill-rule="evenodd"/><path d="M58,62.691l.374-1.314.457-1.555,1.566-.4,1.325-.334A8.4,8.4,0,0,1,58,62.691Z" transform="translate(-45.955 -46.814)" fill="#404041" fill-rule="evenodd"/><path d="M26.063,26.091l-.44,1.555L25.18,29.2l1.128,1.161,1.125,1.159,1.566-.4,1.568-.395.44-1.555.442-1.553-1.125-1.161L29.2,25.3l-1.566.395Z" transform="translate(-19.95 -20.041)" fill="#404041" fill-rule="evenodd"/><path d="M45.4,7.541l1.568-.4L48.3,6.81A8.381,8.381,0,0,1,50.72,9.3l-.374,1.314-.44,1.555-1.568.395-1.566.4-1.115-1.155L44.52,10.649l.442-1.555Z" transform="translate(-35.274 -5.39)" fill="#fff" fill-rule="evenodd"/><path d="M19.4.856,19.03,2.17l-.44,1.555,1.123,1.161,1.125,1.159,1.574-.4,1.566-.395L24.421,3.7l.44-1.553L23.731.984,22.78,0A8.37,8.37,0,0,0,19.4.856Z" transform="translate(-14.729 0.006)" fill="#fff" fill-rule="evenodd"/><path d="M43.739,1.392l-1.325.334-1.568.4L39.721.962,38.77-.022a8.356,8.356,0,0,1,4.969,1.414Z" transform="translate(-30.718 0.028)" fill="#404041" fill-rule="evenodd"/><path d="M72.536,23.888l-.951-.98L70.46,21.75l.44-1.555.374-1.314A8.36,8.36,0,0,1,72.536,23.888Z" transform="translate(-55.828 -14.954)" fill="#404041" fill-rule="evenodd"/><path d="M.021,37.6l.951.978L2.1,39.737l-.434,1.555-.374,1.314A8.358,8.358,0,0,1,.021,37.6Z" transform="translate(-0.001 -29.787)" fill="#404041" fill-rule="evenodd"/><path d="M17.85,70.959l1.325-.334,1.568-.395,1.125,1.159.951.978a8.36,8.36,0,0,1-4.969-1.408Z" transform="translate(-14.142 -55.641)" fill="#404041" fill-rule="evenodd"/><path d="M4.66,7.721l1.316-.334,1.568-.4.44-1.555L8.358,4.12a8.4,8.4,0,0,0-3.7,3.6Z" transform="translate(-3.691 -3.259)" fill="#404041" fill-rule="evenodd"/></g></g><g transform="translate(1919.795 -237.4)"><g transform="translate(0 0)"><path d="M8.362,0A8.364,8.364,0,1,1,0,8.363,8.364,8.364,0,0,1,8.362,0Z" transform="translate(0.001 0.006)" fill="#fff" fill-rule="evenodd"/><path d="M16.47,29.732A8.364,8.364,0,1,1,.67,24.4a10.175,10.175,0,0,0,15.8,5.332Z" transform="translate(0.006 -19.328)" fill="#e6e7e8" fill-rule="evenodd"/><path d="M58,62.691l.374-1.314.457-1.555,1.566-.4,1.325-.334A8.4,8.4,0,0,1,58,62.691Z" transform="translate(-45.955 -46.814)" fill="#404041" fill-rule="evenodd"/><path d="M26.063,26.091l-.44,1.555L25.18,29.2l1.128,1.161,1.125,1.159,1.566-.4,1.568-.395.44-1.555.442-1.553-1.125-1.161L29.2,25.3l-1.566.395Z" transform="translate(-19.95 -20.041)" fill="#404041" fill-rule="evenodd"/><path d="M45.4,7.541l1.568-.4L48.3,6.81A8.381,8.381,0,0,1,50.72,9.3l-.374,1.314-.44,1.555-1.568.395-1.566.4-1.115-1.155L44.52,10.649l.442-1.555Z" transform="translate(-35.274 -5.39)" fill="#fff" fill-rule="evenodd"/><path d="M19.4.856,19.03,2.17l-.44,1.555,1.123,1.161,1.125,1.159,1.574-.4,1.566-.395L24.421,3.7l.44-1.553L23.731.984,22.78,0A8.37,8.37,0,0,0,19.4.856Z" transform="translate(-14.729 0.006)" fill="#fff" fill-rule="evenodd"/><path d="M43.739,1.392l-1.325.334-1.568.4L39.721.962,38.77-.022a8.356,8.356,0,0,1,4.969,1.414Z" transform="translate(-30.718 0.028)" fill="#404041" fill-rule="evenodd"/><path d="M72.536,23.888l-.951-.98L70.46,21.75l.44-1.555.374-1.314A8.36,8.36,0,0,1,72.536,23.888Z" transform="translate(-55.828 -14.954)" fill="#404041" fill-rule="evenodd"/><path d="M.021,37.6l.951.978L2.1,39.737l-.434,1.555-.374,1.314A8.358,8.358,0,0,1,.021,37.6Z" transform="translate(-0.001 -29.787)" fill="#404041" fill-rule="evenodd"/><path d="M17.85,70.959l1.325-.334,1.568-.395,1.125,1.159.951.978a8.36,8.36,0,0,1-4.969-1.408Z" transform="translate(-14.142 -55.641)" fill="#404041" fill-rule="evenodd"/><path d="M4.66,7.721l1.316-.334,1.568-.4.44-1.555L8.358,4.12a8.4,8.4,0,0,0-3.7,3.6Z" transform="translate(-3.691 -3.259)" fill="#404041" fill-rule="evenodd"/></g></g><g transform="translate(1882.832 -393.598)"><g transform="translate(0 0)"><path d="M8.362,0A8.364,8.364,0,1,1,0,8.363,8.364,8.364,0,0,1,8.362,0Z" transform="translate(0.001 0.006)" fill="#fff" fill-rule="evenodd"/><path d="M16.47,29.732A8.364,8.364,0,1,1,.67,24.4a10.175,10.175,0,0,0,15.8,5.332Z" transform="translate(0.006 -19.328)" fill="#e6e7e8" fill-rule="evenodd"/><path d="M58,62.691l.374-1.314.457-1.555,1.566-.4,1.325-.334A8.4,8.4,0,0,1,58,62.691Z" transform="translate(-45.955 -46.814)" fill="#404041" fill-rule="evenodd"/><path d="M26.063,26.091l-.44,1.555L25.18,29.2l1.128,1.161,1.125,1.159,1.566-.4,1.568-.395.44-1.555.442-1.553-1.125-1.161L29.2,25.3l-1.566.395Z" transform="translate(-19.95 -20.041)" fill="#404041" fill-rule="evenodd"/><path d="M45.4,7.541l1.568-.4L48.3,6.81A8.381,8.381,0,0,1,50.72,9.3l-.374,1.314-.44,1.555-1.568.395-1.566.4-1.115-1.155L44.52,10.649l.442-1.555Z" transform="translate(-35.274 -5.39)" fill="#fff" fill-rule="evenodd"/><path d="M19.4.856,19.03,2.17l-.44,1.555,1.123,1.161,1.125,1.159,1.574-.4,1.566-.395L24.421,3.7l.44-1.553L23.731.984,22.78,0A8.37,8.37,0,0,0,19.4.856Z" transform="translate(-14.729 0.006)" fill="#fff" fill-rule="evenodd"/><path d="M43.739,1.392l-1.325.334-1.568.4L39.721.962,38.77-.022a8.356,8.356,0,0,1,4.969,1.414Z" transform="translate(-30.718 0.028)" fill="#404041" fill-rule="evenodd"/><path d="M72.536,23.888l-.951-.98L70.46,21.75l.44-1.555.374-1.314A8.36,8.36,0,0,1,72.536,23.888Z" transform="translate(-55.828 -14.954)" fill="#404041" fill-rule="evenodd"/><path d="M.021,37.6l.951.978L2.1,39.737l-.434,1.555-.374,1.314A8.358,8.358,0,0,1,.021,37.6Z" transform="translate(-0.001 -29.787)" fill="#404041" fill-rule="evenodd"/><path d="M17.85,70.959l1.325-.334,1.568-.395,1.125,1.159.951.978a8.36,8.36,0,0,1-4.969-1.408Z" transform="translate(-14.142 -55.641)" fill="#404041" fill-rule="evenodd"/><path d="M4.66,7.721l1.316-.334,1.568-.4.44-1.555L8.358,4.12a8.4,8.4,0,0,0-3.7,3.6Z" transform="translate(-3.691 -3.259)" fill="#404041" fill-rule="evenodd"/></g></g><g transform="translate(-36 264)"><g transform="translate(1934.93 -621.599)"><g transform="translate(0 0)"><path d="M161.739,371.56s-19.045,2.755-24.3,12.6c0,0-8.38,15.4,2.53,14.321s29.809-4.19,29.809-4.19,7.307-2.145,10.719.585l-1.56-21.92Z" transform="translate(-96.036 -265.581)" fill="#dbdfe6"/><path d="M137.435,384.106s-8.38,15.4,2.53,14.321c3.423-.337,7.6-.87,11.748-1.449,5.451-1.241,10.379-2.413,10.379-2.413s-.285-2.059-.93-5.317-14.646-1.632-14.547-6.067,21.033-9.264,21.033-9.264q-.285-1.07-.6-2l-5.311-.431S142.695,374.265,137.435,384.106Z" transform="translate(-96.036 -265.531)" fill="#dbdfe6"/><path d="M236.63,170.671c-.516-.984.368-1.791.93-2.179a20.759,20.759,0,0,0-1.92-6.632s-4.224-.439-4.735,0-1.905,4.88-1.905,4.88l2.624,7.647c.071.22,4.15,8.451,5.682.947a20.552,20.552,0,0,0,.411-3.973A1.184,1.184,0,0,1,236.63,170.671Z" transform="translate(-163.682 -115.554)" fill="#a97c50"/><path d="M200.8,146.8s-.048,13.406,4.541,16.306,10.981-1.968,10.981-1.968-3.06-8.3-2.239-12.019,3.223-3.058,3.993-4.589-2.022-4.481-6.774-4.752S200.757,143.307,200.8,146.8Z" transform="translate(-143.525 -99.898)" fill="#101116"/><path d="M310,450.567l16.027-2.727-2.282-4.19-9.45-1.46s-4.969,2.43-5.017,2.75S310,450.567,310,450.567Z" transform="translate(-221.059 -316.066)" fill="#fff"/><path d="M137.32,38.72a26.4,26.4,0,0,1-3.839-2.25c-20.043,17.684-14.187,27.667-14.187,27.667l-22.31,19.11L81.3,87.437,58.82,83.877C57.431,72.936,37.214,68.5,32.69,67.965c-.5,1.075-1.728,3.5-2.37,4.5l43.263,34.772L87.707,132.66c14.176,13.006,29.812,0,29.812,0L115.625,98.9Z" transform="translate(-21.671 -26.067)" fill="#a97c50"/><path d="M272.624,373.71s13.443,5.066,14.612,14.906-5.456,11.592-11.979,10.128-14.027-2.336-14.027-2.336-1.64-1.646-6.027-1.358-7.892-5.961-7.892-5.961l8.468-13.237,3.9-1.363Z" transform="translate(-176.77 -267.118)" fill="#dbdfe6"/><path d="M329.776,424.44s5.539-8.534-2.707-11.523c-4.432-1.609-10.288,1.3-12.373,7.57-2.1,6.318-5.456,7.738-5.456,7.738l2.365.924Z" transform="translate(-221.035 -294.83)" fill="#fff"/><path d="M207.72,185.35l-11.948-14.98-10.04,8.605-15.687,4.19-10.9-1.728h0l-4.643,15.2h0l7.844,6.3,14.124,25.425c14.176,13.006,29.812,0,29.812,0l-1.894-33.756Z" transform="translate(-110.431 -121.776)" fill="#fff"/><path d="M253.378,167.31l1.925,3.871-1.312.787-.7-4.658" transform="translate(-181.044 -119.589)" fill="#a97c50"/><path d="M250.433,171.84l-.973.742,1.018-.214Z" transform="translate(-178.306 -122.826)" fill="#101116"/><path d="M239.013,175.948s-1.917-2.464-3.137-1.1.114,4.392,3.217,4.033S239.013,175.948,239.013,175.948Z" transform="translate(-168.276 -124.684)" fill="#a97c50"/><path d="M115.6,104.45l21.677-60.183-.08-.037-24.983,55.4,2.131,12.815-31.917,1.064L78.218,108.4l3.137-6.723L30.408,77.821l-.128.208,43.274,34.752,14.124,25.425c14.176,13.006,29.812,0,29.812,0l-1.438-25.819Z" transform="translate(-21.642 -31.614)" fill="#dfdfed" opacity="0.7"/><g transform="translate(61.382 71.591)"><path d="M216,270.05l-.8-2.852a6.29,6.29,0,0,0,3.006-1.343,2.609,2.609,0,0,0,.376-.428l1.021,3.625Zm3.169-7.416,3.354-.944,5.271,18.691-3.9,1.1-4.82-17.1a5.3,5.3,0,0,0,.1-1.731Z" transform="translate(-215.2 -258.64)" fill="#778cc2"/><path d="M259.366,251.446l.91,3.223a3.451,3.451,0,0,0-1.072.856q-1.3,1.711-.077,6.047a18.883,18.883,0,0,0,1.221,3.28,6.041,6.041,0,0,0,1.543,2.054,2.852,2.852,0,0,0,2,.57l.921,3.283a6.259,6.259,0,0,1-4.94-.742,10.791,10.791,0,0,1-3.725-5.237,22.022,22.022,0,0,1-.727-2.162,15.054,15.054,0,0,1-.636-5.26,7.943,7.943,0,0,1,.588-2.282,6.181,6.181,0,0,1,2.182-2.721,7.177,7.177,0,0,1,1.817-.91Zm6.152,19.11-.93-3.3a3.086,3.086,0,0,0,.913-.7,4.521,4.521,0,0,0,.73-3.622,22.144,22.144,0,0,0-.653-3.137q-1.015-3.6-2.544-4.772a2.684,2.684,0,0,0-2.048-.533l-.916-3.246a7.314,7.314,0,0,1,1.48-.24,5.844,5.844,0,0,1,3.671,1.007q2.641,1.8,4.05,6.8.237.839.445,1.891a14.1,14.1,0,0,1,.328,3.237,7.1,7.1,0,0,1-1.711,4.775,7.847,7.847,0,0,1-2.815,1.843Z" transform="translate(-243.473 -250.998)" fill="#778cc2"/></g><path d="M148.71,452.658l21.489,2-4.144-7.151-13.349-.194Z" transform="translate(-106.293 -319.725)" fill="#fff"/><path d="M156.505,423.289s6.42-2.259,9.712,2.61,1.831,7.644,1.831,7.644l-7.307.947s-2.484.163-3.066-1.05a11.878,11.878,0,0,1-1.169-2.6C156.286,429.886,156.505,423.289,156.505,423.289Z" transform="translate(-111.795 -302.181)" fill="#fff"/><path d="M143.433,424.6s-4.749,2.111-5.262,6.477,2.969,5.348,2.969,5.348l5.653-1.674s.365-2.442,0-2.6-1.389-3.28-1.389-3.28Z" transform="translate(-98.723 -303.493)" fill="#fff"/><path d="M204.384,445.33s-4.307.385-1.651,5.06,12.236,6.138,12.236,6.138S214.455,447.6,204.384,445.33Z" transform="translate(-144.289 -318.31)" fill="#101116"/><path d="M292.443,449.5s4.672,2.336,1.443,5.565-10.377,4.278-10.377,4.278S288.114,447.509,292.443,449.5Z" transform="translate(-202.644 -321.131)" fill="#101116"/><path d="M389.727,10.632s-.625-4.481-.339-4.906-.465-2.456-.029-2.889c.938-.93,2.707,2.764,2.707,2.764s2.29-6.426,3.08-5.513S393.572,5.7,393.572,5.7s2.784-4.889,3.254-4.019-2.2,4.564-2.2,4.564,3.8-3.192,3.329-1.654a6.272,6.272,0,0,1-2.367,2.747s3.366-1.606,2.567-.054a4.249,4.249,0,0,1-2.8,1.9l-1.626,3.868S389.608,11.9,389.727,10.632Z" transform="translate(-278.203 0.001)" fill="#a97c50"/><path d="M11,131.5s-2.142-3.48-2.621-3.657-1-2.436-1.606-2.521c-1.315-.185-.57,3.371-.57,3.371s-5.545-4.067-5.7-2.75S5,129.766,5,129.766-.1,127.373,0,128.44s4.424,2.49,4.424,2.49-4.994-.251-3.734.77a5.747,5.747,0,0,0,3.54.807S.313,133.189,2,133.648a13.265,13.265,0,0,0,3.668.285l3.349,2.282S11.828,132.5,11,131.5Z" transform="translate(0.005 -89.572)" fill="#a97c50"/></g></g><g transform="translate(1858.209 -542.83)"><g transform="translate(0 0)"><path d="M35.237,131.8c.1.36.165.561.165.561-6.891,2.388-14.1,10.808-14.1,10.808l.978,2.931,19.575-9.642.821-3.062A21.492,21.492,0,0,1,35.237,131.8Z" transform="translate(-15.81 -97.877)" fill="#8b5e3c"/><path d="M5.38,175.368a13.431,13.431,0,0,0-1.879.6c-.239.178-1.408-.162-1.649.1-.515.564,1.287,1.13,1.287,1.13s-3.646,1.544-3.119,1.94,3.193-1.109,3.193-1.109S.447,179.789.948,180.018,3.522,178.6,3.522,178.6s-1.788,2.254-.914,1.93A3.827,3.827,0,0,0,4.152,179.1s-.787,1.76.093,1.245A6.737,6.737,0,0,0,5.9,178.76l1.5-.937S6.108,175.247,5.38,175.368Z" transform="translate(0.033 -130.231)" fill="#8b5e3c"/><path d="M124.685,226.2s15.378,2.573,24.132-6.3c0,0,6.194,9.287,30.753,1.173v-3.631L123.185,203.56l-3.945,18.368Z" transform="translate(-88.548 -151.171)" fill="#8b5e3c"/><path d="M138.1,223l.772-18.2-19.3-4.763-.293,19.274,4.655,3.649,1.974.772A37.89,37.89,0,0,0,138.1,223Z" transform="translate(-88.577 -148.557)" fill="#fdfdfd"/><path d="M351.573,238.866s2.72,2.831,3.95.728,6.83-12.28,5.947-12.138-10.26,7.3-10.26,7.3Z" transform="translate(-260.825 -168.917)" fill="#090000"/><path d="M264.9,237c-.033.61-.062,1.217-.113,1.827a58.158,58.158,0,0,1-1.75,9.851c4.712,1.016,12.095.95,23.327-2.761v-3.639Z" transform="translate(-195.344 -176.006)" fill="#090000"/><path d="M275.741,251.161a32.616,32.616,0,0,0,1.945-11.106L276,239.64a42.461,42.461,0,0,1-1.768,11.425C274.711,251.112,275.218,251.14,275.741,251.161Z" transform="translate(-203.654 -177.967)" fill="#fdfdfd"/><path d="M184.324,255.764v-.09c-21.181,2.612-31.441-5.4-31.441-5.4-15.108,7.882-26.276,2.9-26.544,3.018v.381l-.7,4.251,3.8,2.982s.793.131,2.11.229h.036l.515.033h.046c.18.013.368.021.566.031h.033a37.126,37.126,0,0,0,10.074-.885h0a22.072,22.072,0,0,0,10.746-5.715C153.571,254.591,159.765,263.878,184.324,255.764Z" transform="translate(-93.301 -185.861)" fill="#ef7f33" opacity="0.4"/><path d="M151.6,63.435l11.606-2.6-4.5-7.483-3.909,2.18-3.736-1.3-2.867,1.8L146,58.394l2.8,5.774Z" transform="translate(-108.421 -39.615)" fill="#8b5e3c"/><path d="M176.88-.02c-3.525-.067-5.584.353-7.01,1.377S165.923,4.723,166.2,7.09a6.831,6.831,0,0,1,.232,2.91c-.162.736-.417,1.029-.656,1.837a6.974,6.974,0,0,0-.221,2.751l2.118,3.7,4.3-1.5,6.3-3.942.95-3.649a11.7,11.7,0,0,1,2.151-1.354c.5-.1,2.952,2.452,5.252.852l.358-2.612A11.447,11.447,0,0,0,176.88-.02Z" transform="translate(-122.91 0.027)" fill="#232323"/><path d="M181.323,32.253c.728-.772,2.3-.35,3,1.652l2.452-3.052.5-4.4,6.055.35,3.1,1.593V33.1l-1.351.952,1.351,4.3H193.58l-2.1,6.554s-2.331,1.467-5.093-1.418a13.154,13.154,0,0,1-3.165-7.007S180.145,33.5,181.323,32.253Z" transform="translate(-134.455 -19.637)" fill="#a97c50"/><path d="M221.443,53.353V52.82l-3.7.533Z" transform="translate(-161.701 -39.221)" fill="#232323"/><path d="M219.024,47.8l-1.05-1.065L213.7,47.8s3.675-.283,3.726-.317,1.256.319,1.544.4l.059.018Z" transform="translate(-158.7 -34.698)" fill="#232323"/><path d="M223.65,77.55h-1.57v.957l1.171.288Z" transform="translate(-164.924 -57.587)" fill="#232323"/><path d="M70.69,264.435s2.723,12.334,13.461,14.094c0,0-1.287,20.5,17.619,27.709l1.8-.841L90.082,253.82Z" transform="translate(-52.491 -188.498)" fill="#8b5e3c"/><path d="M128.36,378.306a26.187,26.187,0,0,0,16.232,17.627l1.8-.841L141.039,374.6A58.442,58.442,0,0,1,128.36,378.306Z" transform="translate(-95.321 -278.197)" fill="#090000"/><path d="M58.051,210.93,57.41,231,82.6,223.959l-6.5-20.4Z" transform="translate(-42.628 -151.171)" fill="#fdfdfd"/><path d="M157.39,91.85l12.2,10.224,20.262-3.935-.916-2.926s-10.2-2.458-16.765-.257c0,0-3.86-11.793-10.255-14.786l-4.534,11.9" transform="translate(-116.873 -59.533)" fill="#8b5e3c"/><path d="M61.867,66.2s-27.442-1.6-28.937,47.73l26.155-12.388-1.176-8.968s6.513-5.34,7.9-10.249l-.854-.854,8-9.063S70.2,67.484,61.867,66.2Z" transform="translate(-24.448 -49.156)" fill="#ee1e26"/><path d="M190.864,455.091s-1.287,10.733,2.671,9.93-.87-10.772-.87-10.772Z" transform="translate(-141.592 -337.351)" fill="#090000"/><path d="M132.045,387.839a37.821,37.821,0,0,0,12.231-3.793l-.448-1.716a40.309,40.309,0,0,1-12.408,4.027C131.61,386.844,131.827,387.34,132.045,387.839Z" transform="translate(-97.593 -283.938)" fill="#fdfdfd"/><path d="M61.867,66.2s-27.442-1.6-28.937,47.73l6.554-3.1h0c-1.94-32.483,19.171-42.39,24.168-44.261A17.641,17.641,0,0,0,61.867,66.2Z" transform="translate(-24.448 -49.156)" fill="#ee1e26" fill-rule="evenodd"/><path d="M91.9,288.949l.244-.116c-12.282-7.151-13.638-30.622-13.638-30.622C66.213,250.1,62.629,230.54,62.629,230.54s-2.411.3-4.583.615l-.636,19.894,4.292-1.2c1.472,3.736,5.057,10.165,12.578,11.4C74.288,261.239,73,281.741,91.9,288.949Z" transform="translate(-42.628 -171.208)" fill="#ef7f33" fill-rule="evenodd" opacity="0.4"/><path d="M278.993,133.55a12.1,12.1,0,0,1,1.763-.633c.283,0,.973-.97,1.3-.906.713.142-.342,1.678-.342,1.678s3.626-.942,3.456-.3-3.044,1.016-3.044,1.016,3.088-.242,2.831.239-2.751.4-2.751.4,2.62.744,1.776,1.006a3.417,3.417,0,0,1-1.976-.232s1.585.944.633,1.055a6.045,6.045,0,0,1-2.151-.283l-1.662.142S278.375,133.882,278.993,133.55Z" transform="translate(-206.95 -98.032)" fill="#8b5e3c"/></g></g><g transform="translate(1768.59 -652.544)"><g transform="translate(0 0)"><path d="M49.084,155.63s-6.791,22.487-3.89,34.441l1.86-.242s11.278-25.414,13.659-29.244Z" transform="translate(-31.788 -111.241)" fill="#8b5e3c"/><path d="M108.036,28.57s-33.848,1.352-47.4,36.241l11.629,4.954,3.137-3.739,11.235,19.9s9.324,3.625,20.026-3.811l-6.033-34.367,6.748-4.15Z" transform="translate(-43.344 -20.421)" fill="#fdfdfd"/><g transform="translate(13.12 36.7)" opacity="0.4"><path d="M84.649,157.053c-.57.208-15.22-28.383-15.22-28.383-13.948,9.127-18.254,36.352-19,42.005l.887-.117s11.272-25.414,13.654-29.244l3.137-3.739,11.235,19.9a16.906,16.906,0,0,0,5.1.856C84.663,157.506,84.734,157.021,84.649,157.053Z" transform="translate(-49.166 -128.67)" fill="#ef7f33"/><path d="M46.285,272.535l.391-.051L46,271C46.074,271.531,46.174,272.044,46.285,272.535Z" transform="translate(-46 -230.404)" fill="#ef7f33"/></g><path d="M249.493,27.219a4.4,4.4,0,0,1,.051-.471c-10.659-1.355-24.341.108-24.341.108l-.653,15.029L249.379,29.86A24.761,24.761,0,0,1,249.493,27.219Z" transform="translate(-160.503 -18.708)" fill="#8b5e3c"/><path d="M311.363,24.444a11.327,11.327,0,0,1,1.711-.613c.285,0,.944-.941,1.266-.878.69.137-.331,1.629-.331,1.629s3.517-.916,3.351-.285-2.952.984-2.952.984,2.992-.234,2.747.234-2.67.391-2.67.391,2.544.722,1.711.975a3.3,3.3,0,0,1-1.92-.225s1.54.916.613,1.024a5.841,5.841,0,0,1-2.085-.285l-1.6.134S310.764,24.767,311.363,24.444Z" transform="translate(-222.33 -16.404)" fill="#8b5e3c"/><path d="M309.954,401.366s-1.052,2.587.673,2.772,9.94.856,9.592.334-7.7-4.532-7.7-4.532Z" transform="translate(-221.32 -285.867)" fill="#fdfdfd"/><path d="M99.028,230.844l-11.583-7.852-9.758-6.651L57.67,220.151l-6.845,10.131-6.865,8.557c-5.824-8.794-22.433-6.594-22.433-6.594L20.1,234.013l25.459,19.219C56.284,251.953,65.3,241.956,65.3,241.956l4.113-6.295s7.624,11.486,21.572,6.192c-3.811,8.791,12.085,28.6,12.085,28.6l2.772-.285Z" transform="translate(-14.367 -154.635)" fill="#8b5e3c"/><path d="M35.519,284.34a28.354,28.354,0,0,1,3.137-10.69c-7.193-3.471-17.131-2.159-17.131-2.159L20.1,273.259l15.388,11.609C35.5,284.691,35.505,284.517,35.519,284.34Z" transform="translate(-14.367 -193.881)" fill="#fdfdfd"/><path d="M272.57,334.922c3.46,8.7,10.961,18.049,10.961,18.049l2.772-.285-3.628-20.9A28.309,28.309,0,0,1,272.57,334.922Z" transform="translate(-194.826 -237.155)" fill="#fdfdfd"/><path d="M160.474,226.263l-4.826-3.272-9.758-6.651-20.017,3.811-6.845,10.131-3.508,4.367c1.942,4.19,5.662,10.074,11.934,12.618a43.68,43.68,0,0,0,6.058-5.311l4.107-6.295a18.731,18.731,0,0,0,11.837,7.393C153.389,239.954,158.954,234.3,160.474,226.263Z" transform="translate(-82.571 -154.635)" fill="#fdfdfd"/><path d="M147.83,60.635l-1.409,4.159-8.631-1.038-.99-5.582,3.565-1.854,7.173,4.238Z" transform="translate(-97.781 -40.256)" fill="#8b5e3c"/><path d="M137.415,71.1a25.518,25.518,0,0,0,9.016,3.195,2.041,2.041,0,0,0-1.209,2.587c.5,2.017-10.445-.762-8.069-7.259Z" transform="translate(-97.792 -49.763)" fill="#f4efef"/><path d="M166.552,65.9a4.28,4.28,0,0,1,2.73,1.689s4.278-6.341-1.118-9.147-2.333,5.8-2.333,5.8Z" transform="translate(-117.912 -41.37)" fill="#f4efef"/><path d="M136.436,10.89l.066.128,4.726,8.919-1.777.231s2.153,7.581,1.115,8.571S131.154,32.676,127.7,24.2s-2.49-12.165-2.49-12.165Z" transform="translate(-89.408 -7.784)" fill="#a97c50"/><path d="M121.55,6.778s8.209,3.457,14.393-5.756a25.223,25.223,0,0,0-3.1-.673,14.671,14.671,0,0,0-6.275,0,6.642,6.642,0,0,0-3.8,2.017A6.168,6.168,0,0,0,121.55,6.778Z" transform="translate(-86.858 -0.001)"/><path d="M127.37,16.6s-2.1,2.5-1.092,4.652-.428,6.686-.428,6.686-4.875-5.006-4.327-11.141S127.37,16.6,127.37,16.6Z" transform="translate(-86.83 -10.02)"/><path d="M137.5,34.9s-2.416-2.416-3.035-.958,3.286,2.884,3.286,2.884l-.237-1.817" transform="translate(-96.063 -23.925)" fill="#a97c50"/><path d="M162.744,29.445l-.391-.365-1.663,1.252Z" transform="translate(-114.857 -20.786)"/><path d="M155.842,23.685l-.784-.625.123.254-.262-.154v.168l-1.677.57-1.851,1.748,2.641-1.6,1.241-.151s-.048-.285.04-.24a1.678,1.678,0,0,1,.222.157Z" transform="translate(-108.21 -16.483)"/><path d="M174.372,49.97l-1.112.9,1.258-.294Z" transform="translate(-123.842 -35.718)"/><path d="M7.7,270.41s-1.766-2.165-2.755-.739-5.516,8.3-4.886,8.257,7.673-4.589,7.673-4.589Z" transform="translate(0 -192.407)" fill="#fdfdfd"/><path d="M60.37,284.463l1.244.947c.456-2.684,1.458-7.416,3.177-10.268-.394-.125-.793-.24-1.2-.342A22.357,22.357,0,0,0,60.37,284.463Z" transform="translate(-43.151 -196.42)" fill="#fdfdfd"/><path d="M285.657,340.62a35.219,35.219,0,0,1-9.527,2.946q.285.59.57,1.175A21.726,21.726,0,0,0,285.9,342Z" transform="translate(-197.371 -243.467)" fill="#fdfdfd"/><path d="M54.373,237.494l-6.865,8.557c-3.246-4.912-9.835-6.386-15.049-6.743l-.645-.04-.764-.031a40.166,40.166,0,0,0-5.99.22l.542.881s11.055,10.722,22.864,10.71,18.608-24.327,18.026-24.119c-.046.017-.188-.163-.408-.5l-4.892.933Z" transform="translate(-17.912 -161.847)" fill="#ef7f33" opacity="0.4"/><path d="M214.566,290.272c-3.223,7.447,7.678,22.8,11.087,27.313l-9.8-32.23C207.147,289.864,193,284.08,193,284.08S200.618,295.566,214.566,290.272Z" transform="translate(-137.951 -203.053)" fill="#ef7f33" opacity="0.4"/></g></g><g transform="translate(1861.998 -667.061)"><g transform="translate(0 0)"><path d="M147.855,11.33H149.4l13.16,72.9-11.926,8.225s-19.592-29.457-2-39.791c0,0-6.015-4.009-4.781-15.731S147.855,11.33,147.855,11.33Z" transform="translate(-109.175 -8.764)" fill="#8b5e3c"/><path d="M152.219,277.931l11.926-8.225-3.356-18.6-17.438,5.662C145.239,267.432,152.219,277.931,152.219,277.931Z" transform="translate(-110.76 -194.018)" fill="#eae8e7"/><path d="M163.316,34.355,159.161,11.33h-1.542s-2.364,11.822-3.7,22.86Q158.619,34.249,163.316,34.355Z" transform="translate(-118.941 -8.764)" fill="#090000"/><path d="M169.574.138s-1.078,2.579,1.264,2.428a46.972,46.972,0,0,0,6.794-1.388S177.9-.48,169.574.138Z" transform="translate(-130.847 0)" fill="#090000"/><path d="M155.32,96.92l8.651.272-.281-1.551h-8.2Q155.4,96.279,155.32,96.92Z" transform="translate(-120.024 -73.98)" fill="#eae8e7"/><path d="M175.412,11.33h-.482l7.039,75.849v.634l1.526-.082,5.077-3.5Z" transform="translate(-135.171 -8.764)" fill="#ef7f33" opacity="0.5"/><path d="M176.63,360c.8,1.359,1.332,2.165,1.332,2.165l2.985-2.059Q178.791,360.043,176.63,360Z" transform="translate(-136.496 -278.206)" fill="#090000"/><path d="M37.476,306.521S17.581,296.96,0,309.452l24.522,25.292,1.85-1.388L18.2,318.087l5.243,2.161s.308,8.25,11.722,6.862l7.865-12.646-2.777-6.237Z" transform="translate(0 -234.117)" fill="#8b5e3c"/><path d="M107.163,308.209l-2.777-1.7A42.888,42.888,0,0,0,88.026,303,60.512,60.512,0,0,1,86.5,318.626l3.85,1.585s.308,8.25,11.722,6.862l7.868-12.628Z" transform="translate(-66.833 -234.117)" fill="#eae8e7"/><path d="M110.13,437s2.2.077,1.773,1.388-2.582,7.474-2.851,7.057-.772-7.057-.772-7.057Z" transform="translate(-83.677 -337.696)" fill="#090000"/><path d="M54.66,379.505,66.8,392.029l1.85-1.388L61.407,377.08a26.569,26.569,0,0,1-6.747,2.426Z" transform="translate(-42.281 -291.378)" fill="#090000"/><path d="M63.892,389.562a35.06,35.06,0,0,0,5.915-1.782l-.621-1.159a42.4,42.4,0,0,1-5.947,2.265Z" transform="translate(-48.918 -298.776)" fill="#eae8e7"/><path d="M48.422,355.984l2.052-3.3-.722-4.237s-18-12.909-32.612-6.126l20.65,21.288,1.85-1.388-8.182-15.26,5.243,2.161S37.008,357.372,48.422,355.984Z" transform="translate(-13.258 -262.979)" fill="#ef7f33" opacity="0.5"/><path d="M170.476,319.109s-17.3,4.278-18.306,20.013c0,0,9.333,9.836,34.471,5.075,0,0,4.319,21.612,0,37.959h2.931s16.965-29.919,7.813-54.806l-1.234-7.609S178.837,317.341,170.476,319.109Z" transform="translate(-117.528 -245.866)" fill="#ee1e26"/><path d="M343.2,306.086s19.329-6.771,34.136-2.659v-2.983s-21.288-9.87-35.474-6.065Z" transform="translate(-264.044 -226.804)" fill="#ee1e26"/><path d="M292.467,599.72s-1.927,3.85-2.315,4.357-1.7,3.085-.962,2.931,1.529-1.427,1.529-1.427,2.636,6.824,3.1,5.515-.888-3.741-.888-3.741,1.889,4.781,2.584,3.51-1.2-3.78-1.2-3.78,2.392,3.277,2.507,1.812a3.532,3.532,0,0,0-1.388-2.62s2,1.388,1.773.577a11.554,11.554,0,0,0-1.966-2.622l.154-4.511Z" transform="translate(-223.303 -463.429)" fill="#8b5e3c"/><path d="M498.5,314.908s1.424.227,1.85-.453,1.042-2.584,1.311-2.2a7.371,7.371,0,0,1,.308,2.122c0-.057,4.858-2.969,4.7-1.948s-2.353,2.063-2.276,2.038,4.822-2.389,4.529-.983-4.027,2.07-4.027,2.07,4.55.136,3.836,1-3.934.559-3.934.559,3.47.057,2.931.983-3.911.65-3.911.65l-5.32-.861Z" transform="translate(-385.21 -241.263)" fill="#8b5e3c"/><path d="M284.336,325.5a3.739,3.739,0,0,0-2.686,1.241s7.365,5.32,13.264,1.157c0,0,3.046-3.116,0-5.888s-5.526,3.234-5.526,3.234Z" transform="translate(-217.633 -248.275)" fill="#eae8e7"/><path d="M277.181,274.112l-.847-2.235-3.934-2.625,2.161-5.766-1.234-1.284,3.032-1.748-.36-1.44,7.367-4.095a3.519,3.519,0,0,1,3.429,1.268c1.7,1.8,0,.206,0,.206l3.137,6.568v4.113l-1.85,3.549-1.028,4.113S283.814,278.354,277.181,274.112Z" transform="translate(-210.479 -196.915)" fill="#a97c50"/><path d="M316.952,252.463a4.613,4.613,0,0,1,.906,4.57c-.926,2.7-2.038,5.053-2.038,5.053l1.15.96s3.171-3.506,4.015-1.656-1.658,3.9-1.658,3.9l3.123,4.434,1.067-.657s2.944-9.369,2.21-13.688S318.395,251.129,316.952,252.463Z" transform="translate(-244.047 -194.458)" fill="#000a00"/><path d="M186.413,381.424c-16.125,2.822-26.705-1.735-32.188-5.324a19.551,19.551,0,0,0-2.025,7.609s9.333,9.836,34.471,5.075c0,0,4.319,21.612,0,37.959h.829C199.922,395.814,186.413,381.424,186.413,381.424Z" transform="translate(-117.567 -290.453)" fill="#ee1e26"/><path d="M295.134,280.65l-.374.308,1.671,1.207Z" transform="translate(-227.789 -216.886)" fill="#000a00"/><path d="M296.81,275.736l.641-.426v.213l.258-.213,2.389,1.209-2.647-.6-.1-.193-.1.088Z" transform="translate(-229.37 -212.759)" fill="#000a00"/><path d="M278.915,299.59l.82.677-.985-.24Z" transform="translate(-215.418 -231.524)" fill="#000a00"/></g></g></g></g></svg>