<svg xmlns="http://www.w3.org/2000/svg" viewBox="0 0 346.78 416.52"><defs><style>.prefix__cls-2{fill:#8b5e3c}.prefix__cls-3{fill:#fdfdfd}.prefix__cls-7{fill:#a97c50}</style></defs><g style="isolation:isolate"><g id="prefix__Layer_2" data-name="Layer 2"><g id="prefix__Layer_1-2" data-name="Layer 1"><path class="prefix__cls-2" d="M60.64 155.63S36.83 234.47 47 276.38l6.52-.85s39.54-89.1 47.89-102.53z"/><path class="prefix__cls-3" d="M226.81 28.57S108.14 33.31 60.64 155.63L101.41 173l11-13.11 39.39 69.77s32.69 12.71 70.21-13.36L200.86 95.81l23.66-14.55z"/><path d="M170.4 228.18c-2 .73-53.36-99.51-53.36-99.51-48.9 32-64 127.45-66.61 147.27l3.11-.41s39.52-89.1 47.87-102.53l11-13.11 39.39 69.77s6.85 2.65 17.87 3c.78-2.89 1.03-4.59.73-4.48zM47 276.38l1.37-.18L46 271c.26 1.86.61 3.66 1 5.38z" fill="#ef7f33" opacity=".4"/><path class="prefix__cls-2" d="M312 29.84c0-.55.12-1.1.18-1.65-37.37-4.75-85.34.38-85.34.38l-2.29 52.69L311.6 39.1c-.02-3.1.09-6.17.4-9.26z"/><path class="prefix__cls-2" d="M312.15 28.19s5-2.15 6-2.15 3.31-3.3 4.44-3.08c2.42.48-1.16 5.71-1.16 5.71s12.33-3.21 11.75-1-10.35 3.45-10.35 3.45 10.49-.82 9.63.82-9.36 1.37-9.36 1.37 8.92 2.53 6 3.42-6.73-.79-6.73-.79 5.4 3.21 2.15 3.59a20.48 20.48 0 01-7.31-1l-5.61.47s-1.55-9.68.55-10.81z"/><path class="prefix__cls-3" d="M310.75 404.94s-3.69 9.07 2.36 9.72 34.85 3 33.63 1.17-27-15.89-27-15.89z"/><path class="prefix__cls-2" d="M296.82 267.19l-40.61-27.53L222 216.34l-70.18 13.36-24 35.52-24.07 30C83.33 264.39 25.1 272.1 25.1 272.1l-5 6.2 89.26 67.38c37.6-4.48 69.22-39.53 69.22-39.53L193 284.08s26.73 40.27 75.63 21.71C255.27 336.61 311 406.05 311 406.05l9.72-1z"/><path class="prefix__cls-3" d="M74.16 317.15a99.41 99.41 0 0111-37.48C59.94 267.5 25.1 272.1 25.1 272.1l-5 6.2L74.05 319c.04-.62.06-1.23.11-1.85zm198.41 25.62C284.7 373.28 311 406.05 311 406.05l9.72-1L308 331.79a99.25 99.25 0 01-35.43 10.98zm.56-91.64l-16.92-11.47L222 216.34l-70.18 13.36-24 35.52-12.3 15.31c6.81 14.69 19.85 35.32 41.84 44.24a153.14 153.14 0 0021.24-18.62l14.4-22.07s14.43 21.73 41.5 25.92c13.79-10.87 33.3-30.7 38.63-58.87z"/><path class="prefix__cls-2" d="M175.47 71.45l-4.94 14.58-30.26-3.64-3.47-19.57 12.5-6.5 25.15 14.86 1.02.27z"/><path d="M138.92 74.8s15.47 9.41 31.61 11.2c0 0-6 2-4.24 9.07S129.67 92.4 138 69.62zM170.53 86s6.92 1.18 9.57 5.92c0 0 15-22.23-3.92-32.07S168 80.2 168 80.2z" fill="#f4efef"/><path class="prefix__cls-7" d="M164.88 10.89l.23.45 16.57 31.27-6.23.81S183 70 179.36 73.47s-33 13.8-45.11-15.93-8.73-42.65-8.73-42.65z"/><path d="M121.63 23.76s28.78 12.12 50.46-20.18a88.43 88.43 0 00-10.88-2.36c-7.1-1.07-13.94-2.1-22 0-4.61 1.21-9.54 2.51-13.33 7.07-4.88 5.96-4.46 13.34-4.25 15.47z"/><path d="M142.13 23.07s-7.36 8.77-3.83 16.31-1.5 23.44-1.5 23.44-17.09-17.55-15.17-39.06 20.5-.69 20.5-.69z"/><path class="prefix__cls-7" d="M145.27 38.47s-8.47-8.47-10.64-3.36 11.52 10.11 11.52 10.11l-.83-6.37"/><path d="M167.89 30.36l-1.37-1.28-5.83 4.39 7.2-3.11zm-.89-5.11l-2.75-2.19.43.89-.92-.54V24l-5.88 2-6.49 6.13 9.26-5.6L165 26s-.17-1 .14-.84.78.55.78.55zm10.16 24.72l-3.9 3.16 4.41-1.03-.51-2.13z"/><path class="prefix__cls-3" d="M27 273.48s-6.19-7.59-9.66-2.59S-2 300 .21 299.84s26.9-16.09 26.9-16.09zm33.37 35.2l4.36 3.32c1.6-9.41 5.11-26 11.14-36-1.38-.44-2.78-.84-4.19-1.2-4.14 6.9-10.35 19.43-11.31 33.88zm249.16 31.94c-8.26 3.67-22.31 9.25-33.4 10.33q1 2.07 2 4.12c8.36-.67 20.9-2.86 32.25-9.6z"/><path d="M127.83 265.22l-24.07 30C92.38 278 69.28 272.83 51 271.58l-2.26-.14-2.68-.11a140.83 140.83 0 00-21 .77l1.9 3.09s38.76 37.59 80.16 37.55 65.24-85.29 63.2-84.56c-.16.06-.66-.57-1.43-1.75l-17.15 3.27zm140.78 40.57c-11.3 26.11 26.92 79.92 38.87 95.76l-34.35-113c-30.53 15.81-80.13-4.47-80.13-4.47s26.71 40.27 75.61 21.71z" style="mix-blend-mode:multiply" fill="#ef7f33" opacity=".4"/></g></g></g></svg>