<svg xmlns="http://www.w3.org/2000/svg" width="102.974" height="118.569" viewBox="0 0 102.974 118.569">
  <defs>
    <style>
      .cls-1 {
        fill-rule: evenodd;
      }
    </style>
  </defs>
  <path id="Path_11" data-name="Path 11"
    d="M212.88,40.182c9.567.891,4.439,20.33-4.256,18.066C199.577,55.89,204.022,39.356,212.88,40.182ZM194.614,141.039c11.256,0,11.256,17.682,0,17.682S183.35,141.042,194.614,141.039Zm-6.756,4.571c-.6,1.991-1.248,4.8.217,5.9,1.7.322,6.818.871,5.619,4.512-1.024,1.217-3.661.946-5.963-2.092,2.982,5.385,11.36,5.125,10.616,1.429-2.167-10.772,5.885-9.77,2.137.012,4.866-5.537-.084-13.144-2.828-11.314-2.24,1.856-6.41,5.662-8.054,2.619-1.033-2.146,1.327-4.516,7.781-4.469a7.8,7.8,0,0,0-9.523,3.4Zm36.781,3.721,7.756,2.03c4.813.389,5.9,4.123.3,6.185l-12.505,1.174-6.666-33.162-18.042-12.883,3.595-2.624c-6.163,2.179-31.014,12.732-36.286,10.688l-17.6-14.84-6.575-.4c-4.649.631-5.523-4.82-.677-5.827,5.621-1.059,7.477-1.856,11.62-.811l1.312,2.887,16.075,9.305,22.005-15.144,18.73,1.677,14.654,23.345,2.311,28.4Zm-25.3-94.99,16.405,11.9,2.714.432,12.581,6.554L235.153,72c5.2,3.738,1.585,5.705-4.216,4.9l-17.5-4.6-2.178-.684-3.634,25.361-18.262-4.4.936-15.014L172.04,92.938c-5.781,1.048-7.624-3.408-3.654-5.62l4.457-.471,8.443-10.265,4.523-4.125c4.632-5.714.141-4.464,13.534-18.117Z"
    transform="translate(-134.688 -40.152)" />
</svg>