<svg xmlns="http://www.w3.org/2000/svg" width="184.975" height="81.409" viewBox="0 0 184.975 81.409">
  <defs>
    <style>
      .cls-1 {
        fill: #fff;
      }
    </style>
  </defs>
  <g id="Group_270" data-name="Group 270" transform="translate(-1311.686 3825)">
    <path id="Path_38" data-name="Path 38" class="cls-1" d="M111.3,174.95h32.643v15.113H111.3Z" transform="translate(1200.386 -3999.95)"/>
    <path id="Path_39" data-name="Path 39" class="cls-1" d="M199.06,174.95H231.7v15.113H199.06Z" transform="translate(1146.63 -3999.95)"/>
    <path id="Path_40" data-name="Path 40" class="cls-1" d="M286.82,174.95h32.643v15.113H286.82Z" transform="translate(1092.875 -3999.95)"/>
    <path id="Path_41" data-name="Path 41" class="cls-1" d="M374.57,174.95h32.643v15.113H374.57Z" transform="translate(1039.125 -3999.95)"/>
    <path id="Path_42" data-name="Path 42" class="cls-1" d="M462.33,174.95h32.646v15.113H462.33Z" transform="translate(985.369 -3999.95)"/>
    <path id="Path_43" data-name="Path 43" class="cls-1" d="M153.42,217.07h32.643v15.113H153.42Z" transform="translate(1174.586 -4025.75)"/>
    <path id="Path_44" data-name="Path 44" class="cls-1" d="M241.18,217.07h32.643v15.113H241.18Z" transform="translate(1120.831 -4025.75)"/>
    <path id="Path_45" data-name="Path 45" class="cls-1" d="M328.94,217.07h32.643v15.113H328.94Z" transform="translate(1067.075 -4025.75)"/>
    <path id="Path_46" data-name="Path 46" class="cls-1" d="M416.7,217.07h32.643v15.113H416.7Z" transform="translate(1013.319 -4025.75)"/>
    <path id="Path_47" data-name="Path 47" class="cls-1" d="M504.45,217.07h32.643v15.113H504.45Z" transform="translate(959.569 -4025.75)"/>
    <path id="Path_48" data-name="Path 48" class="cls-1" d="M153.42,303.05h32.643v15.113H153.42Z" transform="translate(1174.586 -4078.416)"/>
    <path id="Path_49" data-name="Path 49" class="cls-1" d="M241.18,303.05h32.643v15.113H241.18Z" transform="translate(1120.831 -4078.416)"/>
    <path id="Path_50" data-name="Path 50" class="cls-1" d="M328.94,303.05h32.643v15.113H328.94Z" transform="translate(1067.075 -4078.416)"/>
    <path id="Path_51" data-name="Path 51" class="cls-1" d="M416.7,303.05h32.643v15.113H416.7Z" transform="translate(1013.319 -4078.416)"/>
    <path id="Path_52" data-name="Path 52" class="cls-1" d="M504.45,303.05h32.643v15.113H504.45Z" transform="translate(959.569 -4078.416)"/>
    <path id="Path_53" data-name="Path 53" class="cls-1" d="M111.3,259.48h32.643v15.113H111.3Z" transform="translate(1200.386 -4051.728)"/>
    <path id="Path_54" data-name="Path 54" class="cls-1" d="M199.06,259.48H231.7v15.113H199.06Z" transform="translate(1146.63 -4051.728)"/>
    <path id="Path_55" data-name="Path 55" class="cls-1" d="M286.82,259.48h32.643v15.113H286.82Z" transform="translate(1092.875 -4051.728)"/>
    <path id="Path_56" data-name="Path 56" class="cls-1" d="M374.57,259.48h32.643v15.113H374.57Z" transform="translate(1039.125 -4051.728)"/>
    <path id="Path_57" data-name="Path 57" class="cls-1" d="M462.33,259.48h32.646v15.113H462.33Z" transform="translate(985.369 -4051.728)"/>
    <path id="Path_58" data-name="Path 58" class="cls-1" d="M111.3,346.05h32.643v15.113H111.3Z" transform="translate(1200.386 -4104.754)"/>
    <path id="Path_59" data-name="Path 59" class="cls-1" d="M199.06,346.05H231.7v15.113H199.06Z" transform="translate(1146.63 -4104.754)"/>
    <path id="Path_60" data-name="Path 60" class="cls-1" d="M286.82,346.05h32.643v15.113H286.82Z" transform="translate(1092.875 -4104.754)"/>
    <path id="Path_61" data-name="Path 61" class="cls-1" d="M374.57,346.05h32.643v15.113H374.57Z" transform="translate(1039.125 -4104.754)"/>
    <path id="Path_62" data-name="Path 62" class="cls-1" d="M462.33,346.05h32.646v15.113H462.33Z" transform="translate(985.369 -4104.754)"/>
  </g>
</svg>
