<svg xmlns="http://www.w3.org/2000/svg" viewBox="0 0 184.975 81.409"><defs><style>.prefix__prefix__prefix__cls-1{fill:#fff}</style></defs><g id="prefix__prefix__prefix__Group_270" data-name="Group 270" transform="translate(-1311.686 3825)"><path id="prefix__prefix__prefix__Path_38" data-name="Path 38" class="prefix__prefix__prefix__cls-1" d="M111.3 174.95h32.643v15.113H111.3z" transform="translate(1200.386 -3999.95)"/><path id="prefix__prefix__prefix__Path_39" data-name="Path 39" class="prefix__prefix__prefix__cls-1" d="M199.06 174.95h32.64v15.113h-32.64z" transform="translate(1146.63 -3999.95)"/><path id="prefix__prefix__prefix__Path_40" data-name="Path 40" class="prefix__prefix__prefix__cls-1" d="M286.82 174.95h32.643v15.113H286.82z" transform="translate(1092.875 -3999.95)"/><path id="prefix__prefix__prefix__Path_41" data-name="Path 41" class="prefix__prefix__prefix__cls-1" d="M374.57 174.95h32.643v15.113H374.57z" transform="translate(1039.125 -3999.95)"/><path id="prefix__prefix__prefix__Path_42" data-name="Path 42" class="prefix__prefix__prefix__cls-1" d="M462.33 174.95h32.646v15.113H462.33z" transform="translate(985.369 -3999.95)"/><path id="prefix__prefix__prefix__Path_43" data-name="Path 43" class="prefix__prefix__prefix__cls-1" d="M153.42 217.07h32.643v15.113H153.42z" transform="translate(1174.586 -4025.75)"/><path id="prefix__prefix__prefix__Path_44" data-name="Path 44" class="prefix__prefix__prefix__cls-1" d="M241.18 217.07h32.643v15.113H241.18z" transform="translate(1120.831 -4025.75)"/><path id="prefix__prefix__prefix__Path_45" data-name="Path 45" class="prefix__prefix__prefix__cls-1" d="M328.94 217.07h32.643v15.113H328.94z" transform="translate(1067.075 -4025.75)"/><path id="prefix__prefix__prefix__Path_46" data-name="Path 46" class="prefix__prefix__prefix__cls-1" d="M416.7 217.07h32.643v15.113H416.7z" transform="translate(1013.319 -4025.75)"/><path id="prefix__prefix__prefix__Path_47" data-name="Path 47" class="prefix__prefix__prefix__cls-1" d="M504.45 217.07h32.643v15.113H504.45z" transform="translate(959.569 -4025.75)"/><path id="prefix__prefix__prefix__Path_48" data-name="Path 48" class="prefix__prefix__prefix__cls-1" d="M153.42 303.05h32.643v15.113H153.42z" transform="translate(1174.586 -4078.416)"/><path id="prefix__prefix__prefix__Path_49" data-name="Path 49" class="prefix__prefix__prefix__cls-1" d="M241.18 303.05h32.643v15.113H241.18z" transform="translate(1120.831 -4078.416)"/><path id="prefix__prefix__prefix__Path_50" data-name="Path 50" class="prefix__prefix__prefix__cls-1" d="M328.94 303.05h32.643v15.113H328.94z" transform="translate(1067.075 -4078.416)"/><path id="prefix__prefix__prefix__Path_51" data-name="Path 51" class="prefix__prefix__prefix__cls-1" d="M416.7 303.05h32.643v15.113H416.7z" transform="translate(1013.319 -4078.416)"/><path id="prefix__prefix__prefix__Path_52" data-name="Path 52" class="prefix__prefix__prefix__cls-1" d="M504.45 303.05h32.643v15.113H504.45z" transform="translate(959.569 -4078.416)"/><path id="prefix__prefix__prefix__Path_53" data-name="Path 53" class="prefix__prefix__prefix__cls-1" d="M111.3 259.48h32.643v15.113H111.3z" transform="translate(1200.386 -4051.728)"/><path id="prefix__prefix__prefix__Path_54" data-name="Path 54" class="prefix__prefix__prefix__cls-1" d="M199.06 259.48h32.64v15.113h-32.64z" transform="translate(1146.63 -4051.728)"/><path id="prefix__prefix__prefix__Path_55" data-name="Path 55" class="prefix__prefix__prefix__cls-1" d="M286.82 259.48h32.643v15.113H286.82z" transform="translate(1092.875 -4051.728)"/><path id="prefix__prefix__prefix__Path_56" data-name="Path 56" class="prefix__prefix__prefix__cls-1" d="M374.57 259.48h32.643v15.113H374.57z" transform="translate(1039.125 -4051.728)"/><path id="prefix__prefix__prefix__Path_57" data-name="Path 57" class="prefix__prefix__prefix__cls-1" d="M462.33 259.48h32.646v15.113H462.33z" transform="translate(985.369 -4051.728)"/><path id="prefix__prefix__prefix__Path_58" data-name="Path 58" class="prefix__prefix__prefix__cls-1" d="M111.3 346.05h32.643v15.113H111.3z" transform="translate(1200.386 -4104.754)"/><path id="prefix__prefix__prefix__Path_59" data-name="Path 59" class="prefix__prefix__prefix__cls-1" d="M199.06 346.05h32.64v15.113h-32.64z" transform="translate(1146.63 -4104.754)"/><path id="prefix__prefix__prefix__Path_60" data-name="Path 60" class="prefix__prefix__prefix__cls-1" d="M286.82 346.05h32.643v15.113H286.82z" transform="translate(1092.875 -4104.754)"/><path id="prefix__prefix__prefix__Path_61" data-name="Path 61" class="prefix__prefix__prefix__cls-1" d="M374.57 346.05h32.643v15.113H374.57z" transform="translate(1039.125 -4104.754)"/><path id="prefix__prefix__prefix__Path_62" data-name="Path 62" class="prefix__prefix__prefix__cls-1" d="M462.33 346.05h32.646v15.113H462.33z" transform="translate(985.369 -4104.754)"/></g></svg>