<svg version="1.1" id="prefix__Layer_1" xmlns="http://www.w3.org/2000/svg" x="0" y="0" viewBox="0 0 1600 1200" xml:space="preserve"><style>.prefix__st0{fill:#e8e8e8}.prefix__st3{fill:#161616}.prefix__st4{fill:#fff;stroke:#161616;stroke-width:2;stroke-miterlimit:10}.prefix__st11,.prefix__st14,.prefix__st7,.prefix__st9{opacity:.25;fill:#6d6c6c;enable-background:new}.prefix__st11,.prefix__st14,.prefix__st9{opacity:.24}.prefix__st11,.prefix__st14{opacity:.22}.prefix__st14{opacity:.27}.prefix__st15,.prefix__st16{fill:#161616;stroke:#161616;stroke-miterlimit:10}.prefix__st16{fill:#c69c6d;stroke-width:2}</style><g id="prefix__background"><path class="prefix__st0" d="M1324.6 438.5v60.8c0 1.9 3 1.9 3 0v-60.8c0-2-3-2-3 0zM1266.3 509.7h143.5c1.9 0 1.9-3 0-3h-143.5c-1.9 0-1.9 3 0 3z"/><path class="prefix__st0" d="M1300.7 511.2v41.9c0 1.9 3 1.9 3 0v-41.9c0-1.9-3-1.9-3 0zM1370.5 509.2v38.9c0 1.9 3 1.9 3 0v-38.9c0-1.9-3-1.9-3 0zM1225.5 937.3c5 33.2 13.3 65.8 24.7 97.4.7 1.8 3.6 1 2.9-.8-11.4-31.6-19.7-64.2-24.7-97.4-.3-1.9-3.2-1.1-2.9.8z"/><path class="prefix__st0" d="M1252.3 1033.8c-1 3.5 3.8 3.8 6.1 4.2 6.1.9 12.2 1.6 18.4 2 13.6.9 27.3.3 40.8-1.5 1.9-.3 1.9-3.3 0-3-10.1 1.3-20.2 2-30.4 1.9-3 0-32.1-2.6-32.1-2.8.7-1.8-2.2-2.6-2.8-.8z"/><path class="prefix__st0" d="M1341.3 942.7c-3.5 32.2-11.7 63.6-24.3 93.4-.7 1.8 1.8 3.3 2.6 1.5 12.8-30.3 21.1-62.2 24.7-95 .2-1.8-2.8-1.8-3 .1z"/><path class="prefix__st0" d="M1225.2 922.3c-5.4 4.4-2.1 12 3.2 14.7 4.1 2.1 9.3 2.1 13.8 2.5 6.9.6 13.8 1 20.7 1.4 26.7 1.5 53.4 1.8 80.1 2.1 1.9 0 1.9-3 0-3-20.8-.2-41.5-.4-62.3-1.2-10.2-.4-20.4-.9-30.6-1.6-5.3-.4-10.9-.5-16.1-1.5-4.5-.9-12.7-6.4-6.6-11.2 1.5-1.3-.7-3.4-2.2-2.2z"/><path class="prefix__st0" d="M1226 923.8l61.8 2.4c10.1.4 20.3.8 30.4 1.2 5.1.2 10.2.2 15.2.6 2.6.2 5.6.4 7.8 1.9 2.6 1.8 4.3 6.2.8 8.2-1.7 1-.2 3.6 1.5 2.6 6-3.5 3.2-11.5-2.1-14.1-4.1-1.9-9.1-1.7-13.5-1.8-6.9-.3-13.7-.5-20.6-.8-27.2-1-54.3-2.1-81.5-3.1-1.7-.2-1.7 2.8.2 2.9zM1240.2 1004c11.4 13.1 24.4 24.5 38.9 34 1.6 1.1 3.1-1.5 1.5-2.6-14.3-9.4-27.1-20.6-38.3-33.5-1.2-1.5-3.3.7-2.1 2.1zM1232.6 968.4c22.3 26.3 45.1 52.9 74.7 71.4 1.6 1 3.2-1.6 1.5-2.6-29.3-18.3-51.9-44.8-74.1-70.9-1.2-1.5-3.3.6-2.1 2.1zM1233.4 939.9c25.4 30.9 51.4 62.2 85 84.6 1.6 1.1 3.1-1.5 1.5-2.6-33.4-22.2-59.1-53.4-84.4-84.1-1.2-1.6-3.3.6-2.1 2.1zM1262.2 940.3c16.9 24.4 37.4 46.1 60.8 64.3 1.5 1.2 3.6-.9 2.1-2.1-23.2-18.1-43.6-39.5-60.4-63.7-1-1.6-3.6-.1-2.5 1.5zM1293 946.7c10.5 14 22.9 26.4 37 36.8 1.5 1.2 3-1.4 1.5-2.6-13.6-10.2-25.7-22.2-35.9-35.8-1.1-1.4-3.7.1-2.6 1.6zM1317.3 946.2c5.8 7.4 12.4 14.1 19.7 20 1.5 1.2 3.6-.9 2.1-2.1-7.3-5.9-13.9-12.6-19.7-20-1.1-1.6-3.2.6-2.1 2.1z"/><path class="prefix__st0" d="M1254.5 920.4c-8.8-11.1-15.6-23.7-20.1-37.1-2.1-6.2-3.6-12.5-4.7-18.9-.3-2-.9-4.3-.9-6.3.1-2.4 0-2.2 2.2-3.5 3-1.8 6.7-3 9.9-4.4-.5-.9-1-1.7-1.5-2.6-8.3 3.9-8.3-15-10.5-19.2-.3.7-.6 1.5-.9 2.2 2.7-.6 5.5-1.2 8.2-1.9 1-.2 1.5-1.8.7-2.5-7.3-5.8-2.9-16.9-1.1-24.3 2.6-10.2 4.6-20.5 6-31 2.8-20.8 3.3-41.8 1.5-62.8-.9.4-1.7.7-2.6 1.1 51.2 59.4 64.3 140.1 59.1 216.1-.1 1.9 2.9 1.9 3 0 4.1-60.9-3-123.8-32.4-178.2-7.8-14.3-17-27.7-27.6-40.1-.8-1-2.7-.2-2.6 1.1 2 23.6 1.2 47.3-2.7 70.6-1.8 10.6-4.9 20.9-6.9 31.4-1.3 6.4-1.5 13.7 4.1 18.2.2-.8.4-1.7.7-2.5-2.7.6-5.5 1.2-8.2 1.9-1 .2-1.3 1.4-.9 2.2 2.9 5.5.9 12.2 4.8 17.3 2.5 3.3 6 4.8 9.8 3 1.8-.8.2-3.4-1.5-2.6-4.4 2-8.8 3.9-13.1 5.9-.4.2-.8.8-.7 1.3 2.1 24.8 11.4 48.3 26.8 67.8 1.2 1.4 3.3-.7 2.1-2.2z"/><path class="prefix__st0" d="M1296.7 824.1c4.5-10 9-19.9 13.5-29.9 1.9-4.1 3.5-8.6 5.9-12.5 2.9-4.8 9.6-10.1 14.7-4.7 1.2 1.3 3.1-.3 2.4-1.8-2-3.9-4-7.7-6-11.6-.1.6-.2 1.2-.2 1.8 10.4-12.4 18.9-26.1 25.2-41-.7.2-1.4.4-2.1.5 2.6 1.2 5.3 2.3 7.9 3.5 1.1.5 2.6-.3 2.2-1.7-.7-2.7-1.5-5.4-2.2-8.1-.2.6-.5 1.1-.7 1.7 1.8-1 3.3-2.2 4.2-4.2.9-2.1.1-3.8.4-5.9.4-3.6 5.2-7.4 7.4-10.1 1.9-2.3 3.7-4.7 5.5-7.1 7.9-10.8 14.3-22.6 19.2-34.9-1-.1-2-.3-2.9-.4l-3 73.8c-.5 11.8-.6 23.7-1.7 35.5-.6 6.6-1.8 13.1-3.2 19.5-.9 4.1-2.5 19.5-9.6 17.8-1.3-.3-2.3 1-1.7 2.2 5 9.2.8 22.5-.9 32.2-1.7 9.9-3.9 19.8-6.7 29.5-5.6 19.7-14 38.7-26.6 55-1.2 1.5.9 3.6 2.1 2.1 13.3-17.2 22.1-37.1 27.9-57.9 3-10.8 5.2-21.8 7-32.8 1.5-9.5 4.5-20.6-.3-29.6-.6.7-1.1 1.5-1.7 2.2 10.7 2.7 12-14.1 13.5-20.8 3-13.5 3.8-27.1 4.3-40.9 1.2-29.3 2.3-58.5 3.5-87.8.1-1.8-2.4-1.9-2.9-.4-4.7 11.6-10.7 22.6-17.9 32.8-3.6 5.1-7.7 9.6-11.7 14.4-1.1 1.3-2.2 2.5-2.6 4.3-.7 3.5 1.3 6.6-3.1 8.9-.6.3-.9 1.1-.7 1.7.7 2.7 1.5 5.4 2.2 8.1.7-.6 1.5-1.1 2.2-1.7-2.6-1.2-5.3-2.3-7.9-3.5-.7-.3-1.7-.3-2.1.5-6.2 14.7-14.5 28.2-24.7 40.4-.5.5-.6 1.2-.2 1.8 2 3.9 4 7.7 6 11.6l2.4-1.8c-7-7.5-16.4-.3-20.1 6.6-7.1 13.1-12.5 27.4-18.7 41-.9 1.9 1.7 3.4 2.5 1.7zM1253 742c15.3 57.2 24 115.9 26 175 .1 1.9 3.1 1.9 3 0-2-59.4-10.8-118.4-26.2-175.8-.4-1.9-3.3-1.1-2.8.8z"/><path class="prefix__st0" d="M1372.4 737.4c-28 54.1-49.2 111.6-62.9 170.9-.4 1.9 2.5 2.7 2.9.8 13.7-59.1 34.7-116.3 62.6-170.2.9-1.7-1.7-3.2-2.6-1.5zM1238.7 793.6c17.3 15.8 29.4 36.3 34.8 59.2.4 1.9 3.3 1.1 2.9-.8-5.5-23.3-17.9-44.4-35.6-60.5-1.4-1.3-3.5.8-2.1 2.1zM1276.2 764c-4.7 16.3-7.5 33-8.4 49.9-.1 1.9 2.9 1.9 3 0 .9-16.7 3.7-33.1 8.3-49.1.6-1.9-2.3-2.6-2.9-.8z"/><path class="prefix__st0" d="M1312.9 787.5c4.1 3.6 5.2 9.5 6.6 14.5 1.5 5.4 2.6 10.9 3.5 16.4 1.8 11.2 2.4 22.6 1.9 33.9-.1 1.9 2.9 1.9 3 0 .5-12.2-.2-24.5-2.4-36.6-1.1-6.1-2.5-12.2-4.2-18.1-1.3-4.6-2.7-9.1-6.4-12.3-1.4-1.1-3.5 1-2 2.2zM1350.1 795c8-20.4 26.7-33.7 38.3-51.7 1-1.6-1.5-3.1-2.6-1.5-11.8 18.3-30.5 31.7-38.6 52.5-.7 1.7 2.2 2.5 2.9.7zM1372.9 697.5c.6 12.8-.5 25.5-3.2 38.1-.4 1.9 2.5 2.7 2.9.8 2.8-12.8 3.9-25.8 3.3-38.9-.1-2-3.1-2-3 0zM717 11.6v73.8c0 1.9 3 1.9 3 0V11.6c0-2-3-2-3 0z"/><path class="prefix__st0" d="M717.2 83.1c-38.7 16.7-68.1 51.8-77.8 92.9-.4 1.9 2.4 2.7 2.9.8 9.5-40.4 38.4-74.7 76.4-91.1 1.8-.8.3-3.4-1.5-2.6z"/><path class="prefix__st0" d="M718.2 86.5c35.7 17.5 61 52.6 66.5 91.9.3 1.9 3.2 1.1 2.9-.8-5.6-40-31.6-75.9-67.9-93.7-1.7-.9-3.3 1.7-1.5 2.6z"/><path class="prefix__st0" d="M638.7 179.1c5.2 10 15.1 15.7 25.6 18.9 13.6 4.2 28.5 5.6 42.6 6.3 28.3 1.4 58.2-4.2 79-24.8 1.4-1.4-.7-3.5-2.1-2.1-19.8 19.6-48.1 25.1-75 24-13.2-.5-26.7-1.9-39.6-5.1-11.3-2.8-22.3-8-28-18.7-.8-1.8-3.4-.3-2.5 1.5z"/><path class="prefix__st0" d="M646.7 181c42-12.4 86.5-14.9 129.6-7.2 1.9.3 2.7-2.6.8-2.9-43.7-7.8-88.7-5.4-131.2 7.2-1.9.5-1.1 3.4.8 2.9zM646.8 160.8c21.6-6.3 43.6-11.4 66-13.5 10.5-1 21.2-1.3 31.7-.7 6.1.3 12.1 1 18.2 2 3.1.5 5.8.9 8.5 2.6 1.6 1 1.4 1.3 3.2 1.1.6 0 1.3-.4 1.4-1.1.3-1.3.1-1.7-.8-2.6-.5-.5-1.2-.5-1.8-.2-.2.1-.3.1-.5.2-1.7.8-.2 3.4 1.5 2.6.2-.1.3-.1.5-.2-.6-.1-1.2-.2-1.8-.2v-.3c.5-.4 1-.7 1.4-1.1-.8.1-3.4-2.1-4.5-2.5-2.6-.8-5.6-1.1-8.3-1.5-5.1-.8-10.1-1.3-15.2-1.7-11.5-.8-23.1-.4-34.5.7-22.4 2.2-44.3 7.3-65.9 13.5-1.8.5-1 3.4.9 2.9zM714.4 84.9c.3-1.3.1-2.2-.5-3.4-.2-.5-.9-1.4-1-1.9 0-1.4 1.4-1.5 2.4-1.7 1.8-.3 4.2-.4 5.9.2s3.7 2.9 1.9 4.6c-1.4 1.3.7 3.5 2.1 2.1 1.8-1.7 2-4.3.8-6.5-1.5-2.7-4.4-3.5-7.3-3.6-2.5-.1-6.1 0-7.9 2-.7.8-1 1.9-.9 3.1.2 1.4 1.8 2.9 1.6 4.3-.4 1.9 2.5 2.7 2.9.8z"/><path class="prefix__st0" d="M716.1 80.1c0 .3.1.6.1.9-.7-.2-1.4-.4-2.1-.5 1 1.3 1.4 2.6 1.3 4.2.6-.5 1.3-1 1.9-1.4-.9-.2-2.3-1.5-1-2.2.9-.4 1.2.7.6.9.4.1.8.1 1.2.2-.2-.1.6-1.2 1.3-.8.9.5.9 2 .7 2.9.7-.3 1.5-.6 2.2-.9-1.7-.8-2.5-2.5-1.9-4.3l-1 1c1.6-.5 2.2 1.8.6 2.3-1.6.5-2.3-1.4-2-2.7.6-1.9-2.3-2.6-2.9-.8-.8 2.8.8 6.2 3.9 6.5 2.8.3 5.7-2.3 4.9-5.2-.6-2.2-5.1-5.1-6.4-2-1.2 2.9.7 6.4 3.3 7.6.9.4 1.9.1 2.2-.9.8-3.1-1.4-8.3-5.4-6.6-1.4.6-2.5 2.2-2.5 3.8 0 1.8 1.7 3.3 3.4 2.3 3.4-2 1.2-7.4-2.7-6.5-4.6 1.1-3.5 7.2.6 8.1 1 .2 1.8-.4 1.9-1.4.2-2.1-.4-4-1.7-5.7-.5-.6-1.3-1-2.1-.5-1.7 1-1.6 3.2-.1 4.3 1.7 1.1 3.2-1.5 1.7-2.6zM700.8 175.9c-1 7.1 4 14.5 11.5 14.9 7.7.4 13.7-7.1 12.8-14.4-.3-1.9-3.3-1.9-3 0 .7 5.2-2.7 10.8-8.3 11.4-6 .6-10.9-5.2-10.1-11 .2-2-2.7-2.9-2.9-.9zM654.5 204.2c-14.4 11.5-28.7 23.1-43.1 34.6-1.5 1.2.6 3.3 2.1 2.1 14.4-11.5 28.7-23.1 43.1-34.6 1.6-1.2-.6-3.3-2.1-2.1zM666.5 222.9c-9.1 13.2-18.1 26.4-27.2 39.7-1.1 1.6 1.5 3.1 2.6 1.5 9.1-13.2 18.1-26.4 27.2-39.7 1.1-1.6-1.5-3.1-2.6-1.5zM774.7 208.1c11.8 13.3 23.9 26.3 36.1 39.2 1.3 1.4 3.5-.7 2.1-2.1-12.2-12.9-24.3-26-36.1-39.2-1.3-1.5-3.4.6-2.1 2.1zM736.9 235.2c7.3 16.2 15.2 32.2 23.7 47.8.9 1.7 3.5.2 2.6-1.5-8.5-15.6-16.4-31.6-23.7-47.8-.8-1.8-3.4-.3-2.6 1.5zM574.4 303.3c.3 30.1.7 60.3 1 90.4 0 .8.7 1.5 1.5 1.5 38.6-1.9 77.1-3.8 115.7-5.7 1.9-.1 1.9-3.1 0-3-38.6 1.9-77.1 3.8-115.7 5.7l1.5 1.5c-.3-30.1-.7-60.3-1-90.4 0-1.9-3-1.9-3 0z"/><path class="prefix__st0" d="M576.3 303.5h115.1c1.9 0 1.9-3 0-3H576.3c-1.9 0-1.9 3 0 3z"/><path class="prefix__st0" d="M690.6 302v85.9c0 1.9 3 1.9 3 0V302c0-1.9-3-1.9-3 0zM582.7 311.7v70.7c0 1.9 3 1.9 3 0v-70.7c0-1.9-3-1.9-3 0z"/><path class="prefix__st0" d="M584.8 384.3c31.7-1 63.4-1.9 95.1-2.9 1.9-.1 1.9-3.1 0-3-31.7 1-63.4 1.9-95.1 2.9-1.9.1-1.9 3.1 0 3zM584.9 314.3c31.7-1.7 63.4-1.8 95-.1 1.9.1 1.9-2.9 0-3-31.7-1.7-63.4-1.7-95 .1-1.9.1-2 3.1 0 3z"/><path class="prefix__st0" d="M679.3 314.2c-.4 21.7-.8 43.5-1.3 65.2 0 1.9 3 1.9 3 0 .4-21.7.8-43.5 1.3-65.2 0-1.9-3-1.9-3 0zM621.7 301.2c.3-2.5.8-5.1 1.4-7.5.6-2.4 1.2-5.8 2.7-7.7 3.1-4.2 4.7 2.7 5.2 4.8.7 2.9 1 5.8 1.1 8.8 0 1.9 3 1.9 3 0-.1-4.6-.8-9.1-2.4-13.5-.9-2.4-2.2-5.6-5.3-5.2-2.7.3-4.1 3.1-5 5.3-1.9 4.6-3 9.4-3.7 14.2-.2 1.9 2.7 2.7 3 .8zM586.1 356.4c12.9-5 26.4-.9 38.9 3.5 12.8 4.5 25.6 9.2 38.4 13.8 1.8.7 2.6-2.2.8-2.9-13.9-5-27.8-10.3-41.8-15-12-4.1-24.9-7-37.1-2.3-1.8.6-1 3.5.8 2.9z"/><path class="prefix__st0" d="M630.2 362.7c8.4-.4 16.2-4.6 24-7.3 8.8-3.1 17.8-5.3 27.2-5.3 1.9 0 1.9-3 0-3-8.4 0-16.5 1.7-24.5 4.2-8.6 2.8-17.5 7.9-26.6 8.3-2 .2-2 3.2-.1 3.1zM647.2 339.5c4.4 2.1 9.8.4 12.3-3.8 2.6-4.4.5-9.6-3.9-11.9-4.3-2.3-9.7-1.1-11.9 3.5-2 4.2-.7 9.5 3.2 12.1 1.6 1.1 3.1-1.5 1.5-2.6-5.9-3.9-1.2-13.9 5.6-10.4 2.9 1.5 4.6 4.8 2.8 7.8-1.6 2.7-5.3 4.1-8.2 2.7-1.6-.8-3.1 1.8-1.4 2.6zM1097.6 193.3v16.2c0 1.9 3 1.9 3 0v-16.2c0-1.9-3-1.9-3 0z"/><path class="prefix__st0" d="M1099.9 193.3h175.8c1.9 0 1.9-3 0-3h-175.8c-1.9 0-1.9 3 0 3zM1099.9 211.6h175.8c1.9 0 1.9-3 0-3h-175.8c-1.9 0-1.9 3 0 3z"/><path class="prefix__st0" d="M1274.5 192.6v16.8c0 1.9 3 1.9 3 0v-16.8c0-1.9-3-1.9-3 0zM1105.2 191.4V96.8c0-1.9-3-1.9-3 0v94.6c0 1.9 3 1.9 3 0z"/><path class="prefix__st0" d="M1103.7 97.1h3.7c1.9 0 1.9-3 0-3h-3.7c-1.9 0-1.9 3 0 3z"/><path class="prefix__st0" d="M1104.2 97.2c8.6-2.3 17.1-1.7 25.4 1.5 1.8.7 2.6-2.2.8-2.9-8.7-3.4-17.9-3.9-27-1.5-1.9.5-1.1 3.4.8 2.9z"/><path class="prefix__st0" d="M1128.3 98.7v91.5c0 1.9 3 1.9 3 0V98.7c0-1.9-3-2-3 0zM1107.2 107.4v11.8c0 1.9 3 1.9 3 0v-11.8c0-1.9-3-1.9-3 0z"/><path class="prefix__st0" d="M1109.1 108.4c5.5-.9 11.1-1 16.6-.2 1.9.3 2.7-2.6.8-2.9-6.1-.9-12.1-.8-18.2.2-1.9.3-1.1 3.2.8 2.9zM1109.3 120.9c4.8-.3 9.5-.5 14.3-.8 1.9-.1 1.9-3.1 0-3-4.8.3-9.5.5-14.3.8-1.9.1-1.9 3.1 0 3z"/><path class="prefix__st0" d="M1124 106.4c-1 3.4-1 6.8 0 10.2.5 1.9 3.4 1.1 2.9-.8-.8-2.9-.8-5.7 0-8.6.5-1.9-2.4-2.7-2.9-.8zM1116 157.8c-.4 10-.2 19.9.5 29.9.1 1.9 3.1 1.9 3 0-.7-9.9-.9-19.9-.5-29.9.1-1.9-2.9-1.9-3 0z"/><path class="prefix__st0" d="M1117.4 158.7c3.7-.4 7.3 0 10.8 1.1 1.8.6 2.6-2.3.8-2.9-3.8-1.2-7.7-1.6-11.6-1.2-1.9.2-1.9 3.2 0 3zM1130.5 107.4c3.8-.2 8.8-.6 12.4.8 2.7 1.1 2.9 1.5 3.3 4.5.2 1.9.1 4 .1 5.9.2 7.9.3 15.8.4 23.6.2 15.8.2 31.5.1 47.3 0 1.9 3 1.9 3 0 .1-19 .1-38.1-.2-57.1-.1-4.6-.2-9.2-.2-13.8-.1-3.1.6-7.1-.5-10-2-5.5-14-4.5-18.4-4.2-2 .1-2 3.1 0 3zM1119.9 212.9c1.6 5.8 3.8 11.4 6.6 16.7.9 1.7 3.5.2 2.6-1.5-2.7-5.1-4.8-10.4-6.3-16-.6-1.9-3.5-1.1-2.9.8z"/><path class="prefix__st0" d="M1127.4 229.1c4.3.3 8.7.7 13 1 1.9.1 1.9-2.9 0-3-4.3-.3-8.7-.7-13-1-1.9-.2-1.9 2.8 0 3z"/><path class="prefix__st0" d="M1137.7 212.5v16.2c0 1.9 3 1.9 3 0v-16.2c0-1.9-3-1.9-3 0z"/><path class="prefix__st0" d="M1141.7 229.5l8.7-16.2c.9-1.7-1.7-3.2-2.6-1.5l-8.7 16.2c-.9 1.7 1.7 3.2 2.6 1.5z"/><path class="prefix__st0" d="M1139.9 211.9c.2 4-.1 7.9-1 11.9-.3 1.6 1.9 2.7 2.7 1.2 2-4 3.6-8.2 4.5-12.5.3-1.3-1-2.3-2.2-1.7-1 .5-2 .9-2.9 1.4-1.3.6-.8 2.4.4 2.7.2.3.5.6.7.8.2 1.9 3.2 1.9 3 0s-1.1-3.1-2.9-3.7c.1.9.2 1.8.4 2.7 1-.5 2-.9 2.9-1.4-.7-.6-1.5-1.1-2.2-1.7-.9 4.1-2.3 8-4.2 11.8l2.7 1.2c.9-4.2 1.3-8.4 1.1-12.6-.1-2-3.1-2-3-.1z"/><path class="prefix__st0" d="M1147 211.1c-2 1.3-3.5 3.1-4.3 5.4-.3.8.3 1.6 1 1.8.8.2 1.6-.3 1.8-1 .6-1.5 1.6-2.7 2.9-3.6 1.8-1 .3-3.6-1.4-2.6zM1216.3 211.6c2.3 6.3 4.9 12.5 7.9 18.5.9 1.7 3.5.2 2.6-1.5-2.9-5.8-5.4-11.7-7.6-17.8-.7-1.8-3.6-1-2.9.8z"/><path class="prefix__st0" d="M1225 229.6h11.8c1.9 0 1.9-3 0-3H1225c-1.9 0-1.9 3 0 3z"/><path class="prefix__st0" d="M1235.2 210.9c-.8 5.3-1.2 10.6-1.1 16 0 1.9 3 1.9 3 0-.1-5.1.2-10.1 1-15.2.3-1.9-2.6-2.7-2.9-.8z"/><path class="prefix__st0" d="M1236.7 229.2c4.2-5.2 8.1-10.7 11.5-16.5 1-1.7-1.6-3.2-2.6-1.5-3.3 5.6-6.9 10.9-11 15.9-1.2 1.5.9 3.6 2.1 2.1z"/><path class="prefix__st0" d="M1236.8 212.2c-1 3.1-1.7 6.2-2 9.5-.1 1.5 2.1 2 2.8.8 1.5-2.9 3.3-5.7 5.2-8.4-.9-.5-1.7-1-2.6-1.5-1.5 2.8-2.9 5.6-4.4 8.5-.9 1.7 1.6 3.2 2.6 1.5 1.6-2.6 3.2-5.1 4.7-7.7.9-1.5-1.2-3-2.4-1.8-.7.8-1.5 1.1-2.6 1.2l1.5 1.5c0-.2.3-.3.5-.2 1.3 1.4 3.5-.7 2.1-2.1-2-2.1-5.6-.5-5.6 2.3 0 .8.7 1.5 1.5 1.5 1.8-.1 3.4-.7 4.7-2l-2.4-1.8c-1.6 2.6-3.2 5.1-4.7 7.7.9.5 1.7 1 2.6 1.5 1.5-2.8 2.9-5.6 4.4-8.5.9-1.7-1.5-3.1-2.6-1.5-1.9 2.7-3.7 5.5-5.2 8.4.9.3 1.9.5 2.8.8.3-3 .9-5.8 1.9-8.7.7-2.1-2.2-2.8-2.8-1zM1182.5 96.8c-1.9 31.1-2 62.2-.2 93.3.1 1.9 3.1 1.9 3 0-1.8-31.1-1.7-62.2.2-93.3.1-1.9-2.9-1.9-3 0z"/><path class="prefix__st0" d="M1184.3 97.6c6.7-1.5 13.3-1.1 19.8 1.3 1.8.7 2.6-2.2.8-2.9-6.9-2.5-14.2-2.9-21.3-1.3-1.9.4-1.1 3.3.7 2.9z"/><path class="prefix__st0" d="M1202.6 98c-.7 29.9-.4 59.7.8 89.6.1 1.9 3.1 1.9 3 0-1.2-29.8-1.5-59.7-.8-89.6.1-1.9-2.9-1.9-3 0z"/><path class="prefix__st0" d="M1204.9 113.2c5.8-1.7 11.4-1.6 17.2.1-.4-.5-.7-1-1.1-1.4 1.1 26.1 2.2 52.2 3.4 78.3.1 1.9 3.1 1.9 3 0-1.1-26.1-2.2-52.2-3.4-78.3 0-.7-.4-1.3-1.1-1.4-6.3-1.9-12.5-1.9-18.8-.1-1.9.4-1.1 3.3.8 2.8z"/><path class="prefix__st0" d="M1205.6 99.8c5.5-.4 5.2 6.7 4.7 10.3-.3 1.9 2.6 2.7 2.9.8.5-3.4.9-7.2-.9-10.3-1.4-2.4-3.9-4-6.7-3.8-1.9.2-1.9 3.2 0 3zM1222.7 113.6c2.6 1 5.6 2.1 7.7 4.1 3 2.8 3.3 6.6 3.7 10.4.7 6.9 1.2 13.8 1.5 20.8.7 13.5.8 27.1.3 40.6-.1 1.9 2.9 1.9 3 0 .6-16.8.3-33.7-.9-50.5-.4-6.2.2-14.4-2.8-20-2.3-4.5-7.2-6.5-11.7-8.2-1.8-.8-2.6 2.1-.8 2.8zM1146.3 108.7c4.6 4.8 10.7 6.1 11.3 13.8.5 7.4.3 14.8.4 22.2.2 14.8.2 29.5 0 44.3 0 1.9 3 1.9 3 0 .2-16.7.2-33.5-.1-50.2-.1-6.6 1.1-14.9-1.1-21.2-1.9-5.4-7.7-7.1-11.4-11-1.3-1.4-3.4.7-2.1 2.1zM319.5 684.6h159.8c1.9 0 1.9-3 0-3H319.5c-1.9 0-1.9 3 0 3zM358 687.6v35.5c0 1.9 3 1.9 3 0v-35.5c0-1.9-3-1.9-3 0z"/><path class="prefix__st0" d="M418.7 682.4v-43.1c0-1.9-3-1.9-3 0v43.1c0 1.9 3 1.9 3 0zM452.9 683.4v47c0 1.9 3 1.9 3 0v-47c0-1.9-3-1.9-3 0zM400.6 736.8h86.2c1.9 0 1.9-3 0-3h-86.2c-2 0-2 3 0 3z"/></g><g id="prefix__cat"><path d="M356.3 1024.2c-17.7-2-38.7-2.1-39.3 1.5-.9 4.7 34.3 14 33.4 18.2-1 4.4-38.8-5.7-43.8 4.5-4.2 8.5 14.8 30.6 38.2 40.8 14 6.2 33.1 5.2 70.5 3 45.3-2.7 53.4-7.2 54.9-12.6 1.2-4.4-1.9-9.3-5.2-13-45.5-30.4-83.4-39.5-108.7-42.4z" opacity=".26" fill="#6d6c6c"/><path d="M360.3 1041.4c-21.1 1.9-38.2 7.6-49.9 12.5 5.5 3.2 12.7 6.5 21.5 8.7 22.4 5.6 41.4.4 50.6-2.8l.3 6.6c-34.1 4.9-41.2 8.9-41.2 11.8 0 5.1 22.6 9.4 32.2 10.7 7.2 1 18 2.4 31.5 0 11.6-2.1 13.6-4.8 29.8-10 24.3-7.8 33-5.8 33.6-9 1.4-8.2-51-33.8-108.4-28.5z" opacity=".4" fill="#6d6c6c"/><path class="prefix__st3" d="M347.6 956.8c-1.1.2-6 1.3-9.5 5.9-3.6 4.8-3.1 10.1-3 11.2-3.5 1.4-7 2.8-10.5 4.3-.3 1-1.8 6.5 1.3 12.2 2.8 5 7.4 6.8 8.5 7.2 1 1.4 2 2.8 3 4.3 3.7.9 10.7 2.1 19.1.3 9.9-2.1 16.5-7.3 19.4-9.9.7-1.7 4.6-11.8-.3-22.7-4.2-9.3-12-13.2-14.1-14.1-.2-4.8-.4-9.6-.7-14.5-4.5 5.3-8.9 10.6-13.2 15.8zM343.3 1009.1c-3.8 3.3-3.9 9.7-3.9 14.5-.1 8.5 2.9 11.5.7 14.8-1.7 2.5-5.3 2.9-12.5 3.6-11.9 1.1-16.5-1-20.4 2.3-1.4 1.2-3.1 3.4-3.6 8.2 9.8 3.7 23.4 7.3 39.8 7.6 6.1.1 11.7-.3 16.8-1 5.6-2.1 11.2-4.2 16.8-6.2-.5 4.6-1.1 9.2-1.6 13.8-4.8.9-11.6 2.4-19.7 4.6-11 3-16.5 4.4-16.4 5.9.1 3.9 26.6 6.7 40.8 7.6 10.1.6 18.4.5 24 .3 1.1-3.7 2.2-7.5 3.3-11.2 1.5-.4 3.9-1 6.9-1.3 12.8-1.5 18.8 2.6 27.3 1.6 4.3-.5 10.4-2.5 17.4-9.5 1.2.6 8.6 4.4 9.5 11.5 1.2 8.4-7.5 14.8-8.9 15.8-8.3 6.1-14 2.3-32.2 8.2-10.7 3.4-13.4 6.3-14.5 9.2-1.4 3.8-.3 8.5 2.3 11.5 4.7 5.4 14.1 5.3 15.8 2.3 1.8-3-5.2-7.5-3.6-11.8 1-2.7 4.8-3.6 20.4-5.9s17.9-2.3 22-4.6c2.3-1.3 10-5.6 12.2-14.1 1.6-6-.3-11.4-1-13.2-1.3-3.5-2.3-3.8-7.9-12.2-3.8-5.7-5.8-8.6-6.9-11.5-2.6-6.6-1.3-10.4-2-14.8-1.8-11.9-16.8-21.5-28.6-24.7-18.7-5-28.8 6.6-40.8-1.6-7-4.8-7.5-11.4-13.5-11.8-6.6-.5-8 7.5-18.1 10.5-9.8 2.9-15.1-2.6-19.9 1.6z"/><path class="prefix__st3" d="M348.5 1025.6c-5.4 5.2-13.7 3.9-17.8 3.3-5.7-.9-13-3.5-12.8-5.6.1-.9 1.7-1.6 13.5-3.6 17.3-3 19.6-2.7 20.4-1.3 1.1 1.9-1.5 5.5-3.3 7.2z"/><path class="prefix__st4" d="M337.9 1002.1c.9 2.5 1.8 5.1 2.7 7.6 4.4.6 12.8 1.2 22.3-1.9 7.3-2.4 12.5-6.1 15.7-8.7-.6-3.1-1.3-6.2-1.9-9.2-2.8 2.8-8.6 7.7-17.4 10.6-9.3 3.1-17.4 2.3-21.4 1.6z"/><path d="M339.4 973.4c0 2.7 1.7 5 3.9 5.4 2 .4 3.6-.9 3.9-1.1" fill="none" stroke="#e8e8e8" stroke-miterlimit="10"/></g><g id="prefix__details"><path class="prefix__st3" d="M261.7 353.4c-4 4.6-7.5 9.6-10.5 15-.9 1.7 1.7 3.2 2.6 1.5 2.8-5.2 6.2-9.9 10-14.4 1.3-1.4-.8-3.5-2.1-2.1zM238.6 394.4c-2.7 5.8-4.4 11.7-5.1 18.1-.2 1.9 2.8 1.9 3 0 .7-5.8 2.3-11.3 4.7-16.5.8-1.9-1.7-3.4-2.6-1.6zM233.9 443.2c-.5 9 1.2 17.6 4.9 25.7.8 1.8 3.4.2 2.6-1.5-3.5-7.7-5-15.8-4.5-24.2.1-1.9-2.9-1.9-3 0zM251.8 488.9c3.3 7.8 8.4 14.2 15.2 19.1 1.6 1.1 3.1-1.5 1.5-2.6-6.2-4.4-10.9-10.3-13.9-17.3-.6-1.7-3.5-1-2.8.8zM293.9 522.6c2.6 1.6 5.2 3.1 7.8 4.7 1.7 1 3.2-1.6 1.5-2.6-2.6-1.6-5.2-3.1-7.8-4.7-1.6-1-3.1 1.6-1.5 2.6zM292.4 541c2.2 11.7 5.9 22.8 11 33.6.8 1.7 3.4.2 2.6-1.5-5-10.5-8.5-21.4-10.7-32.8-.4-2-3.3-1.2-2.9.7z"/><path class="prefix__st3" d="M295.6 540.6c13.5-7.4 27.4-14.1 41.9-19.4 1.5-.6 3.1-1.3 4.7-1.6.5-.1 1.1-.3 1.6-.4 2.6-.3 4.2.6 4.8 2.7 2.2 2.9 3.4 7.5 4.7 10.9 2.5 7 4.2 14.3 5.1 21.8.2 1.9 3.2 1.9 3 0-1.1-8.9-3.2-17.5-6.4-25.8-1.9-4.9-3.7-13.2-10.1-12.8-3.9.3-7.8 2.2-11.4 3.5-4.2 1.6-8.3 3.4-12.5 5.2-9.1 4-18.1 8.5-26.8 13.3-1.8.9-.3 3.5 1.4 2.6z"/><path class="prefix__st3" d="M322.4 551.9c-2.8-1.9-1.8-6.4-.2-8.7 1.9-2.7 5.7-3.2 8.2-1.1 2.6 2.1 2.4 6.3.3 8.7-2.5 2.8-6.9 2.5-9.7.2-1.5-1.2-3.6.9-2.1 2.1 3.9 3.3 10.2 3.8 13.9-.2 3.4-3.6 3.5-10-.6-13.2-3.9-3.1-9.6-2.4-12.4 1.6-2.8 3.9-3.4 10.2 1.1 13.1 1.6 1.2 3.1-1.4 1.5-2.5zM306.1 577.1c17.7-7.1 35.4-14 53.2-20.8 1.8-.7 1-3.6-.8-2.9-17.8 6.8-35.5 13.7-53.2 20.8-1.8.7-1 3.6.8 2.9zM334.7 573.9c2.3 5.2 5.6 9.8 9.7 13.8 1.4 1.3 3.5-.8 2.1-2.1-3.9-3.8-7-8.2-9.2-13.2-.8-1.7-3.4-.2-2.6 1.5zM364.6 603.2c8.5 5.5 18.1 7.9 28.2 7.1 1.9-.2 1.9-3.2 0-3-9.6.8-18.6-1.4-26.7-6.7-1.6-1.1-3.1 1.5-1.5 2.6zM417 610c6.8-.6 13.3-2.1 19.6-4.6 1.8-.7 1-3.6-.8-2.9-6 2.4-12.3 4-18.8 4.5-1.9.1-1.9 3.1 0 3zM464.7 591c9.4-4.5 16.8-12.1 21-21.7.8-1.7-1.8-3.3-2.6-1.5-4 9.1-10.9 16.3-19.9 20.6-1.7.9-.2 3.5 1.5 2.6zM501.9 539.7c4.3-8.9 9.5-17.3 15.5-25.2 1.2-1.5-1.4-3-2.6-1.5-6 7.9-11.2 16.3-15.5 25.2-.9 1.7 1.7 3.2 2.6 1.5zM539.4 494c7.9-2.4 16.6-4.7 24.2-.2 1.7 1 3.2-1.6 1.5-2.6-8.3-5-17.8-2.7-26.5-.1-1.8.5-1.1 3.4.8 2.9zM581.3 501.6c2.1 1.3 3.7 3.2 4.5 5.5.6 1.8 3.5 1 2.9-.8-1-3.1-3.1-5.6-5.9-7.3-1.7-.9-3.2 1.6-1.5 2.6zM463.5 522.2c-2.3-.6-3.8-3.1-3.1-5.4.8-2.7 4.2-4.1 6.8-3.6 3.5.7 4.2 4.2 2.2 6.8-1.8 2.4-5.2 3.1-8 3.7-1.9.3-1.1 3.2.8 2.9 4.6-.8 9.8-2.7 11.1-7.8 1.1-4.5-1.9-8.3-6.4-8.6-4-.3-8.4 2.1-9.4 6.2-.9 3.8 1.4 7.9 5.2 8.8 1.9.3 2.7-2.6.8-3zM395 517c11.5-7 26-17 40-15.6 1.9.2 1.9-2.8 0-3-14.6-1.5-29.6 8.7-41.5 16-1.6 1-.1 3.6 1.5 2.6zM412.4 487.5c8.4-1.8 16.8-.7 24.5 3.1 1.7.9 3.2-1.7 1.5-2.6-8.5-4.2-17.5-5.3-26.8-3.4-1.9.4-1.1 3.2.8 2.9zM426.8 445.1c10.9 7.5 23.1 16.1 24.8 30.4.2 1.9 3.2 1.9 3 0-1.9-15.4-14.3-24.8-26.3-33-1.6-1.1-3.1 1.5-1.5 2.6zM409.3 340.2c-9.9 8.7-18.8 18.4-27.5 28.3-7.3 8.4-15.8 16.8-18.5 27.9-.5 1.9 2.4 2.7 2.9.8 2.9-11.6 12.5-20.6 20.2-29.3 7.9-9 16.1-17.6 25.1-25.5 1.3-1.3-.8-3.4-2.2-2.2z"/><path class="prefix__st3" d="M363.4 398.3c15 6.9 28 16.8 38.6 29.5 1.2 1.5 3.4-.6 2.1-2.1-10.7-12.8-24-23-39.2-30-1.8-.8-3.3 1.8-1.5 2.6z"/><path class="prefix__st3" d="M405.4 428c8.3-9.4 15.5-19.8 22.2-30.4 6.4-10.2 13.8-20.8 17.8-32.2.6-1.8-2.3-2.6-2.9-.8-3.9 11.1-11.3 21.6-17.5 31.5-6.5 10.5-13.5 20.6-21.7 29.8-1.3 1.4.8 3.5 2.1 2.1zM407 325.4c3.9 17.6 9.2 34.7 15.8 51.4.7 1.8 3.6 1 2.9-.8-6.7-16.7-12-33.9-15.8-51.4-.4-1.8-3.3-1.1-2.9.8z"/><path class="prefix__st3" d="M424.9 378.5c8.1-10 20.9-16.8 31.8-23.3 11.2-6.8 22.8-13 34.3-19.2 1.7-.9.2-3.5-1.5-2.6-12.1 6.5-24.2 13.1-35.9 20.2-10.6 6.4-22.9 13.1-30.8 22.9-1.2 1.3.9 3.5 2.1 2zM409 326c11.7-6.2 23.4-12.5 35.1-18.6s23.7-11.7 36.9-13.3c1.9-.2 1.9-3.2 0-3-12.6 1.6-24.1 6.4-35.3 12.1-12.8 6.5-25.5 13.5-38.2 20.2-1.8.9-.2 3.5 1.5 2.6z"/><path class="prefix__st3" d="M480.4 293.5c4.3 13.2 6.6 26.7 7.1 40.6.1 1.9 3.1 1.9 3 0-.4-14.1-2.8-28-7.2-41.4-.6-1.9-3.5-1.1-2.9.8z"/><path class="prefix__st3" d="M406.9 327.4c7.6 1.5 15.2 2.6 22.9 3.3 4.4.4 8.8.6 13.2.7 2.3 0 6.5.8 8.5-.4 2.8-1.6 5.6-6.2 7.7-8.7 2.7-3.1 5.4-6.3 8.1-9.4 5.5-6.6 10.9-13.2 16.3-20 1.2-1.5-.9-3.6-2.1-2.1-9.3 11.7-18.8 23.2-28.7 34.4-3 3.4-5.3 3.2-9.7 3.2-3.8-.1-7.6-.2-11.4-.5-8.1-.6-16.1-1.7-24-3.3-1.9-.4-2.7 2.5-.8 2.8zM366.9 398.1c14.5-5.6 28.4-12.3 41.9-19.9 1.7-1 .2-3.5-1.5-2.6-13.3 7.5-27 14.1-41.2 19.6-1.8.7-1 3.6.8 2.9z"/><path class="prefix__st3" d="M411.9 345c-.5 10.3-2 20.3-4.6 30.3-.5 1.9 2.4 2.7 2.9.8 2.7-10.2 4.3-20.6 4.7-31.1.1-2-2.9-2-3 0zM289.5 305.3c-.7-9.6-12.7-10-16.8-2.3-2.2 4.3-1.4 9.3.8 13.4 3.7 6.8 12.3 9.5 14.8 16.8.6 1.8 3.5 1 2.9-.8-2.1-6.1-6.8-8.2-11.2-12.4-3.4-3.3-6.5-8.4-5.4-13.3 1.2-5.5 11.3-10.2 11.9-1.4.2 1.9 3.2 1.9 3 0z"/><path class="prefix__st3" d="M289.8 304.6c.2-3.2.9-6.3 2.5-9.2.9-1.6 2-3.1 3.3-4.5 2-2.1 2.4-2.7 5.3-1.3 2.6 1.3 2.8 1.6 2.9 4.3 0 1.5-.2 3.1-.5 4.6-.6 2.9-1.7 5.7-2.9 8.4-4 8.7-9.6 16.6-10.7 26.3-.2 1.9 2.8 1.9 3 0 1-8.9 6.2-16.3 9.9-24.2 2.6-5.5 5.7-12.9 3.6-19.1-1.6-4.8-6-6.4-10.1-3.4-5.8 4.1-8.8 11.1-9.2 18-.2 2.1 2.8 2.1 2.9.1zM477.6 175.9c22.6-18.8 56.7-11 69.1 15.6 5.7 12.3 7.6 26.6 8.6 40 1.1 13.1.7 26.4-1.9 39.2-2.7 13.4-8.1 25.8-16.1 36.8-7.2 9.9-15.9 19.3-19.5 31.3-3.2 10.6-1.2 21.5 6.7 29.5 7.9 7.9 18.6 11.7 27.6 17.9 5.8 4 11.4 9.1 13.3 16.1 2.5 9.1-1.8 18.1-3.5 26.9-2 10.5.8 24.7 13.7 25.6 1.9.1 1.9-2.9 0-3-9.2-.7-12.1-10.7-11.4-18.4.8-7.7 4.1-14.9 4.8-22.6 1-11.4-5.4-20-14.2-26.4-9.8-7-22.3-10.8-30.2-20.4-10.8-13.1-3.3-29.7 5.2-41.7 7.5-10.5 15.7-20.1 20.8-32.2 4.7-11.2 7.1-23.3 7.9-35.4.9-12.9-.1-25.8-2.1-38.5s-5.1-25.7-13.2-36c-16.6-21.1-47.5-23.4-67.8-6.4-1.5 1.2.7 3.3 2.2 2.1zM442 230.5c-3.4 1.7-7.6-7.7-8.1-9.8-1.1-4.6-.3-9.3 2.1-13.3 4.5-7.2 16.3-13.6 24.5-8.9 8.5 4.8 8.3 18 3.4 25.2-5.8 8.3-17.3 9.9-25.8 5-1.7-1-3.2 1.6-1.5 2.6 10.3 6 24.4 3.4 30.6-7.3 5.5-9.4 3.8-26.1-8.4-29.4-11.3-3.1-25 5.7-27.9 16.8-1.4 5.2-.6 10.9 2.1 15.5 1.9 3.2 6.2 8.4 10.3 6.3 1.9-1 .4-3.6-1.3-2.7z"/><path class="prefix__st3" d="M449.6 221.3c-2.3-1.4-3.9-3.8-3.8-6.5 0-3.1 3-5.3 5.9-3.8 2.4 1.3 3 4.7 1.9 7-1 2.2-3.2 3.4-5.5 4-1.9.5-1.1 3.4.8 2.9 3.9-1 7.5-3.9 8.1-8.1.6-3.8-1.5-8.1-5.4-9.1-3.7-1-7.6 1.1-8.6 4.8-1.2 4.5 1.3 9 5 11.3 1.8 1.1 3.3-1.5 1.6-2.5zM291 422.7c5.6-3.1 12.2-3.8 18.5-4.4 5.9-.5 12.1-.3 16.6 4 1.4 1.3 3.5-.8 2.1-2.1-4.8-4.5-11-5.3-17.3-4.9-7.3.4-15 1.3-21.5 4.9-1.6.9-.1 3.5 1.6 2.5zM309.4 404.7c5-.7 9.6 1.3 12.8 5.1 1.2 1.5 3.3-.6 2.1-2.1-3.9-4.7-9.7-6.8-15.7-5.9-1.9.3-1.1 3.2.8 2.9zM335.3 338.6c-1.9-1.8-2.7-4.4-1.1-6.8s4.8-2.8 6.8-.5c1.7 2 1.2 4.6-.9 6-1.8 1.2-4.3 1.4-6.4 1.1-1.9-.3-2.7 2.6-.8 2.9 3.6.5 7.9.1 10.5-2.8 2.7-3 2-7.6-1.1-10.1-3.2-2.6-7.6-1.8-10.1 1.3-2.8 3.5-2 8 1.1 11 1.3 1.3 3.4-.8 2-2.1zM442.6 362.5c-1.1 4.7-3 9-5.7 13-1.1 1.6 1.5 3.1 2.6 1.5 2.9-4.2 4.9-8.8 6-13.8.4-1.8-2.5-2.6-2.9-.7zM691.5 495.4c5.9 2.7 12.5 2.4 18.1-1.1 1.6-1 .1-3.6-1.5-2.6-4.6 2.9-10.1 3.4-15.1 1.1-1.7-.8-3.2 1.8-1.5 2.6zM717.4 483c4.4-5.5.6-13.7 5.1-18.8 1.3-1.4-.8-3.6-2.1-2.1-4.9 5.4-.8 13.4-5.1 18.8-1.2 1.5.9 3.6 2.1 2.1zM729.7 450.5c2.4-4.5 6-7.9 10.5-10.1 1.7-.8.2-3.4-1.5-2.6-5 2.4-9 6.3-11.6 11.2-.9 1.7 1.7 3.2 2.6 1.5zM757 429.3c5.4-1 10.2-3.4 14.3-7 1.4-1.3-.7-3.4-2.1-2.1-3.7 3.3-8.1 5.4-12.9 6.3-2 .2-1.2 3.1.7 2.8zM772.6 393c2.1 3.1 2.7 6.7 1.8 10.4-.5 1.9 2.4 2.7 2.9.8 1.1-4.4.4-8.9-2.1-12.7-1.1-1.6-3.7-.1-2.6 1.5zM773.6 349.2c-4.8 3.2-8.1 8.1-9 13.9-.3 1.9 2.6 2.7 2.9.8.8-5 3.5-9.3 7.7-12.1 1.6-1.1.1-3.7-1.6-2.6zM758.6 334.5c2.1-.1 4.1-.3 6.2-.4 1.5-.1 4.3-.9 5.7-.4 1.8.6 2.6 3.9 3.2 5.4 1 2.2 1.9 4.4 2.9 6.6.8 1.8 3.3.2 2.6-1.5-1.1-2.7-2.3-5.3-3.4-8-.8-1.8-1.3-4.1-3.2-5-1.5-.8-3.4-.4-5-.3-3 .2-6 .4-8.9.6-2.1.1-2.1 3.1-.1 3z"/><path class="prefix__st3" d="M779 344.7c1.2-2.8 2.2-6.8 4-9.2 2.4-3.1 8.1-1 11.5-.4 3.3.5 17 3.7 18.7.2.7-.2 1.4-.4 2.1-.5-.1-.1-.3-.1-.4-.2.2.6.5 1.1.7 1.7 0-.1.1-.3.1-.4.6-1.8-2.3-2.6-2.9-.8 0 .1-.1.3-.1.4-.2.6.1 1.4.7 1.7.1.1.3.1.4.2.7.3 1.7.2 2.1-.5.9-1.9-.2-3-2.1-3.3-2.4-.4-5.3.1-7.8 0-3.6-.2-7.1-.7-10.6-1.2-3.3-.5-9.4-3.1-12.6-1.4-3.3 1.8-4.9 9.1-6.3 12.3-.9 1.6 1.7 3.1 2.5 1.4z"/><path class="prefix__st3" d="M759.2 333.2c19.6-13.8 39.9-26.3 61-37.6-.7-.6-1.5-1.1-2.2-1.7-1.9 13.3-4.3 26.6-7.2 39.7-.4 1.9 2.5 2.7 2.9.8 2.9-13.2 5.2-26.4 7.2-39.7.2-1.3-1-2.4-2.2-1.7-21.1 11.3-41.5 23.8-61 37.6-1.6 1.1-.1 3.7 1.5 2.6z"/><path class="prefix__st3" d="M773.2 332.7c9.2-7.4 18.9-14.2 28.9-20.6 1.6-1 .1-3.6-1.5-2.6-10.2 6.4-20.1 13.5-29.5 21-1.6 1.3.6 3.4 2.1 2.2z"/><path class="prefix__st0" d="M389.1 962.4c88.2 7.9 176.4-3.6 264.5-5.5 25.1-.5 50.1-.2 75.1 1.5 1.9.1 1.9-2.9 0-3-88.3-6-176.4 6-264.6 6.8-25 .2-50.1-.5-75-2.8-2-.2-1.9 2.8 0 3zM619.1 947.1c72-3.9 144.2-5 216.3-3.4 1.9 0 1.9-3 0-3-72.1-1.6-144.3-.5-216.3 3.4-1.9.1-1.9 3.1 0 3zM704.2 888c67.9-5.5 136-8.8 204.2-10 1.9 0 1.9-3 0-3-68.2 1.1-136.3 4.5-204.2 10-1.9.2-1.9 3.2 0 3zM986.9 929.1l204.1-1.2c1.9 0 1.9-3 0-3l-204.1 1.2c-2 .1-2 3.1 0 3zM1381.7 926.3h187.9c1.9 0 1.9-3 0-3h-187.9c-2 0-2 3 0 3zM1196.4 1039.8h98.7c1.9 0 1.9-3 0-3h-98.7c-1.9 0-1.9 3 0 3zM1316.8 1046.6h137.9c1.9 0 1.9-3 0-3h-137.9c-2 0-2 3 0 3zM1272.1 1062.8h87.9c1.9 0 1.9-3 0-3h-87.9c-1.9 0-1.9 3 0 3zM1239.7 1084.5h155.5c1.9 0 1.9-3 0-3h-155.5c-1.9 0-1.9 3 0 3zM1384.4 964.1h148.7c1.9 0 1.9-3 0-3h-148.7c-2 0-2 3 0 3z"/></g><g id="prefix__chair"><path class="prefix__st3" d="M974.4 760.7c-1.6 4-4.6 13.3-2.7 25.1.5 3.1 2.5 12.9 9.7 21.7 8.5 10.4 20.4 14.5 33.8 17.4 52.3 11.2 99.3-2.8 106.3-5 26.7-8.3 41.8-13.3 49.2-28.4 8.9-18.3.5-38.9-2.7-45.8-2.5 4-6.9 10.2-13.4 16.7-31.8 31.7-76.8 31-110 30.4-45.8-.7-58.3-13.2-62.5-18.4-4.1-5-6.4-10.1-7.7-13.7z"/><path class="prefix__st3" d="M994.2 811.6c-1.2 4.6 4.4 7.5 12 17.4 7.6 9.8 11.5 18.7 17.7 33.1 1.1 2.6 4.6 10.5 7.1 18.5 8.4 26.6 5.7 51.1 4.3 63.4-3.6 30.2-14 51.2-10.4 52.8 1.9.9 6-4.4 6.4-4.8 4.6-5.9 4.7-12.7 4.8-16.3.5-13.2 2.2-2.5 4.2-29.4 1.7-23.4 2.6-35.1.7-49.2-1-7.4-1.8-8.3-9.4-34.4-13-44.7-15.1-56.8-23.4-58.5-5.8-1.2-12.9 2.9-14 7.4zM1066.4 816.3c9.5-.4 18.9-.7 28.4-1.1-1.6 9.1-2.6 16.7-3.2 22-1 8.7-4.9 43.3-.5 117.9 0 0 1.2 20.6 1.1 20.6s.5-53-13.1-113.8c-4.5-19.5-9.3-35.2-12.7-45.6zM1141.9 800c15.7-6.6 20.7-6.4 22-4.6 1.8 2.5-3.8 7.6-8.8 17.7-3.8 7.7-4.5 12.7-8 34-5.8 35.2-5.7 32.2-5.9 34.8-1.4 20.9 2.7 37 8.6 59.7 5.8 22.7 13.4 42.4 11 43.4-.5.2-1.3-.5-1.6-.8-13-12.5-17.1-42.1-17.1-42.1-4.4-31.7-6.6-47.6-6.2-55.5 1.6-27.4 8.9-30.1 5.6-47.4-.9-4.8-3.7-16.1-1.3-30.8.4-3.5 1.2-6.5 1.7-8.4zM1063.6 703.5c-4.3.5-10.4 1.5-17.6 3.4-24.3 6.4-40.1 18.2-50.5 26.1-17.6 13.4-20.9 21-22 24.1-3.2 8.7-3.5 19.2-1 20 3.5 1.2 7.1-18 23.1-35.9 25.8-28.9 66.5-35 79.3-37 5.2-.8 9.4-1.2 12.2-1.4 3.5-9.3 9.2-24.6 15.6-43.7 14.6-43.8 18.4-63.9 32.2-105.4 3.9-11.6 9.9-29.1 18.3-50.5 9.5 9.6 22.7 21 40 31.5 20.6 12.5 39.8 19.4 54.3 23.4-11.2 28.4-22.4 56.7-33.6 85.1-13.8 33.5-27.6 66.9-41.4 100.4-.3.9-5.7 20.1 0 23.1.9.5 2.9.9 7.1-1.7 5.2-11.8 12.3-27.9 20.7-47.1 13.2-30.4 30.5-70.2 50.2-119 12.8-31.7 28.7-72.3 46.1-120-.8-1.6-2.2-4-4.4-6.4-4.4-4.9-9.4-7-11.2-7.8-12.9-5.6-59-27.2-86.5-44.8-3.9-2.5-10.4-6.8-18.3-12.9-5 8.4-12 20.6-19.7 35.6-17.9 34.9-28.9 63.8-38.7 91.2-24.9 69.8-45.3 138.6-54.2 169.7z"/><path class="prefix__st3" d="M1054.8 711.5c.1.6 13.8-4.3 32.4-4.5 10.2-.1 34.9-.2 54.5 14.8 17.9 13.8 23.7 34.2 26.5 33 1.7-.7.5-8.1-2-14.2-6.4-15.7-21.8-22.6-33-27.6-8.5-3.8-25.9-10.2-48-8.7-17.1 1.2-30.5 6.7-30.4 7.2z"/><path class="prefix__st3" d="M1068.8 701.2c-24.6 12.5-49.1 25-73.7 37.6-2.9 1.5-5.9 3-8.8 4.5-1.9 1-4.3 1.7-5.8 3.2-1.5 1.6-2.4 5-3.2 7-1.2 3-2.3 6-3.2 9.1-2.8 9.5-4 19.7-1.8 29.4 3.9 17.1 20 25.2 34.4 32.2 7.5 3.7 14.9 5 23.2 5.9 12.5 1.3 25.1 1.5 37.6.8 24.3-1.5 48.3-6.8 70.9-15.9 9.5-3.8 18.7-7.7 25.1-16 5.5-7.1 8.4-15.8 9.5-24.6 1-7.5.7-15.1-.3-22.6-.6-4.9 2.6-9.9 4.5-14.4 2.7-6.4 5.4-12.9 8-19.3 10.7-25.7 21.5-51.5 32.2-77.2 23.8-57 47.5-113.9 71.3-170.9.7-1.8-2.2-2.6-2.9-.8-19.7 47.2-39.3 94.3-59 141.5-10 23.9-19.9 47.8-29.9 71.7-4.9 11.6-9.7 23.3-14.6 34.9l-6.9 16.5c-1.3 3.1-2.6 6.1-3.8 9.2-.8 1.9-2.2 4.3-2.3 6.3-.1 2.9.8 6 1 8.9.3 3.9.3 7.8 0 11.7-.6 9.3-3.1 18.8-8.7 26.4-7.2 9.8-19 14-30 18-10.7 3.9-21.6 7-32.7 9.3-23.3 4.8-47.3 5.9-70.9 3.2-8.2-.9-15-2.9-22.4-6.4s-14.8-7.6-20.8-13c-8.9-8-11.5-19.1-10.5-30.7.5-6.3 2.1-12.5 4.2-18.4 1.3-3.5 2.5-8.4 5.8-10.7 2.6-1.9 6-3 8.8-4.5 25.7-13.1 51.5-26.2 77.2-39.4 1.8-.8.3-3.4-1.5-2.5z"/><path class="prefix__st3" d="M1174.9 408.4c-21.5 34.2-39.1 70.8-52.4 108.9-13.6 39.1-22.3 79.6-33.5 119.4-6.4 22.8-13.8 45.4-23.2 67.2-.8 1.8 1.8 3.3 2.6 1.5 16.3-37.5 26.2-77.3 36.5-116.8 10.5-40.4 22.2-80.2 39.7-118.1 9.6-20.9 20.6-41.1 32.9-60.6 1.1-1.6-1.5-3.1-2.6-1.5z"/><path class="prefix__st3" d="M1068.4 706.8c19.9-3 40.3-.9 59.1 6.2 16.7 6.3 33.7 16.9 39.7 34.6.6 1.8 3.5 1 2.9-.8-6-17.6-22-28.6-38.5-35.4-20.2-8.3-42.4-10.7-64-7.5-1.9.3-1.1 3.2.8 2.9zM1135.7 489.8c18.8 15.6 37.7 31.1 57.1 45.7 8.7 6.6 17.9 12.3 28 16.6 4.9 2.1 9.9 3.8 15 5.2 3.2.9 8.7 3.4 11.7 1.2.7-.5.9-1.3.5-2.1-.5-1.1-1-1.2-2.2-1.3-.6-.1-1.3.5-1.4 1.1 0 .1-.1.3-.1.4-.5 1.9 2.4 2.7 2.9.8 0-.1.1-.3.1-.4-.5.4-1 .7-1.4 1.1-.1-.1-.3-.1-.4-.2.2-.7.4-1.4.5-2.1-1.5 1.1-6.1-.7-7.7-1.1-2.5-.6-5.1-1.4-7.5-2.2-5.1-1.7-10.1-3.7-15-6.1-9.4-4.6-17.8-10.7-26.1-17.1-17.5-13.6-34.8-27.6-51.9-41.7-1.4-1.2-3.6 1-2.1 2.2zM1176.2 412.6c32.5 24.6 66.3 49.7 106.7 59.2 1.9.4 2.7-2.4.8-2.9-40.1-9.5-73.7-34.5-106-58.9-1.5-1.2-3 1.4-1.5 2.6zM1168.3 788c-20.1 31.1-26.6 68.1-31.9 104.2-.3 1.9 2.6 2.7 2.9.8 5.3-35.8 11.7-72.5 31.6-103.4 1-1.8-1.6-3.3-2.6-1.6z"/><path class="prefix__st3" d="M1137.2 892.7c6.1 31 13.4 61.7 21.8 92.2.5 1.9 3.4 1.1 2.9-.8-8.4-30.4-15.7-61.2-21.8-92.2-.4-1.9-3.3-1.1-2.9.8zM1016.6 828.7c10.1 25.1 17.7 51.1 22.8 77.6.4 1.9 3.3 1.1 2.9-.8a418.7 418.7 0 00-22.8-77.6c-.7-1.8-3.6-1-2.9.8z"/><path class="prefix__st3" d="M1039.6 905.1c-2.1 29.5-6.7 58.8-13.8 87.5-.5 1.9 2.4 2.7 2.9.8 7.1-29 11.8-58.5 13.9-88.3.1-2-2.9-2-3 0z"/><path class="prefix__st3" d="M1042.8 907c31.5 14.6 70.1 9.3 96.4-13.4 1.5-1.3-.7-3.4-2.1-2.1-25.2 21.8-62.5 27-92.7 12.9-1.8-.8-3.4 1.8-1.6 2.6zM996.3 818.8c20.1 21 33.8 47.2 39.4 75.7.4 1.9 3.3 1.1 2.9-.8-5.7-29-19.7-55.7-40.2-77-1.3-1.4-3.4.7-2.1 2.1z"/><path class="prefix__st3" d="M1007.3 827.1c7.6 10.3 12.9 21.7 15.8 34.2.9 3.8 6.7 2.2 5.8-1.6-3.1-12.9-8.6-24.9-16.5-35.6-2.2-3.1-7.4-.1-5.1 3zM1140 815.3c3.5 27.3-5.6 54.1-4.4 81.4.1 1.9 3.1 1.9 3 0-1.2-27.3 7.9-54.1 4.4-81.4-.2-1.8-3.2-1.9-3 0z"/><path class="prefix__st3" d="M1143.3 813.9c.5 7.5 0 14.8-1.8 22.1-.9 3.7 4.8 5.3 5.8 1.6 2.5-10.1 6.1-19.8 10.7-29.1 1.7-3.4-3.5-6.5-5.2-3-4.8 9.8-8.6 19.9-11.3 30.5 1.9.5 3.9 1.1 5.8 1.6 1.9-7.8 2.6-15.7 2-23.7-.3-3.8-6.3-3.8-6 0z"/><path class="prefix__st3" d="M1147.7 808.9c-1.2 2.9-1.8 6.1-1.8 9.2 0 3.9 6 3.9 6 0 0-2.7.6-5.2 1.6-7.6.6-1.5-.7-3.3-2.1-3.7-1.7-.5-3.1.6-3.7 2.1z"/><path class="prefix__st3" d="M1146.7 812.1c-17.5 55.7-14 116.9 9.7 170.3.8 1.8 3.4.2 2.6-1.5-23.3-52.7-26.6-113.1-9.4-168 .6-1.8-2.3-2.6-2.9-.8zM1024.8 852.4c17.7 43.7 19.2 92.9 4.2 137.6-.6 1.8 2.3 2.6 2.9.8 15.2-45.2 13.7-95-4.2-139.2-.7-1.7-3.6-1-2.9.8zM1071.9 832.3c9.5 21.5 9.8 45.9 11.7 68.9l5.7 71.4c.2 1.9 3.2 1.9 3 0l-6-75.3c-1.8-22.4-2.5-45.7-11.8-66.5-.8-1.8-3.3-.3-2.6 1.5z"/><path class="prefix__st3" d="M1089.7 829.9c-2.7 46.9-2.9 94-.6 140.9.1 1.9 3.1 1.9 3 0-2.3-46.9-2.1-94 .6-140.9.1-1.9-2.9-1.9-3 0zM1077.6 833.5c2.1 12.9 4 25.8 5.8 38.7 1-.3 1.9-.5 2.9-.8-1.5-9.4-2-18.8-1.6-28.2.2-4.3.7-9.8-4-11.9-.1.9-.2 1.8-.4 2.7.8-.3 1.6-.5 2.5-.8-.6-.2-1.1-.5-1.7-.7 2.1 4.2 1.4 9.5 1.4 14.1v39.6c0 1.9 2.9 1.9 3 0 .9-19.4 2-38.7 3.3-58.1.1-1.9-2.9-1.9-3 0-1.3 19.3-2.5 38.7-3.3 58.1h3v-30.7c0-7.7 1.7-17.4-1.8-24.5-.3-.6-1.1-.9-1.7-.7-.8.3-1.6.5-2.5.8-1.1.3-1.6 2.2-.4 2.7 3.2 1.4 2.7 5.5 2.6 8.4-.2 3.5-.2 7-.2 10.5.2 6.5.8 13 1.8 19.5.3 1.9 3.1 1.1 2.9-.8-1.8-12.9-3.7-25.8-5.8-38.7-.2-1.9-3.1-1-2.8.8zM971.9 766.7c6.1 12.2 19.1 18 31.4 22 14.4 4.6 29.5 7.2 44.7 7.9 30.6 1.4 61.5-5.2 88.8-19.1 13.1-6.7 30.7-15.8 33.6-31.7.7-3.8-5.1-5.4-5.8-1.6-2.5 13.6-17.6 21.2-28.7 27-12.2 6.5-25.3 11.3-38.7 14.6-27.1 6.6-55.9 6.7-83-.2-13.7-3.5-30.4-8.3-37.2-21.9-1.6-3.4-6.8-.4-5.1 3z"/><path class="prefix__st3" d="M974.6 776.3c2.7 12.4 7.6 24 14.5 34.6l2.4-1.8c-8.8-7.7-13.2-18.8-12.1-30.4h-3c-.9 12.3 3.4 24.1 11.8 33.2 1.2 1.3 3-.4 2.4-1.8-4.5-10.4-7.4-21.3-8.6-32.6-.9.3-1.9.5-2.8.8 6.9 10.9 12.4 22.5 16.5 34.8.8-.5 1.7-1 2.5-1.5-7.9-9.7-12-21.6-11.9-34.1-.9.4-1.7.7-2.6 1.1 8.1 9.7 12.7 21.5 13.5 34.1.9-.3 1.9-.5 2.8-.8-5.7-7.5-8.2-16.2-7.4-25.5-.9.4-1.7.7-2.6 1.1 7.3 7.3 11.6 16.6 12.3 26.9.9-.4 1.7-.7 2.6-1.1-6.9-6.5-10.4-15.1-10.2-24.6-.8.4-1.5.9-2.3 1.3 9.5 4.9 14.4 15.9 11.5 26.3.8-.2 1.7-.4 2.5-.7-3.5-2.8-6.5-6.1-8.7-10.1-.9-1.7-1.8-3.4-2.4-5.2-.4-1.1-.7-2.3-.9-3.5-.4-2.4 1.2-3.3 5-2.5 3 1.8 5.4 8.7 6.3 11.9 1.4 4.6 1.8 9.2 1.4 14 .8-.4 1.5-.9 2.3-1.3-5-3.7-9.2-8.3-12.3-13.7-2.9-5-7.6-18.5 3.2-16.8 10 1.6 18.9 20.4 10.9 28.1.6-.1 1.2-.2 1.8-.2-4.1-2.7-7.4-6.3-9.6-10.8-1-2.1-1.8-4.3-2.2-6.5-.2-1.1-.7-2.8-.4-3.9-.2-1.3.6-2.3 2.2-2.8 1-2.4 2.5-2.8 4.3-1.4 9 4.8 11.1 18.4 8.8 27.2.8-.2 1.7-.4 2.5-.7-2.9-2.8-5.3-5.9-7.1-9.5-1.5-3-6.6-15.5 1.6-13.4 4.1 1 6.5 6.9 7.7 10.5 1.5 4.6 1.7 9.3.8 14 .7-.3 1.5-.6 2.2-.9-6.8-4.9-10.3-12.7-9.7-21-.6.5-1.3 1-1.9 1.4 5.3 2.2 9.2 6.8 10.6 12.3.3 1.4.5 2.9.5 4.3-.1 2.9-2.1 2.4-4.5 1.2-2-1-4.2-3.9-5.7-5.6-1.8-2.1-3.5-4.4-4.8-6.9-.6-1.1-1.3-2.4-1.5-3.7-.2-1.9.9-4.1 3.1-4.5 2.6-.5 6.8 4.5 7.9 6.2 1.7 2.7 2.3 5.7 2.3 8.8.6-.5 1.3-1 1.9-1.4-6.3-2.1-11.9-5.5-16.4-10.4-1.5-1.6-6.7-6.9-1.2-8.8 1.1-.4 3 .5 3.9.9 2.9 1.3 5.4 3.9 7.3 6.4 3.4 4.6 5.2 10.3 5.1 16-.1 3.3-1.4 8.9-5.5 4.8-2.6-2.5-4.1-5.6-4.9-9.1-.5.6-1 1.3-1.4 1.9 2.7-.3 5.7-.4 8.1 1.1 2.1 1.2 3.1 3 3.2 5.4-1.8 4.3-4 4.8-6.5 1.4-.3.6-.7 1.2-1 1.8 4.1-.9 7.8.7 10.1 4.2l2.4-1.8c-2.7-2.9-4.7-6.1-5.8-9.9-.6-1.8-.9-3.8-1-5.7-.1-1 0-2.1 0-3.1-.4-2.5.4-3.1 2.4-1.8 7.1 2.3 5.9 16 4.1 21.6.8-.2 1.7-.4 2.5-.7-3.5-4.1-6.1-8.6-7.8-13.7-1.1-3.5-4.3-16.6 4.1-11.1 3.4 2.2 5.4 8.3 6 12 .8 4.6.2 9-1.5 13.3.8-.2 1.7-.4 2.5-.7-3.7-3.5-6.7-7.6-8.5-12.4-1.1-2.8-5.2-18.2 3.1-14.9 4.1 1.6 7.1 10 8.3 13.7 1.4 4.6 1.9 9.2 1.7 14 .8-.4 1.5-.9 2.3-1.3-4.1-2.6-7.3-6-9.6-10.3-2-3.9-5.8-14.8 1.8-14.1 5.1.4 6.9 7.4 8 11.6 1.2 4.7 1.7 9.9-1.9 13.7h2.1c-5.5-5.5-9.5-14.3-7.6-22.3.1-2.4 1.2-3.1 3.5-2 2.2-.5 3.6.3 4.2 2.4 1 1.8 1.5 3.9 1.9 5.9 1 4.8.8 9.7-.4 14.5.8-.2 1.7-.4 2.5-.7-6.2-7.1-8.6-16.4-6.6-25.7-.8.2-1.7.4-2.5.7 7.7 6.2 10.9 16.1 8 25.5.8-.2 1.7-.4 2.5-.7-3.1-3.5-5.6-7.5-6.7-12.1-.9-3.5-2.6-15.9 6.1-9.4 6.3 4.7 6 15.7 2.9 21.9.7-.2 1.4-.4 2.1-.5-3.3-2.5-5.7-5.9-6.9-9.9-.5-1.5-.7-3.2-.7-4.8 0-1.1 0-2.1.3-3.2 3.7-2.3 5.9-2 6.7.6 4.1 6.1 1.3 16-2.8 21.3l2.4.3c-2.8-4.3-5.1-8.8-6.5-13.8-.9-3.2-2.4-7.6 2.1-9.5 3-1.3 6.3 1 7.9 3.4 2.3 3.4 3.2 8.9 1.2 12.6-1.1 2.2-4.4 4.4-7 3.1-5.6-2.9.1-7.8 3.4-6.8 6 1.9-.4 15.4-8.2 7.7-4-4-2.7-10.2 1.9-13.1 10.2-6.5 15.5 10.2 6.1 12.6.6.2 1.1.5 1.7.7-2.5-3.5-4.3-7.6-4.3-12 0-3 .7-6.9 4.8-7 2.3-.1 4.8 2.1 5.8 4 1.4 2.5 1.1 5.9.6 8.6-.2 1-.7 4.4-1.3 5.1-4.2 4.7-7-6.3-7.4-8.4-.6-3.9-.5-8.2 1.8-11.5 1.8-2.7 4.9-5 8.2-2.2 1.5 1.3 2.1 3.6 2.5 5.4 2 8.2.2 16.8-3.9 24l2.4-.3c-5.4-6.5-8.5-14.8-7.9-23.3 0-1.1.2-2.1.4-3.1 3-.5 4.9.5 5.6 2.8 1 1.6 1.5 4 1.8 5.8.8 4.6.1 9.1-1.6 13.5.9-.1 1.8-.2 2.7-.4-2.3-4.2-11.6-24.1-.7-23.6 11.3.5 7.2 15.1 4.6 21.5.9-.1 1.8-.2 2.7-.4-2.2-3.6-3.8-7.5-4.1-11.8-.1-1.5-.1-3 0-4.6 0-.8.2-1.6.4-2.4 3.4-1.8 5.6-1.3 6.5 1.4 4.2 5.7 1.9 14.7-1.8 19.9h2.6c-2.5-4-4-8.4-4-13.1 0-2 .2-4.1.7-6.1.3-1.2.7-2.4 1.3-3.5.8-2.3 2.1-2.7 3.8-1.4 4.4 1.6 3.1 8.2 2 11.9-1.3 4.2-3.7 7.7-6.9 10.7h2.1c-2.4-2.9-3.9-6.2-4.5-10-.5-3.1-.8-14 6.2-10.7 3.9 1.9 3.2 8.4 2.4 11.8-.8 3.6-2.6 7.9-6.6 9-6.3 1.7-8.7-7-2.6-8.5 4.2-1.1 8.2 7.3 4.2 9-1.7-.8-3.4-1.6-5.2-2.3.1-1.5.5-2.8 1.4-4 .8-1.3 2.3-3.4 3.8-4 6.9-2.9 6.4 4.9 5.2 7.7-.8 1.9-2.3 3.5-3.6 5l2.4.3c-4.1-5.8-8.5-17 1-20.3 6-2.1 8.4 4.2 7.9 9.1-.5 4.4-2.4 8.2-5.4 11.5l2.4.3c-3-6-4.4-13.6-2.2-20.1l.9-2.1c1.5-.1 3-.2 4.5-.2.7.6.5 3.9.5 4.9.1 3.9-.4 7.8-1.3 11.6.9-.1 1.8-.2 2.7-.4-1.5-3.2-2.6-6.6-2.7-10.1-.1-2-.4-2.6 1.9-2.9 2.4-.3 2.5 1.1 3.1 3.3 1.3 5.4-.7 11.1-4.8 14.8l2.4.3c-5-8.2-5.3-17.9-.8-26.4l-2.4.3c6.7 5.6 6.8 16.2.1 21.8l2.4.3c-2.4-3.3-5.1-6.8-6.2-10.8-1.3-4.9.2-11.4 6.1-12.1 5.7-.6 7.3 5.9 7.2 10.5-.1 4.6-1.9 8.9-4.9 12.4h2.1c-4.8-5.8-12.4-17-3.6-23.2 4.8-3.4 10 .6 11.2 5.5 1.2 4.8-1.1 9.5-3.5 13.5h2.6c-3-4.5-8.1-12.3-2.5-17 6-5 8.8 2.7 7.8 6.9-.6 2.7-2.3 5.1-3.7 7.4.7-.2 1.4-.4 2.1-.5-3.4-2.2-6-7.3-2.4-10.7 3.9-3.8 10.7 2 6 5.7.6-.1 1.2-.2 1.8-.2-2.5-1.9-2.8-4.9-1.3-7.4-.6.2-1.1.5-1.7.7 2.4 1.1 3.5 2.8 3.2 5.2.4-.5.7-1 1.1-1.4-2 .4-3-3.5-4.5-4.5-1-.6-2.4-.9-3.5-.6-2.1.5-3.2 2-2.1 4l2.4-1.8c-2.1-1.8-2.2-3.4-.3-5 2.4 2.7 2.8 5.5 1.1 8.2h2.6c-1-1.6-2.4-3.4-2.8-5.3-1.2-5 .9-6.4 6-4.3.6 1.1.9 2.3 1 3.5.8 4.5-.7 8.7-3.6 12.1l2.4.3c-3.2-7.2-1.3-15.3 4.5-20.6h-2.1c5.7 5.5 6.6 13.9 2.4 20.6.9.1 1.8.2 2.7.4-.9-2.9-1.5-5.9-1.5-9 0-1.9.1-3.8.5-5.7.6-2.6.5-3.8 3.5-4 2.8-.3 2.5.1 3.4 2.4.7 1.8 1.1 3.6 1.3 5.5.2 3.4-.5 6.7-1.9 9.8.9.1 1.8.2 2.7.4-1.9-7-4.2-18.1 5-21-.6-.2-1.1-.5-1.7-.7 2.9 4.4 2 9.6-2 13l2.4.3c-2.9-4-3.2-9.5 0-13.4 1.6-1.9 2.2-2.2 4.8-2.1 3.2.1 3.9 1.3 4 4.4 0 3.3-2.2 6.1-4.1 8.7h2.6c-1.3-1.4-1.7-3.1-1.1-5.1.5-1.9-2.4-2.7-2.9-.8-.7 2.8-.4 5.1 1.4 7.4.7 1 1.9 1 2.6 0 2.9-4 6.1-8.9 4-13.9-1.5-3.4-4.8-5.4-8.4-4.3-8.5 2.6-10.3 14.2-5.5 20.6.6.8 1.6 1 2.4.3 5-4.2 6-11.2 2.4-16.6-.4-.5-1-.9-1.7-.7-11 3.4-9.5 15.9-7.1 24.7.3 1.2 2.2 1.6 2.7.4 2.2-4.7 3-9.7 1.8-14.8-.7-3.3-2.6-9-6.7-9.2-3.5-.2-5.7 3.5-6.5 6.4-1.8 5.8-1.2 12.3.6 18 .4 1.2 2 1.5 2.7.4 4.9-7.8 3.7-17.8-2.9-24.2-.6-.6-1.5-.6-2.1 0-6.9 6.2-8.7 15.8-4.9 24.2.4.8 1.8 1 2.4.3 4.3-5.1 8.3-19-.3-22.6-2.9-1.2-6.1.5-7.6 3.1-2.5 4.3 0 9.1 2.5 12.8.5.8 2.1 1.1 2.6 0 1.9-4.4 3-12.6-4-12.8-6.4-.2-3.9 7-1.5 10.1 1.1 1.4 3.1-.4 2.4-1.8-.3-.5 2.8 2.7 3.3 3.2.6.6 1 1.4 1.8 1.8 1.2.7 1.9.7 3.3.4.7-.1 1.1-.8 1.1-1.4.1-3.9-1.9-6.6-5.4-8.1-.6-.2-1.4.2-1.7.7-2.4 4.1-1.4 8.7 2.4 11.5.6.4 1.3.1 1.8-.2 5.8-4.6.9-13.9-6.2-12.2-9.4 2.2-7.4 13.5-1 17.7.7.5 1.6.1 2.1-.5 2.7-4.3 5.7-9.3 3.9-14.5-1.2-3.5-4.4-6.3-8.3-5.7s-6.8 4.2-7.6 7.8c-1.2 5.5 2.2 10.8 5.1 15.2.6.9 2 1 2.6 0 3.1-5.2 5.6-11.4 3.3-17.4-1.9-4.8-6.8-8.5-12.1-7.1-4.9 1.3-8 6.5-8.4 11.4-.4 7 4.1 12.9 8.3 18 .5.6 1.6.6 2.1 0 4.1-4.9 6.4-11 5.6-17.5-.6-4.9-3.2-10.6-8.8-11-5-.3-9.3 4.2-10.5 8.8-1.8 7 3 13.7 6.8 18.9.6.8 1.6 1 2.4.3 7.8-6.7 7.8-19.5-.1-26.1-.7-.6-1.9-.6-2.4.3-5 9.4-4.7 20.3.8 29.4.5.9 1.6 1 2.4.3 3.6-3.3 5.7-7.6 6-12.5.2-3.7-.7-9.7-4.3-11.9-2.7-1.6-5.2 0-6.3 2.6-2.1 5 .3 11.7 2.5 16.2.6 1.2 2.5.8 2.7-.4.9-4.1 4.5-26-5.9-21.7-4.2 1.7-5.2 7.5-5.6 11.3-.6 6 .8 11.7 3.5 17.1.4.8 1.7 1 2.4.3 4.4-4.8 7.3-11.4 6.2-18-.8-4.5-3.8-8.3-8.7-8.2-4.3.1-8.3 3.1-10 7-2.6 6.3.6 13.2 4.3 18.3.5.7 1.7 1.1 2.4.3 3.7-4.4 8.1-10.9 3.5-16.4-4.2-4.9-10.3-.8-13.2 3.4-2.7 4-3.3 11.9 3.2 12.6 4.9.5 7.7-5 7-9.2-.8-4.7-5.4-8.5-10.2-6.3-4.2 1.9-6.4 7.8-3.5 11.6 3.6 4.5 10.6 2.8 13.9-1.1 3.9-4.5 5.6-13.4 3.1-18.9-2.7-5.8-10.4-6.8-13.3-.6-3.3 7.2-.1 16.2 4.5 22 .5.6 1.6.5 2.1 0 4.8-4.4 8-10.3 8.6-16.8.4-4.2-.4-11.4-5.9-11.9-5.2-.5-7.5 5.7-8.2 9.8-1.3 7 .3 13.9 4 19.9.6 1 1.9.9 2.6 0 3.4-4.8 4.9-10.5 4.1-16.4-.6-4.4-2.9-10.4-7.9-11.4-4.2-.8-6.3 2.9-6.8 6.5-.9 6.6 1 13.1 4.5 18.7.7 1.2 2.3.8 2.7-.4 2.3-5.9 5-13.2 1.8-19.3-1.9-3.6-6.3-6.2-10.4-5.9-13.7.9-4.1 22-.8 28.1.7 1.2 2.3.8 2.7-.4 2.5-6.4 2.8-13.3.3-19.7-1.3-3.4-5-9.5-9.6-7-4.1 2.2-2.9 10.3-2.4 13.9 1 7 4 13.3 8.5 18.7.6.7 1.9.5 2.4-.3 4.8-8.5 8.4-23.4 1.8-32-6.7-8.7-15.4 1.7-16.1 9.1-.5 5.5.9 11.2 3.9 15.8 1.9 2.8 4.8 5.7 7.8 2.5 3.2-3.5 4.1-11.2 3.3-15.7-.7-4-3.4-7.5-7.3-8.7-4.3-1.3-8.2 1.1-9.4 5.4-1.8 6 .7 12.9 4.2 17.8.4.6 1 .9 1.7.7 12-3.1 7.5-23.3-5.3-19.5-6 1.8-10.4 8.2-8.5 14.4 1.8 5.9 9.1 10.4 14.7 6.6 4.1-2.8 5.8-9.7 1.7-13.2-4-3.5-11.4-.3-11.9 4.9-.6 5.7 6.3 8 10.7 6.1 6.3-2.8 6.6-11.4 4.4-17-2.3-5.7-9.6-11-15.3-6-7.1 6.1 1.6 20.5 5.4 26.2.5.7 1.7 1.1 2.4.3 4-5.2 6.1-11.6 5.2-18.2-.6-4.3-2.8-11.8-8.4-12-5.8-.2-6.6 7.4-6.1 11.6.7 6.2 4.1 11.3 8.9 15 .6.5 1.7.1 2.1-.5 2.7-5.4 3.4-11.4 1.5-17.2-1.4-4.4-5.2-11.1-10.5-11.5-5.6-.4-6.8 6.1-6.4 10.3.6 7.1 3.7 13.4 8.4 18.7.8.9 2.2.4 2.5-.7 3.1-10.4-.3-21.7-8.8-28.5-.8-.7-2.2-.5-2.5.7-2.3 10.3.4 20.6 7.3 28.6.7.8 2.3.4 2.5-.7 1.6-6.8 1.7-14.4-1.1-21-1.6-3.8-5.5-9-10.3-6.7-4.6 2.2-4.4 9.3-3.9 13.5.8 6.6 3.9 12.4 8.6 17.1.6.6 1.6.6 2.1 0 4.7-5 4.2-11.8 2.3-18-1.7-5.4-4.7-13.1-11.6-12.9-6.6.2-7 7.4-5.9 12.4 1.8 7.6 6.6 13.9 13.1 18.1 1 .6 2.2-.2 2.3-1.3.3-7.3-1.1-14.5-4.4-21.1-2.2-4.3-6.8-12.2-12.8-10.1-5.3 1.9-4.2 9.5-3.4 13.8 1.4 7.4 5.3 14 10.8 19.1.9.8 2.1.4 2.5-.7 2.6-6.6 2.6-13.9-.2-20.4-1.7-4-6-11.6-11.3-11-5.1.5-5.1 7-4.5 10.8 1.3 8.1 4.9 15.3 10.1 21.5.8.9 2.2.3 2.5-.7 2-6.1 2.1-12.7-.2-18.8-1.2-3.1-3.9-9.6-8.3-8.7-4.5.9-4 8.2-3.7 11.5.7 6.2 3.4 11.7 7.6 16.2 1.1 1.2 3.3-.4 2.4-1.8-3.1-4.7-8-6.7-13.5-5.5-.8.2-1.3 1.1-1 1.8 1.6 5.5 9.6 6 11.8.7 3.7-8.8-6.9-13.1-13.7-12.5-1 .1-1.7.9-1.4 1.9 1.1 4.7 10.6 20.4 15.1 10.5 3.9-8.5-.3-20.5-6.2-27-3.2-3.6-16-11.4-17.8-2.2-.9 4.5 4.4 9.3 7.3 12 4.5 4.1 9.8 7 15.5 9 .9.3 1.9-.5 1.9-1.4.1-4.6-1.3-8.9-4.2-12.4-2.4-3-7-6.6-11.1-5.7-9.2 2.1-.8 15 2.1 18.7 2.9 3.7 14.9 16.7 16.5 5.2 1.2-9.1-5.2-17.6-13.2-20.9-1-.4-1.8.6-1.9 1.4-.7 9.4 3.5 18.1 11.1 23.6.7.5 2 0 2.2-.9 1.2-6.7.6-13.5-2.4-19.7-2.1-4.4-6.2-9.8-11.8-9.2-5.4.5-5.2 6.1-4.3 10.2 1.6 7.1 5.3 13.4 10.5 18.5.8.8 2.2.4 2.5-.7 1.9-7.2 1.3-14.8-2.2-21.5-2.4-4.8-7.7-11.8-14-10.3-6.2 1.4-5.3 9.5-4.1 14.1 1.9 7.4 6.5 13.5 12.8 17.7.6.4 1.4.2 1.8-.2 5.2-4.9 4.7-12.2 2.2-18.4-2.8-6.7-8.6-15.3-16.8-14.9-8 .4-9.6 8.1-7.3 14.5 3.1 8.8 9.3 16.2 16.6 21.7 1 .7 2.2-.3 2.3-1.3.6-7.3-.7-14.5-4.1-21.1-1.8-3.6-5.7-10.8-11-9.2-4.7 1.5-3.9 7.7-2.7 11.2 2.2 6.6 6.5 12.3 11.9 16.6.9.7 2.2.5 2.5-.7 3.2-11.6-2.2-24.1-12.9-29.7-1-.5-2.2.1-2.3 1.3-.2 10.2 3.7 19.7 11.1 26.7.9.8 2.7.3 2.6-1.1-.7-11.1-5.3-21.1-13.1-29-1-1-2.5-.2-2.6 1.1-.8 9.8 1.9 19.2 7.8 27 .8 1.1 2.9.9 2.8-.8-.8-13.4-5.7-25.9-14.3-36.2-.9-1-2.6-.2-2.6 1.1-.1 13.3 4.4 25.8 12.8 36.2.9 1.2 3-.1 2.5-1.5-4.2-12.5-9.8-24.3-16.8-35.5-.7-1.2-3-.8-2.8.8 1.3 11.8 4.3 23.2 9.1 34.1l2.4-1.8c-7.9-8.5-11.7-19.5-10.9-31.1.1-1.9-2.8-1.9-3 0-1.2 12.3 3.6 24.4 12.9 32.5 1.2 1.1 3.3-.3 2.4-1.8-6.7-10.4-11.5-21.8-14.2-33.9-1.5-2.5-4.4-1.7-4 .2z"/><path class="prefix__st3" d="M1000.8 791.6c10 12.5 21.1 23.9 33.3 34.2.6.5 1.5.6 2.1 0l.2-.2c.7-.7.5-1.9-.3-2.4-.2-.1-.3-.2-.5-.3-.6-.3-1.3-.2-1.8.2l-.3.3c-.5.4-.6 1.3-.2 1.8 1.4 2.1 3.4 1.5 5.6 1.1 5.4-1 10.7-2.1 16.1-3.3 11.3-2.5 22.6-5.2 33.8-8.3 9.8-2.7 20-5 29.3-9 6.5-2.8 12-6.7 14.8-13.4.4-.9-.6-1.9-1.4-1.9-4.7-.1-9.4.1-14.1.5.4.9.7 1.7 1.1 2.6 3.3-2.8 6.9-4.6 11.1-5.7l-1.2-2.7c-4.9 2.7-9.8 3.8-15.3 3.5.3.9.5 1.9.8 2.8 4.1-2.3 8.3-3.8 12.9-4.6l-1.2-2.7c-5.3 2.4-10.7 4-16.5 4.8.3 1 .5 1.9.8 2.9 5.9-2.1 11.8-3.5 18-4.3-.4-.9-.7-1.7-1.1-2.6-5.3 5.4-11.2 9.6-18.1 12.7-1.4.6-.7 2.8.8 2.8 10.4-.3 20-4.2 27.7-11.3 1.1-1 0-3-1.5-2.5-4.3 1.5-8.5 2.9-12.8 4.4-1.8.6-1 3.5.8 2.9 6-2 11.6-4.5 17-7.8 1.4-.9.5-3.3-1.2-2.7-4.8 1.5-9.5 2-14.5 1.6.4.9.7 1.7 1.1 2.6 4.6-3.7 9.7-6.1 15.5-7.5l-1.2-2.7c-5.3 3.4-11 5.3-17.3 5.8.3.9.5 1.9.8 2.8 9.1-5.8 18.7-10.2 29-13.4-.3-1-.5-1.9-.8-2.9-5.4 2.1-10.2 4.9-14.7 8.6-1.3 1.1.4 3.2 1.8 2.4 11.3-6.3 21.3-14.6 29.7-24.5-.9-.4-1.7-.7-2.6-1.1-.5 10.3-1.8 20.6-4.7 30.5-1.5 5.3-4 8.9-8.9 11.6-4 2.3-8.3 4.2-12.5 6-18.1 8.2-37 14.3-56.4 18.4.3 1 .5 1.9.8 2.9 12.4-4.2 25-7.6 37.8-10.2 1.7-.3 1.2-2.9-.4-2.9-5.2-.3-9.9.6-14.6 2.8-1.5.7-.6 2.7.8 2.8 2.5.1 5 .3 7.4.4v-3l-17.7-.6c.1 1 .3 2 .4 2.9 6.2-1.8 11.2-5.3 15.1-10.5 1.1-1.5-1.1-2.8-2.4-1.8-4.7 3.8-9 7.9-12.9 12.6-1.2 1.5.7 3.5 2.1 2.1 6.1-6.2 12.8-11.6 20.1-16.3-.7-.6-1.5-1.1-2.2-1.7-1.2 5-3.3 9.4-6.5 13.4-1 1.2.3 3.4 1.8 2.4 4-2.7 8-5.4 12.1-8l-1.8-2.4c-2.6 3.1-5.4 5.7-8.6 8-1.4 1-.6 3.1 1.2 2.7 4.3-.9 8.2-2.4 11.9-4.7-.5-.9-1-1.7-1.5-2.6-3.8 2.7-7.7 4.3-12.3 5 .3 1 .5 1.9.8 2.9 14.4-3 29.5-7.7 40.2-18.3 9.4-9.3 14.7-22.8 11.5-35.9-.7.6-1.5 1.1-2.2 1.7 2 .6 2.9 2 2.9 4.3h3v-13.9c-1 .1-2 .3-2.9.4 2.5 13.9 4.9 33.2-10.6 40.6l2.1 2.1c5.4-9 9.1-18.6 10.9-28.9.3-1.5-2-2.8-2.7-1.2-2.8 6.4-5.6 13-10 18.4s-10.2 9-16.5 11.7c-11.1 4.6-23.1 6.9-33.2 13.7-.8.5-1.1 1.7-.3 2.4 3.1 2.8 7.9 2.1 9.7-1.7.8-1.6-1-2.9-2.4-1.8-2.8 2.3-5.6 4.6-8.3 6.9-1.3 1.1.4 3.4 1.8 2.4 15.2-11 26.7-25.9 33.5-43.3.6-1.5-1.5-2.4-2.5-1.5-7.4 7.2-13.9 15-19.6 23.5-1.1 1.6 1.5 3.1 2.6 1.5 6-8.8 12.4-17.2 19.3-25.3l-2.4-1.8c-4.9 8.1-9.8 16.2-14.8 24.3-.9 1.4 1.3 3.2 2.4 1.8 7-8.6 14-17.2 21-25.7-.8-.5-1.7-1-2.5-1.5-2.9 7.9-6.7 15.4-11.4 22.4-1.1 1.6 1.5 3 2.6 1.5 7-9.2 14.3-18.1 21.8-26.9l-2.4-1.8c-5.7 8.4-11.3 16.7-17 25.1-.9 1.4 1.3 3.1 2.4 1.8 7.2-8.5 14.3-16.9 21.5-25.4l-2.4-1.8c-2.7 5.5-5.5 10.9-8.2 16.4-.9 1.7 1.6 3.2 2.6 1.5 3.8-6 7.5-12 11.3-18l-2.7-1.2c-2.3 7.6-6 14.7-11.3 20.7-5.4 6.1-14.2 13.5-22.8 9.2-.1.9-.2 1.8-.4 2.7 13-3.3 24.7-10.1 34-19.8 1.3-1.4-.7-3.5-2.1-2.1-8.2 7.9-17 15.2-26.4 21.7-1.6 1.1-.2 3.6 1.5 2.6 9.5-5.9 18-13 25.4-21.3 1.3-1.4-.8-3.5-2.1-2.1-4.1 4.4-8.5 8.4-13.4 12-1.5 1.1 0 3.7 1.5 2.6 5-3.7 9.7-7.8 14-12.5l-2.1-2.1c-7.3 8.2-15.5 15.1-24.8 20.8.5.9 1 1.7 1.5 2.6 9.6-6.6 18.6-14 27-22.1l-2.1-2.1c-9 9.3-20.2 15.8-32.7 19-1.2.3-1.5 2.2-.4 2.7 18.1 9.1 34.2-17.8 38.4-31.7.5-1.7-1.9-2.6-2.7-1.2-3.8 6-7.5 12-11.3 18 .9.5 1.7 1 2.6 1.5 2.7-5.5 5.5-10.9 8.2-16.4.7-1.4-1.2-3.2-2.4-1.8-7.2 8.5-14.3 16.9-21.5 25.4l2.4 1.8c5.7-8.4 11.3-16.7 17-25.1.9-1.4-1.2-3.1-2.4-1.8-7.7 8.9-15.1 18.1-22.3 27.5.9.5 1.7 1 2.6 1.5 4.9-7.2 8.8-14.9 11.7-23.1.5-1.4-1.6-2.6-2.5-1.5-7 8.6-14 17.2-21 25.7l2.4 1.8c4.9-8.1 9.8-16.2 14.8-24.3.9-1.4-1.2-3.1-2.4-1.8-7 8.3-13.6 16.9-19.8 25.9.9.5 1.7 1 2.6 1.5 5.6-8.3 11.9-16 19.1-22.9-.8-.5-1.7-1-2.5-1.5-6.5 16.7-17.6 31-32.1 41.6l1.8 2.4c2.8-2.3 5.6-4.6 8.3-6.9l-2.4-1.8c-1.2 2.2-2.8 2.6-5 1.1l-.3 2.4c11.1-7.5 24.5-9.4 36.4-15.2 12.7-6.2 18.9-17.2 24.4-29.7l-2.7-1.2c-1.8 10-5.4 19.5-10.6 28.2-.8 1.4.8 2.7 2.1 2.1 16.8-8.1 14.7-28.8 12-44-.3-1.7-3-1.3-2.9.4v13.9c0 1.9 3 1.9 3 0 0-3.2-1.4-5.6-4.3-6.9-1.2-.5-2.5.3-2.2 1.7 3.2 13.1-3 26.5-12.9 35.1-10.2 8.8-23.7 12.8-36.7 15.5-1.9.4-1.1 3.2.8 2.9 4.8-.7 9.1-2.5 13-5.3 1.5-1.1.2-3.6-1.5-2.6-3.6 2.2-7.1 3.6-11.2 4.4l1.2 2.7c3.5-2.5 6.5-5.2 9.2-8.5 1-1.2-.3-3.4-1.8-2.4-4 2.7-8 5.4-12.1 8l1.8 2.4c3.5-4.4 5.9-9.2 7.2-14.7.3-1.2-1.1-2.4-2.2-1.7-7.5 4.8-14.4 10.4-20.7 16.8l2.1 2.1c3.9-4.6 8.2-8.8 12.9-12.6l-2.4-1.8c-3.4 4.5-7.9 7.5-13.3 9.1-1.6.5-1.3 2.9.4 2.9l17.7.6c1.9.1 1.9-2.9 0-3-2.5-.1-5-.3-7.4-.4.3.9.5 1.9.8 2.8 4.2-1.9 8.5-2.6 13.1-2.4-.1-1-.3-2-.4-2.9-12.8 2.6-25.4 6-37.8 10.2-1.8.6-1.1 3.3.8 2.9 21.4-4.6 42.3-11.6 62.1-21 7.9-3.7 14.5-7 17.4-15.7 3.4-10.4 4.8-21.8 5.3-32.7.1-1.2-1.7-2.1-2.6-1.1-8.2 9.8-17.9 17.8-29.1 24.1l1.8 2.4c4-3.4 8.4-5.9 13.4-7.8 1.8-.7 1.1-3.5-.8-2.9-10.5 3.2-20.4 7.8-29.7 13.7-1.2.7-.8 2.9.8 2.8 6.8-.5 13.1-2.5 18.8-6.2 1.4-.9.5-3.1-1.2-2.7-6.3 1.5-11.8 4.2-16.8 8.3-1.1.9-.1 2.5 1.1 2.6 5.3.4 10.3-.1 15.3-1.7l-1.2-2.7c-5.2 3.1-10.6 5.6-16.3 7.5.3 1 .5 1.9.8 2.9 4.3-1.5 8.5-2.9 12.8-4.4-.5-.8-1-1.7-1.5-2.5-7.1 6.5-15.9 10.1-25.6 10.4.3.9.5 1.9.8 2.8 7-3.3 13.2-7.6 18.7-13.2.8-.8.3-2.7-1.1-2.6-6.5.8-12.7 2.2-18.8 4.4-1.9.7-1.1 3.2.8 2.9 6-.9 11.7-2.6 17.2-5.1 1.6-.8.4-3-1.2-2.7-4.9.9-9.3 2.5-13.6 4.9-1.3.8-.7 2.7.8 2.8 6 .3 11.6-1 16.8-3.9 1.5-.8.5-3.2-1.2-2.7-4.7 1.2-8.7 3.4-12.4 6.5-1 .8-.2 2.7 1.1 2.6 4.7-.4 9.4-.6 14.1-.5-.5-.6-1-1.3-1.4-1.9-3.1 7.5-10.8 10.9-18 13.3-7.9 2.6-16 4.8-24 7-8.4 2.3-16.8 4.4-25.3 6.4-4.4 1-8.8 2-13.2 2.9-1.8.4-13 3.6-13.6 2.6-.1.6-.2 1.2-.2 1.8l.3-.3c-.6.1-1.2.2-1.8.2.2.1.3.2.5.3l-.3-2.4-.2.2h2.1c-12.2-10.3-23.3-21.8-33.3-34.2-1.4-2-3.5.2-2.3 1.7z"/><path class="prefix__st3" d="M1109.9 791.6c-1.3.4-2.6.8-4 1.2.8 1.8 1.5 3.7 2.3 5.5 3.8-2.5 7.7-4.2 12.2-5.1 3.8-.8 2.2-6.6-1.6-5.8-4.9 1-9.5 2.9-13.6 5.7-2.7 1.8-1.1 6.5 2.3 5.5 1.3-.4 2.6-.8 4-1.2 3.7-1.1 2.1-6.9-1.6-5.8zM1114.2 821.8c3.5-1.5 6.6-3.5 9.5-6 2.9-2.6-1.4-6.8-4.2-4.2-2.5 2.2-5.3 3.8-8.3 5.1-1.5.6-1.8 2.8-1.1 4.1.9 1.5 2.6 1.6 4.1 1zM1168.9 748.4c9 24.1-4.6 47.4-18.7 66.3-2.3 3.1 2.9 6.1 5.2 3 15-20.1 28.9-45.3 19.3-70.9-1.4-3.6-7.2-2-5.8 1.6z"/><path class="prefix__st3" d="M1286.6 471.6c-11.5 39-28.7 76-44.7 113.3-16.2 37.9-32.4 75.8-48.7 113.7-9.2 21.4-18.3 42.8-27.5 64.2-.8 1.8 1.8 3.3 2.6 1.5 32.5-76 65.5-151.8 97.5-228 8.8-20.9 17.1-42.1 23.6-63.9.7-1.9-2.2-2.7-2.8-.8z"/><path class="prefix__st3" d="M1289 472.1c8.1 2 5.1 11.6 3 16.9l-6.6 16.5c-4.1 10.1-8.1 20.1-12.2 30.2-8.3 20.4-16.6 40.8-25 61.2-16.5 40.2-33.2 80.3-50 120.3-9.9 23.5-19.9 47-29.9 70.5-.7 1.8 1.8 3.3 2.6 1.5 37-86.6 73.2-173.6 108.5-260.9 4.9-12.2 9.9-24.4 14.8-36.6 2.9-7.3 6.6-19.8-4.3-22.5-2-.5-2.8 2.4-.9 2.9z"/><path class="prefix__st3" d="M1291.3 473.9c-13.4 40.3-28.3 80-44.6 119.2-16.3 39-34.5 77.2-51.5 116-9.3 21.1-18.2 42.3-26.2 63.9-.6 1.6 2.1 2.7 2.7 1.2 10.7-24.4 21.4-48.7 32.1-73.1 5.2-11.7 10.4-23.5 15.5-35.2 4.8-11 9.2-22.1 11.6-33.9.3-1.5-2-2.8-2.7-1.2-17.1 39.5-34.3 79-51.4 118.5l2.7 1.2c19.3-62.5 39.4-124.3 72.5-181.1 9.7-16.7 17.8-34.1 25.3-51.8l-2.7-1.2c-16.4 42.6-34.5 84.5-54.4 125.5.9.5 1.7 1 2.6 1.5 7.1-16.7 14.2-33.3 21.2-50l-2.7-1.2c-11.5 35.4-24.2 70.5-38.2 105 1 .3 1.9.5 2.9.8 4.9-19 10-38 16.2-56.6 6.2-18.7 14.1-36.7 22.7-54.4 17.1-35.2 32.1-71.1 46.5-107.5.7-1.8-2.2-2.6-2.9-.8-14.8 37.3-30.5 74-47.9 110.1-16.8 34.8-27.8 71-37.5 108.3-.5 1.9 2.2 2.5 2.9.8 14-34.5 26.7-69.6 38.2-105 .5-1.6-2.1-2.7-2.7-1.2-7.1 16.7-14.2 33.3-21.2 50-.7 1.7 1.7 3.3 2.6 1.5 20-41.3 38.3-83.4 54.7-126.3.6-1.6-2.1-2.7-2.7-1.2-6.7 15.7-13.5 31.2-22 46.1-8.3 14.6-16.7 29.1-24 44.2-13.9 28.9-25.1 59.1-35.2 89.6-5.9 17.8-11.5 35.8-17 53.7-.5 1.6 2.1 2.7 2.7 1.2 17.1-39.5 34.3-79 51.4-118.5l-2.7-1.2c-2.4 12.2-7.1 23.6-12 34.9l-15.6 35.4c-10.4 23.8-20.9 47.5-31.3 71.3l2.7 1.2c14.8-39.5 32.4-77.8 49.8-116.2 17.2-37.9 33.7-76.1 48.5-115 8.5-22.4 16.5-45 24.1-67.7.5-1.8-2.4-2.6-3-.8z"/><path class="prefix__st3" d="M1139.4 487.3c32.7 27.9 66.7 56.5 108.5 69.3.3-1 .5-1.9.8-2.9-21.3-5.1-42.6-11.5-59.3-26.3-17.1-15.2-32.5-32.7-48.4-49l-2.1 2.1c32.3 32.7 71.5 58 114.5 74 .3-1 .5-1.9.8-2.9-22-4.6-40.8-17-58.5-30.2-19-14.3-37-29.9-53.9-46.6l-2.1 2.1c35.5 29.2 71.7 58.8 115 75.6 1.6.6 2.6-1.9 1.2-2.7-39.6-21.5-76.8-47.2-110.9-76.8l-2.1 2.1c36 29.2 75 54.5 116.4 75.3.5-.9 1-1.7 1.5-2.6-41.9-20.1-77.6-50.1-112.9-79.9l-1.8 2.4c35.2 23.7 70.4 47.5 105.6 71.2l1.2-2.7c-39.7-14.6-71.7-43.2-102.1-71.7l-2.1 2.1c16.9 14.1 33.9 28.3 52 40.9 17.2 12 36.8 25.3 57.9 29 1.6.3 2.8-1.9 1.2-2.7-37.9-20-76.3-40.6-106.3-71.8l-1.8 2.4c34.1 25.9 68.5 51.9 107.1 70.8 1.7.8 3.2-1.6 1.5-2.6-38.5-22.5-77.3-45.4-109.3-76.9l-2.1 2.1c34.4 29.2 72.2 54.2 112.6 74.3 1.7.9 3.2-1.6 1.5-2.6-36.9-22.1-76.3-42.8-106.5-74l-2.1 2.1c33.8 28.5 74.1 48.9 112.3 70.8.5-.9 1-1.7 1.5-2.6-40.1-20.8-77.9-45.9-112.6-74.8-1.5-1.2-3.6.9-2.1 2.1 27.6 23.1 57.7 43 89.9 59.2 1.7.9 3.2-1.7 1.5-2.6-31.9-16.1-61.9-35.7-89.3-58.7l-2.1 2.1c34.9 29.1 72.8 54.4 113.2 75.3 1.7.9 3.2-1.6 1.5-2.6-37.9-21.8-78.1-42-111.6-70.4-1.5-1.2-3.5.7-2.1 2.1 30.4 31.4 70 52.2 107.1 74.4.5-.9 1-1.7 1.5-2.6-40.2-20-77.8-44.7-112-73.8-1.5-1.2-3.5.7-2.1 2.1 32.1 31.7 71.2 54.8 109.9 77.4.5-.9 1-1.7 1.5-2.6-38.6-18.9-73-44.9-107.1-70.8-1.4-1.1-3 1.2-1.8 2.4 30.1 31.4 68.8 52.1 106.9 72.3l1.2-2.7c-20.8-3.6-40.1-16.9-57.2-28.7-17.9-12.4-34.7-26.4-51.4-40.4-1.5-1.2-3.6.8-2.1 2.1 30.8 28.9 63.2 57.7 103.5 72.5 1.7.6 2.5-1.8 1.2-2.7-35.2-23.7-70.4-47.5-105.6-71.2-1.4-.9-3.1 1.3-1.8 2.4 35.4 29.9 71.4 60.1 113.5 80.4 1.7.8 3.2-1.7 1.5-2.6-41.2-20.7-80-45.8-115.8-74.8-1.5-1.2-3.6.8-2.1 2.1 34.3 29.7 71.7 55.6 111.5 77.2l1.2-2.7c-42.8-16.6-78.6-45.9-113.7-74.8-1.5-1.2-3.5.7-2.1 2.1 17.1 16.9 35.3 32.7 54.5 47.1 17.9 13.4 37 25.9 59.3 30.5 1.9.4 2.6-2.2.8-2.9-42.6-15.8-81.3-40.9-113.2-73.3-1.4-1.4-3.5.7-2.1 2.1 8.6 8.8 17.2 17.6 25.7 26.3 8.3 8.5 16.2 17.4 25.4 25 16.6 13.7 37.4 19.8 58 24.8 1.9.5 2.6-2.3.8-2.9-41.3-12.7-74.9-41-107.2-68.6-2.1-1.3-4.3.9-2.8 2.1z"/><path class="prefix__st3" d="M1153.3 452.9c34.7 26.1 70.1 51.6 109.7 69.7 1.7.8 3.2-1.6 1.5-2.6-36.8-22-71.8-46.7-105-73.9-1.5-1.2-3.5.8-2.1 2.1 31.2 30 70.1 49.8 108.5 69.1 1.7.9 3.2-1.6 1.5-2.6-18.7-11.6-37.3-23.5-55.6-35.7-8.9-5.9-17.8-11.9-26.6-17.9-8.7-6-17.8-11.7-24.8-19.6l-1.8 2.4c37.1 24.9 74.8 49 113.1 72.2 1.4.9 3.2-1.3 1.8-2.4-35.2-27.3-72-52.5-108.7-77.6-1.4-1-3.1 1.2-1.8 2.4 1.1 1 2.3 2 3.4 2.9.4-.9.7-1.7 1.1-2.6-1.7-.1-3.4-.3-5.1-.4-1.6-.1-1.8 2-.8 2.8 35 25.9 72 48.8 110.8 68.6 1.5.8 3-1.1 1.8-2.4-29.3-32.4-73.5-44.5-105.3-73.7l-1.8 2.4c33.2 23.9 62.7 55.2 102.8 67.3 1.6.5 2.7-2 1.2-2.7-37.5-18.4-76-37.6-103.7-69.7-.5.8-1 1.7-1.5 2.5 4.1 1.5 7.8 3.4 11.4 5.9.5-.9 1-1.7 1.5-2.6-3.4-1.7-6.4-3.8-9.1-6.4l-1.8 2.4c34 24.4 69.3 47 105.6 67.8 1.4.8 3.2-1.3 1.8-2.4-32.5-25.8-67.1-48.7-103.4-68.6-1.7-.9-3.1 1.5-1.5 2.6 17.5 12 35 24 52.5 35.9 1.4.9 3.2-1.3 1.8-2.4-18.5-14.4-37-28.7-55.4-43.1l-1.8 2.4c18.3 11.8 36.6 23.7 54.8 35.5 17.5 11.3 36.2 21.9 51.5 36.2l1.8-2.4c-2.5-1.2-4.2-2.8-5.5-5.3l-2.1 2.1c3.9 1.8 8 .7 10.7-2.6 3.7-4.4 2.8-10.5 2-15.7-.2-1.6-2.4-1.2-2.9 0l-5.1 13.8c1 .1 2 .3 2.9.4.1-3.7.1-7.4.2-11.1 0-1.9-2.9-1.9-3 0-.2 4.4-.4 8.8-.6 13.1.8-.4 1.5-.9 2.3-1.3-6.6-5-13.6-9.3-21.1-12.9-1.8-.8-3.1 1.5-1.5 2.6 6.1 4.4 12.8 7.4 20.1 9.3 1.7.4 2.5-1.8 1.2-2.7l-14.1-10.5c-.5.9-1 1.7-1.5 2.6 4.6 2 9.2 3.9 13.8 5.9 1.8.8 3.1-1.4 1.5-2.6l-13.2-9.6c-.5.9-1 1.7-1.5 2.6 4.7 2.5 9.6 4.2 14.9 5.1 1.3.2 2.8-1.5 1.5-2.5-2.9-2.3-5.8-4.6-8.8-6.9-.5.8-1 1.7-1.5 2.5 2.3.7 4.7 1.3 7 2 1.7.5 2.5-1.8 1.2-2.7-6.4-4.7-13.5-7.6-21.3-8.9-1.5-.2-2.8 2-1.2 2.7 9.2 4.2 18.3 8.3 27.5 12.5 1.7.8 3.3-1.7 1.5-2.6-2.5-1.2-4.4-2.7-6.3-4.7-.3-.4-1-.5-1.5-.4-5.9 1.9-11.4 4.5-16.5 7.9.8.4 1.5.9 2.3 1.3-.3-3.5 0-6.7 1.1-10 .5-1.7-1.8-2.4-2.7-1.2-1.8 2.4-3.3 4.9-4.7 7.6l2.7 1.2c1.1-3 1.7-5.9 2.1-9 .2-1.6-2.1-1.9-2.8-.8-1.3 2-2.6 4-3.8 6.1.9.3 1.9.5 2.8.8l-.3-7.8c-.1-1.4-2.1-2.2-2.8-.8-1.1 2.3-2.2 4.5-3.3 6.8l2.7 1.2c.9-3 1.4-5.9 1.6-9 .1-1.7-2.5-2-2.9-.4-.9 2.9-1.9 5.9-2.8 8.8 1 .3 1.9.5 2.9.8 1-3.8 1-7.3.1-11.1-.3-1.3-2.1-1.4-2.7-.4-1.1 1.7-2.2 3.4-3.3 5l2.7 1.2c.3-2.4.7-4.7 1-7.1.2-1.3-1.4-2.7-2.5-1.5-1.6 1.8-2.3 3.4-2.1 5.9.9-.3 1.9-.5 2.8-.8-.7-1.7-1.4-3.4-2.1-5-.4-.9-1.7-.9-2.4-.3-5.4 5.1-17.2-5.4-21.7-8.3-6.9-4.4-13.8-8.7-20.6-13.1-6.6-4.2-13.4-8.2-19.8-12.6-2.4-.8-2.7-2.2-1.1-4.3.5.4.9.8 1.4 1.2 1.4.6 2.9 2.6 4.2 3.6 3.2 2.8 6.5 5.7 9.7 8.5 1.4 1.3 3.6-.8 2.1-2.1-4.6-4-9.2-8.1-13.9-12.1-2.1-1.8-4.4-4.1-7.1-2-7.4 6 9.9 14 13 16l33 21c5.8 3.7 16.1 12.7 22.9 6.2l-2.4-.3c.7 1.7 1.4 3.4 2.1 5 .6 1.4 2.9.7 2.8-.8.4-1.3.8-2.5 1.2-3.8-.8-.5-1.7-1-2.5-1.5-.3 2.4-.7 4.7-1 7.1-.2 1.6 1.8 2.7 2.7 1.2 1.1-1.7 2.2-3.4 3.3-5-.9-.1-1.8-.2-2.7-.4.8 3.3.7 6.3-.1 9.5-.5 1.9 2.3 2.6 2.9.8.9-2.9 1.9-5.9 2.8-8.8-1-.1-2-.3-2.9-.4-.2 2.8-.7 5.5-1.5 8.2-.5 1.6 2 2.7 2.7 1.2 1.1-2.3 2.2-4.5 3.3-6.8-.9-.3-1.9-.5-2.8-.8l.3 7.8c.1 1.5 2 2 2.8.8 1.3-2 2.6-4 3.8-6.1-.9-.3-1.9-.5-2.8-.8-.3 2.9-1 5.5-2 8.2-.6 1.6 2 2.7 2.7 1.2 1.3-2.7 2.9-5.2 4.7-7.6l-2.7-1.2c-1.1 3.7-1.5 7-1.2 10.8.1 1.1 1.2 2 2.3 1.3 3.7-2.4 8.1-5.2 12.4-6.4 3.7-1 5.5 2 8.9 3.6.5-.9 1-1.7 1.5-2.6-9.2-4.2-18.3-8.3-27.5-12.5l-1.2 2.7c7.6 1.2 14.4 4.1 20.6 8.5l1.2-2.7c-2.3-.7-4.7-1.3-7-2-1.3-.4-2.7 1.5-1.5 2.5 2.9 2.3 5.8 4.6 8.8 6.9.5-.8 1-1.7 1.5-2.5-5-.9-9.7-2.5-14.2-4.8-1.7-.9-3.1 1.5-1.5 2.6l13.2 9.6c.5-.9 1-1.7 1.5-2.6-4.6-2-9.2-3.9-13.8-5.9-1.8-.8-3.1 1.4-1.5 2.6l14.1 10.5 1.2-2.7c-7.1-1.8-13.5-4.7-19.4-9-.5.9-1 1.7-1.5 2.6 7.5 3.6 14.5 7.8 21.1 12.9 1 .7 2.2-.3 2.3-1.3.2-4.4.4-8.8.6-13.1h-3c-.1 3.7-.1 7.4-.2 11.1 0 1.8 2.4 1.9 2.9.4l5.1-13.8h-2.9c.4 2.9.9 5.9.4 8.7-.8 3.8-4.1 8.3-8.7 6.2-1.3-.6-2.8.7-2.1 2.1 1.5 2.9 3.6 4.9 6.6 6.3 1.5.7 3.1-1.1 1.8-2.4-15-14.1-33.2-24.5-50.4-35.6-18.8-12.2-37.7-24.4-56.5-36.6-1.4-.9-3.2 1.3-1.8 2.4 18.5 14.4 37 28.7 55.4 43.1l1.8-2.4c-17.5-12-35-24-52.5-35.9-.5.9-1 1.7-1.5 2.6 36.1 19.8 70.6 42.5 102.8 68.2l1.8-2.4c-36.4-20.8-71.6-43.4-105.6-67.8-1.4-1-3 1.2-1.8 2.4 2.9 2.8 6.1 5 9.7 6.8 1.7.9 3.1-1.5 1.5-2.6-3.8-2.6-7.8-4.6-12.1-6.2-1.5-.5-2.4 1.5-1.5 2.5 27.9 32.3 66.6 51.7 104.3 70.2l1.2-2.7c-39.8-12-69.1-43.3-102.1-67-1.4-1-3.1 1.2-1.8 2.4 31.8 29.2 76.1 41.3 105.3 73.7l1.8-2.4c-38.8-19.8-75.8-42.7-110.8-68.6-.3.9-.5 1.9-.8 2.8 1.7.1 3.4.3 5.1.4 1.3.1 2-1.7 1.1-2.6-1.1-1-2.3-2-3.4-2.9l-1.8 2.4c36.5 25 73.1 50 108.1 77.2l1.8-2.4c-38.2-23.2-75.9-47.3-113.1-72.2-1.5-1-2.9 1.1-1.8 2.4 6.4 7.2 14.4 12.5 22.2 17.9 9.3 6.4 18.7 12.8 28.2 19.1 18.9 12.6 38 24.8 57.3 36.8.5-.9 1-1.7 1.5-2.6-38.1-19.1-76.8-38.8-107.9-68.6l-2.1 2.1c33.3 27.4 68.6 52.2 105.6 74.4.5-.9 1-1.7 1.5-2.6-39.6-18.2-75-43.7-109.7-69.7-1.7-1.1-3.2 1.5-1.6 2.7z"/><path class="prefix__st3" d="M1166.8 429.6c28 8.7 54.4 21.8 78.2 38.8l1.2-2.7c-7.1-1.2-12.8-5.3-18.4-9.7-5.4-4.2-10.7-8.4-16-12.6-10.9-8.6-21.9-17.1-32.8-25.7l-1.8 2.4c20.6 14.9 41.9 28.7 64 41.4 1.7 1 3.1-1.5 1.5-2.6-11.3-7.8-22.7-15.5-34-23.3l-16.2-11.1c-5.1-3.5-16-8.9-13.8-16.5-.7.3-1.5.6-2.2.9 34.6 24.5 71.9 44.9 111.2 60.9.3-1 .5-1.9.8-2.9-22.4-8.6-44.8-17.2-67.3-25.7-1.7-.6-2.5 1.9-1.2 2.7 20.9 13.8 47 15.3 68.3 28.2 1.7 1 3.2-1.6 1.5-2.6-21.3-12.9-47.5-14.4-68.3-28.2l-1.2 2.7c22.4 8.6 44.8 17.2 67.3 25.7 1.8.7 2.6-2.2.8-2.9-39-15.9-76.1-36.3-110.5-60.6-.8-.6-2 0-2.2.9-1.4 5 1.2 9.1 4.9 12.5 5.5 5 12.3 8.8 18.4 13 14 9.6 28.1 19.2 42.1 28.8.5-.9 1-1.7 1.5-2.6-22.1-12.7-43.4-26.5-64-41.4-1.4-1-3.2 1.3-1.8 2.4 12 9.4 23.9 18.7 35.9 28.1 9.7 7.6 20.1 18.5 32.7 20.6 1.7.3 2.6-1.7 1.2-2.7-24.1-17.2-50.7-30.3-79-39.1-1.8-.5-2.6 2.4-.8 2.9zM1151.3 483.6c-30 54.1-33.1 117.4-54.9 174.5-6.2 16.2-14.1 31.6-24.3 45.7 1.8.8 3.7 1.5 5.5 2.3 4.9-15.8 9.9-31.6 14.8-47.4 1-3.2-4-5.4-5.5-2.3-6.8 14.3-8.7 30-5.4 45.5.6 2.9 5.1 2.8 5.8 0 6.6-29.3 13.2-58.7 19.7-88 .8-3.8-4.6-5.3-5.8-1.6-6.4 20.5-12.7 41-19.1 61.5 1.9.5 3.9 1.1 5.8 1.6 3-20.2 9.1-39.7 18.2-58-1.9-.5-3.7-1-5.6-1.5-1.8 13.5-4.5 26.8-8.2 39.9-1 3.8 4.5 5.2 5.8 1.6 21.5-60.4 42.9-120.8 64.4-181.1 1.2-3.3-3.7-5.1-5.5-2.3-16.6 26.8-30.1 55.2-40.6 84.9-1.3 3.7 4.4 5.2 5.8 1.6 10.2-26.9 20.4-53.9 30.5-80.8 1.2-3.2-4.1-5.4-5.5-2.3-12.6 27.5-23.6 55.6-32.9 84.3 1.9.5 3.9 1.1 5.8 1.6 4.4-27.7 13.3-54.4 26.7-79-1.8-.8-3.7-1.5-5.5-2.3-18.4 52.9-34 106.7-46.8 161.3 1.9.5 3.9 1.1 5.8 1.6 9.1-43 22.3-85 39.5-125.4-1.8-.8-3.7-1.5-5.5-2.3-13.3 41.4-26.7 82.9-40 124.3 1.9.5 3.9 1.1 5.8 1.6 8.2-33.4 18.4-66.3 30.6-98.4-1.9-.5-3.9-1.1-5.8-1.6-13.8 37.3-27.7 74.7-41.5 112 1.9.5 3.9 1.1 5.8 1.6 17.1-46.7 34.7-93.3 52.8-139.6 1.4-3.6-4.4-5.2-5.8-1.6-18.1 46.4-35.7 92.9-52.8 139.6-1.3 3.6 4.5 5.2 5.8 1.6 13.8-37.3 27.7-74.7 41.5-112 1.3-3.6-4.4-5.2-5.8-1.6-12.2 32.2-22.4 65-30.6 98.4-.9 3.8 4.6 5.3 5.8 1.6 13.3-41.4 26.7-82.9 40-124.3 1-3.2-4.1-5.5-5.5-2.3-17.4 40.9-30.9 83.3-40.1 126.8-.8 3.8 4.9 5.4 5.8 1.6 12.8-54.5 28.4-108.4 46.8-161.3 1.1-3.2-3.9-5.3-5.5-2.3-13.6 25.1-22.9 52.2-27.4 80.4-.6 3.7 4.6 5.3 5.8 1.6 9.2-28.2 20-55.9 32.3-82.9-1.8-.8-3.7-1.5-5.5-2.3-10.2 26.9-20.4 53.9-30.5 80.8 1.9.5 3.9 1.1 5.8 1.6 10.3-29.2 23.7-57.1 40-83.5-1.8-.8-3.7-1.5-5.5-2.3-21.5 60.4-42.9 120.8-64.4 181.1 1.9.5 3.9 1.1 5.8 1.6 3.8-13.6 6.5-27.4 8.4-41.4.4-3-4.3-4.1-5.6-1.5-9.3 18.8-15.7 38.7-18.8 59.4-.6 3.7 4.6 5.4 5.8 1.6 6.4-20.5 12.7-41 19.1-61.5-1.9-.5-3.9-1.1-5.8-1.6-6.6 29.3-13.2 58.7-19.7 88h5.8c-3-13.8-1.3-28.1 4.7-40.9-1.8-.8-3.7-1.5-5.5-2.3-4.9 15.8-9.9 31.6-14.8 47.4-1.1 3.5 3.6 4.9 5.5 2.3 36.4-50.3 41.1-114.2 59.1-171.8 5.2-16.7 11.6-33 20.2-48.4 2-3.4-3.2-6.5-5.1-3.1z"/><path class="prefix__st3" d="M1079.1 688.2c-5.1 10.9-15.9 16.6-26.6 21.1-10 4.2-20.2 7.9-30.1 12.5-19.1 8.9-37.3 20.8-47.7 39.6.9.5 1.7 1 2.6 1.5 13.4-26.3 41.9-41 68.9-49.7 29-9.4 61.6-11.1 88.7 4.7 13.6 7.9 24.7 19.6 30.6 34.2.7 1.8 3.6 1 2.9-.8-10.6-26.2-36.5-43.1-63.9-47.2-32.4-4.8-67.3 5.5-95 22.1-14.4 8.6-27.1 20-34.8 35.1-.9 1.7 1.7 3.2 2.6 1.5 11.2-20.3 31.6-32.1 52.2-41.1 17.8-7.8 43.2-12.8 52.3-32.1.7-1.7-1.9-3.2-2.7-1.4z"/><path d="M1112.9 716.7c11.3 5.9 17.1 22.9 13.9 35.6-4.5 18-26.7 25.2-42.5 30.4-22.4 7.3-61.6 13-66.8.9-8.2-18.8 64.8-82.9 95.4-66.9z" opacity=".23" fill="#6d6c6c"/></g><g id="prefix__leg_r"><path class="prefix__st3" d="M826.1 983.7c1.9 8.4-3.2 10.6-6.1 25-1.9 9.5.1 10.2 0 39.9 0 15.9-.6 18.9-2.7 22.3-3.5 5.6-7.8 6.5-21.6 14.2-14.7 8.2-12.9 8.8-22.3 13.5-7.4 3.8-30.1 15.2-35.2 9.5-4.4-5 6.1-21.1 16.2-36.5 9.2-14.1 18.1-24.8 24.3-31.8-2.4-8.8-5.5-25.5.7-43.9 2.4-7.2 10.2-30.7 25-31.1 9.6-.3 19.5 9.2 21.7 18.9z"/><path class="prefix__st4" d="M992.4 624.8c-27 11.7-44.5 27.1-50.6 32.6-22.7 20.4-50.3 50.4-91.6 117-35.6 57.5-56 90.8-69.9 142.3-7.3 27-10.5 50.1-12.1 66.3 5.9 2.6 12.7 5.2 20.5 7.2 17.7 4.6 33.3 4.6 44.6 3.6 2.7-19.5 8.6-50.3 22.9-85.6 9.3-23 39.2-94.5 108.5-151.9 31.1-25.7 49.9-31.9 72.3-63.9 15.5-22.1 37.1-62.9 24.1-77.2-13.1-14.5-55.8 4-68.7 9.6z"/><path class="prefix__st7" d="M991.4 703.7c-31.5 25.5-55.6 49.2-72.4 67.2-39 41.6-80.2 86.4-104.6 155.1-9.5 26.8-14 50.1-16.2 66.1 11 .4 22.1.8 33.1 1.2 5-29.4 15.2-70.1 37.4-114.7 20.6-41.3 44.6-72.1 63.8-93.3 19.7-27.2 39.3-54.4 58.9-81.6z"/></g><g id="prefix__leg_l"><path class="prefix__st3" d="M941.7 982.3c-.2 5.7 6.6 13.3 20.3 28.4 6.2 6.8 11.1 11.5 10.8 18.3-.1 3.7-1.7 5.9-5.4 11.5 0 0-3.2 4.8-15.5 25-8.1 13.1-12 19.8-10.1 24.3 2.3 5.6 10.6 7.8 16.2 8.1 11.1.6 18.1-6.1 43.9-29.1 25-22.1 27.7-24 28.4-29.7 1.5-11.4-8-14.9-23.7-41.9-14.2-24.4-12.9-32.7-22.3-36.5-16.3-6.7-42.2 8.8-42.6 21.6z"/><path class="prefix__st4" d="M1125.4 624.6c3.3 12.2 6.4 30.8 2 52-2.3 11.2-9.1 32.9-47 72.3-50.9 52.9-75.5 50-90.4 86.8-9 22.1-8.7 44.2-8.4 59.1.4 29.3 7.5 52.7 13.3 67.5-5.2 5.7-14.2 14.2-27.7 20.5-7.5 3.5-18.6 8.7-27.7 7.2-21.9-3.5-35-44.9-38.6-73.5-8.2-64.6 24.8-119 43.4-149.5 6.8-11.1 1.3-.6 60.3-78.4 20.8-27.4 29.1-39.3 45.8-49.4 27.1-16.5 56.6-16.4 75-14.6z"/><path d="M995.8 699.7v-3c-1 .1-2 .3-2.9.4.6 2.3 1.3 4.7 1.9 7 .5 1.7 2.8 1.2 2.9-.4.4-3.3.5-6.6.3-10h-3c.2 2.7.7 5.1 1.6 7.6.6 1.6 2.8 1.3 2.9-.4.3-3.6.4-7.2.2-10.8-1 .1-2 .3-2.9.4.5 2.8 1.1 5.5 1.6 8.3.3 1.4 2.6 1.4 2.9 0 .7-3.7 1-7.3.7-11-1 .1-2 .3-2.9.4l2.4 7.5c.5 1.6 2.9 1.3 2.9-.4.1-3.7.3-7.3.4-11-1 .1-2 .3-2.9.4.4 2.4.8 4.8 1.1 7.2.3 1.7 3 1.3 2.9-.4-.2-3.4 0-6.6.5-10h-2.9c.7 3 1.5 6 2.2 9 .4 1.7 2.9 1.3 2.9-.4l.3-11.6c-1 .1-2 .3-2.9.4.6 2.5 1.2 5 1.8 7.6.4 1.6 3 1.3 2.9-.4-.2-3.8.1-7.5.9-11.2h-2.9c.6 3.2 1.1 6.5 1.7 9.7.3 1.4 2.6 1.4 2.9 0 .8-4.3 1.2-8.5 1.2-12.9-1 .1-2 .3-2.9.4.6 2.6 1.4 5.2 2.3 7.8.5 1.6 2.9 1.3 2.9-.4.2-3.9.4-7.8.6-11.6h-3c.3 3.1.6 6.2 1 9.3.2 1.9 3.1 2 3 0-.2-3.9.2-7.6 1.3-11.4-1-.1-2-.3-2.9-.4l1.2 10.2c.2 1.5 2.7 2.2 2.9.4.6-4 .9-7.9.8-11.9h-3c.3 2.6.5 5.1.4 7.7h3c-.2-3.7-.1-7.3.5-11h-2.9c1 2.6 1.5 5.2 1.4 8 0 1.9 2.9 1.9 3 0 .1-3.2.2-6.4.4-9.5-1 .1-2 .3-2.9.4.8 2.2 1.2 4 1.4 6.4.1 1.9 2.9 1.9 3 0 .1-2.9.3-5.8.4-8.8-.9.3-1.9.5-2.8.8 1 1.6 1.7 3.2 2.1 5.1.4 1.7 2.9 1.2 2.9-.4.1-2.2.2-4.5.4-6.7-1 .1-2 .3-2.9.4.5 1.4 1 2.9 1.5 4.3s2.5 1.5 2.9 0c1-3.4 2.6-3.5 5.4-5.2 1.6-1 .1-3.6-1.5-2.6-1.4.9-4 1.3-5.1 2.4-1.1 1.1-1.2 3.2-1.6 4.6h2.9c-.5-1.4-1-2.9-1.5-4.3-.6-1.6-2.9-1.3-2.9.4-.1 2.2-.2 4.5-.4 6.7 1-.1 2-.3 2.9-.4-.5-2.2-1.2-3.9-2.4-5.8-.8-1.3-2.7-.7-2.8.8-.1 2.9-.3 5.8-.4 8.8h3c-.2-2.5-.7-4.8-1.5-7.2-.6-1.6-2.9-1.3-2.9.4-.1 3.2-.2 6.4-.4 9.5h3c.1-3.1-.4-5.8-1.5-8.8-.5-1.2-2.7-1.6-2.9 0-.6 4-.8 7.8-.6 11.8.1 1.9 2.9 1.9 3 0 .1-2.6 0-5.1-.4-7.7-.2-1.9-3.1-2-3 0 .1 3.8-.1 7.4-.7 11.1 1 .1 2 .3 2.9.4l-1.2-10.2c-.2-1.6-2.4-2.1-2.9-.4-1.2 4-1.6 8-1.4 12.2h3c-.3-3.1-.6-6.2-1-9.3-.2-1.9-2.9-2-3 0-.2 3.9-.4 7.8-.6 11.6 1-.1 2-.3 2.9-.4-.9-2.6-1.6-5.1-2.3-7.8-.4-1.6-3-1.3-2.9.4 0 4.1-.3 8-1.1 12.1h2.9c-.6-3.2-1.1-6.5-1.7-9.7-.3-1.5-2.6-1.4-2.9 0-.8 4-1.2 7.9-1 12 1-.1 2-.3 2.9-.4-.6-2.5-1.2-5-1.8-7.6-.4-1.7-2.9-1.3-2.9.4l-.3 11.6c1-.1 2-.3 2.9-.4-.7-3-1.5-6-2.2-9-.3-1.4-2.6-1.5-2.9 0-.6 3.6-.8 7.1-.7 10.8 1-.1 2-.3 2.9-.4-.4-2.4-.8-4.8-1.1-7.2-.3-1.7-2.9-1.2-2.9.4-.1 3.7-.3 7.3-.4 11 1-.1 2-.3 2.9-.4l-2.4-7.5c-.5-1.5-3.1-1.4-2.9.4.3 3.5.1 6.8-.6 10.2h2.9c-.5-2.8-1.1-5.5-1.6-8.3-.3-1.7-3-1.3-2.9.4.2 3.6.1 7.2-.2 10.8 1-.1 2-.3 2.9-.4-.8-2.3-1.3-4.3-1.5-6.8-.2-1.9-3.1-1.9-3 0 .2 3.4.1 6.7-.3 10 1-.1 2-.3 2.9-.4-.6-2.3-1.3-4.7-1.9-7-.4-1.6-2.9-1.3-2.9.4v3c0 1.8 3 1.8 3-.1z" fill="#fff"/><path class="prefix__st9" d="M1085.5 645c-6.1 10.9-15.6 27.1-28.7 45.8-43.5 62.2-66.9 66.9-88.8 111.3-3.8 7.7-20.3 42.5-21.2 90.8-.7 40.7 10.1 72.7 17.8 90.8 9.8-6.8 19.6-13.7 29.4-20.5-3-11.3-17.9-69-9.6-111.3 3.3-16.7 9.4-26.9 10.9-29.4 10.5-16.9 24.7-25.4 30.1-28.7 7.5-4.6 92.7-57.3 102.5-121.6 1.3-8.4 1.9-21.4-2.7-38.3-5.3 2.2-11.2 4.3-17.8 6.1-8 2.5-15.4 4-21.9 5z"/><path d="M1107 639.1c-.2 13.1-2.1 32.8-12 53.2-19.9 41.1-53.4 47.4-82.4 88.2-10 14-22.2 36-28.6 68.7 2.9-10.3 8.7-25.1 21.2-38.4 6-6.4 11-9.7 21.2-17.2 0 0 14.9-11 40.1-31.5 17.3-14.1 54-44 61.3-88.2 2.6-15.5.9-29.5-1.7-40.6-6.5 1.9-12.8 3.8-19.1 5.8z" opacity=".34" fill="#6d6c6c"/></g><g id="prefix__table"><path class="prefix__st4" d="M525 743.6l396.4-1.2c-6.5-18.2-13.5-36.7-20.9-55.4-19.6-49.3-40.3-95.2-61.6-137.9l-203.1 1.2c-23 37.4-46.1 76.4-68.9 117-14.5 25.7-28.5 51.2-41.9 76.3z"/><path class="prefix__st3" d="M525.7 750.3c102.9-.1 205.8-.1 308.7-.2 29.2 0 58.4 0 87.6-.1 5.8 0 5.8-9 0-9-102.9.1-205.8.1-308.7.2-29.2 0-58.4 0-87.6.1-5.8 0-5.8 9 0 9z"/><path class="prefix__st3" d="M568.1 754.3c-.2 88.3-.5 176.6-.7 264.9-.1 25-.1 50-.2 75 0 9.7 15 9.7 15 0 .2-88.3.5-176.6.7-264.9.1-25 .1-50 .2-75 0-9.7-15-9.7-15 0zM640.4 754.3v156.5c0 9.7 15 9.7 15 0V754.3c0-9.7-15-9.7-15 0zM830.4 752.9v27.5c0 9.7 15 9.7 15 0v-27.5c0-9.6-15-9.6-15 0zM631.5 547.9L522.6 742.3c-1.9 3.4 3.3 6.4 5.2 3l108.9-194.4c1.8-3.3-3.3-6.4-5.2-3z"/><path class="prefix__st3" d="M634 553.5h208.6c3.9 0 3.9-6 0-6H634c-3.9 0-3.9 6 0 6z"/><path class="prefix__st3" d="M837 553c29.3 62.5 56.8 125.8 82.6 189.9 1.4 3.5 7.2 2 5.8-1.6-26-64.5-53.7-128.3-83.2-191.3-1.7-3.5-6.8-.5-5.2 3zM605.5 921.9h79c5.8 0 5.8-9 0-9h-79c-5.8 0-5.8 9 0 9zM715 919.8h16.9c5.8 0 5.8-9 0-9H715c-5.8 0-5.8 9 0 9zM380 924h101.1c5.8 0 5.8-9 0-9H380c-5.7 0-5.8 9 0 9zM507.5 921.9h19c5.8 0 5.8-9 0-9h-19c-5.8 0-5.8 9 0 9zM829.8 1110.5h170.7c5.8 0 5.8-9 0-9H829.8c-5.7 0-5.8 9 0 9zM1037.4 1108.4h55.8c5.8 0 5.8-9 0-9h-55.8c-5.8 0-5.8 9 0 9zM1136.4 1105.2c5.8 0 5.8-9 0-9s-5.8 9 0 9zM468.5 1105.2h120.1c5.8 0 5.8-9 0-9H468.5c-5.8 0-5.8 9 0 9zM620.2 1104.2h21.1c5.8 0 5.8-9 0-9h-21.1c-5.8 0-5.8 9 0 9z"/><path class="prefix__st11" d="M632.6 676.5l211.8 15.6-25.5-130.5c-45.4 12-90.9 24.1-136.3 36.1-16.6 26.2-33.3 52.5-50 78.8z"/><path d="M561 710.3c10.5-8 33.2 1.1 33.6 8.5.2 4.8-9.2 10-17.3 10.5-9.3.6-20.3-4.8-20.7-11.2-.2-4.2 3.9-7.4 4.4-7.8z" opacity=".17" fill="#6d6c6c"/><path class="prefix__st3" d="M883.7 751.5l.3 272.9c0 25.7 0 51.3.1 77 0 9.7 15 9.7 15 0l-.3-272.9c0-25.7 0-51.3-.1-77-.1-9.6-15.1-9.6-15 0z"/></g><g id="prefix__laptop"><path class="prefix__st4" d="M659.9 419.2c-31.7 41-63.3 82-95 123 22.6 44.4 45.2 88.9 67.9 133.3 20.8-40.7 41.5-81.4 62.3-122.2-11.8-44.7-23.5-89.4-35.2-134.1z"/><path d="M580.9 540.5c18.1 35.9 36.2 71.9 54.3 107.8 16.8-31.7 33.5-63.3 50.3-95-9.8-35.9-19.7-71.9-29.5-107.8-25.1 31.7-50.1 63.4-75.1 95z" fill="#fff" stroke="#161616" stroke-width="1.5" stroke-miterlimit="10"/><path class="prefix__st4" d="M695.5 554.5c40.5 1 81.1 1.9 121.6 2.9 1.2 37.7 2.4 75.3 3.6 113-62.1 1.9-124.2 3.8-186.4 5.8 20.4-40.6 40.8-81.2 61.2-121.7z"/><path class="prefix__st3" d="M596.8 548.5l14.4 30.9c.6 1.3 2.6.2 1.9-1.1l-14.4-30.9c-.6-1.3-2.5-.2-1.9 1.1zM621.9 600.4c2.2 4.5 4.4 9.1 6.5 13.6.6 1.3 2.6.2 1.9-1.1-2.2-4.5-4.4-9.1-6.5-13.6-.6-1.4-2.5-.2-1.9 1.1z"/><path class="prefix__st3" d="M613.7 578.4c13.1-15.6 25.4-31.7 36.9-48.4.8-1.2-1.1-2.3-1.9-1.1-11.4 16.6-23.6 32.5-36.6 48-1 1 .6 2.6 1.6 1.5zM598 547.7c14.1-15 27.9-30.2 41.5-45.5 1-1.1-.6-2.7-1.6-1.6-13.6 15.4-27.4 30.6-41.5 45.5-.9 1 .6 2.6 1.6 1.6z"/><path class="prefix__st3" d="M638.4 502.2c3.5 8.8 6.6 17.6 9.4 26.6.4 1.4 2.6.8 2.2-.6-2.8-9-5.9-17.9-9.4-26.6-.5-1.3-2.7-.7-2.2.6zM607.7 549.4c9.7-10.2 19.4-20.4 29.1-30.7 1-1.1-.6-2.6-1.6-1.6-9.7 10.2-19.4 20.4-29.1 30.7-1 1.1.6 2.7 1.6 1.6zM613.5 555.2c3.6-4.1 7.2-8.1 10.8-12.2 1-1.1-.6-2.7-1.6-1.6-3.6 4.1-7.2 8.1-10.8 12.2-1 1.1.6 2.7 1.6 1.6zM616.7 560.5c8.7-10.7 17.4-21.4 26-32.1.9-1.1-.7-2.7-1.6-1.6-8.7 10.7-17.4 21.4-26 32.1-.9 1.2.7 2.8 1.6 1.6zM624.3 598.8c11-17.9 22.2-35.7 33.7-53.3h-1.9c2.3 5.1 4.7 10.1 7 15.2.6 1.3 2.5.2 1.9-1.1-2.3-5.1-4.7-10.1-7-15.2-.4-.8-1.5-.6-1.9 0-11.4 17.6-22.7 35.4-33.7 53.3-.8 1.2 1.2 2.4 1.9 1.1z"/><path class="prefix__st3" d="M632 613.5c10.8-17.9 21.7-35.7 32.5-53.6.8-1.2-1.2-2.4-1.9-1.1-10.8 17.9-21.7 35.7-32.5 53.6-.8 1.3 1.2 2.4 1.9 1.1zM630.9 601.1c6.1-9.4 12.4-18.8 18.9-28 .8-1.2-1.1-2.3-1.9-1.1-6.5 9.2-12.8 18.5-18.9 28-.8 1.1 1.1 2.3 1.9 1.1zM718.3 565c-13.3 32.2-27 64.1-41.3 95.9-.6 1.3 1.3 2.5 1.9 1.1 14.4-31.9 28.2-64 41.5-96.4.6-1.3-1.6-1.9-2.1-.6z"/><path class="prefix__st3" d="M699.5 581.3h92.4c1.4 0 1.5-2.3 0-2.3h-92.4c-1.5.1-1.5 2.3 0 2.3zM689.1 611.2c27.3.2 54.7.4 82 .7 1.4 0 1.4-2.2 0-2.3-27.3-.2-54.7-.4-82-.7-1.5.1-1.5 2.3 0 2.3zM676.7 636h101.5c1.4 0 1.5-2.3 0-2.3H676.7c-1.4 0-1.4 2.3 0 2.3z"/><path class="prefix__st3" d="M731.8 571.5c-11.9 28.3-23.2 56.8-33.9 85.6-.5 1.4 1.7 1.9 2.2.6 10.7-28.8 22-57.3 33.9-85.6.6-1.3-1.6-1.9-2.2-.6zM749.1 570.7c-12.2 28.9-23.6 58.2-34.1 87.8-.5 1.4 1.7 2 2.2.6 10.5-29.4 21.8-58.5 33.9-87.2.5-1.4-1.4-2.5-2-1.2zM768.9 571.8c-12.4 29.4-23.8 59.2-34 89.4-.5 1.4 1.7 2 2.2.6 10.2-30 21.4-59.7 33.8-88.9.5-1.2-1.4-2.4-2-1.1zM783.8 570.8c-10 27.2-19 54.7-27.1 82.5-.4 1.4 1.8 2 2.2.6 8.1-27.8 17.1-55.3 27.1-82.5.5-1.3-1.7-1.9-2.2-.6zM783.8 592.1l-7.5 28.5c-.2.7.4 1.4 1.1 1.4 7.5.3 14.9.3 22.3-.1 1.4-.1 1.4-2.3 0-2.3-7.5.4-14.9.4-22.3.1.4.5.7.9 1.1 1.4l7.5-28.5c.4-1.3-1.8-1.9-2.2-.5z"/><path class="prefix__st3" d="M785.7 593.3c4.1-.7 8.3-1.2 12.5-1.5 1.5-.1 4.1-.7 5.5-.2 2-.6 2.5.1 1.6 2-.2 1-.4 1.9-.6 2.9-1.7 7.9-3.4 15.9-5.1 23.8-.3 1.4 1.9 2 2.2.6 1.2-5.7 2.4-11.4 3.7-17.1.7-3.2 1.4-6.3 2-9.5.2-.9.9-2.8.3-3.7-1.2-2-5.1-1.1-6.8-1-5.3.2-10.6.8-15.8 1.7-1.5.1-.9 2.2.5 2z"/><path class="prefix__st3" d="M797.8 592.2c-2.2 9.5-4.1 19.1-5.7 28.7-.2 1.4 1.9 2 2.2.6 1.6-9.6 3.5-19.2 5.7-28.7.3-1.4-1.8-2-2.2-.6z"/><path class="prefix__st3" d="M797.1 608h5.9c1.4 0 1.5-2.3 0-2.3h-5.9c-1.5 0-1.5 2.3 0 2.3zM634.6 677.4c61.6-4.3 123.4-5.7 185.2-4.3 1.9 0 1.9-3 0-3-61.8-1.4-123.6 0-185.2 4.3-1.9.1-1.9 3.1 0 3z"/></g><g id="prefix__pencil_cup"><path class="prefix__st4" d="M543.8 649.7c3.2 21.8 6.5 43.6 9.7 65.4 4.8 1 9.7 1.9 14.5 2.9 4.5-.8 9-1.6 13.6-2.4 3.1-22 6.1-43.9 9.2-65.9-3.3 2.1-14.7 8.9-29.6 6.8-8-1.2-14-4.6-17.4-6.8z"/><path class="prefix__st3" d="M535 606.5c4.6 15.2 9.3 30.3 13.9 45.5.6 1.8 3.5 1.1 2.9-.8-4.6-15.2-9.3-30.3-13.9-45.5-.6-1.9-3.5-1.1-2.9.8z"/><path class="prefix__st3" d="M538.2 608.7c2.5-2 5.9 11.7 6.3 13 1 3.5 2 7.1 3 10.6 2.1 7.4 4.2 14.8 6.2 22.1.5 1.9 3.4 1.1 2.9-.8-3.3-11.9-6.7-23.7-10-35.6-1.2-4.1-3.5-16.9-10.5-11.4-1.5 1.2.6 3.3 2.1 2.1zM549.5 609c1.9 3.1 2.3 7.4 3.1 10.9.9 3.8 1.8 7.7 2.8 11.5 1.8 7.7 3.7 15.3 5.5 23 .4 1.9 3.3 1.1 2.9-.8l-6-24.9c-.9-3.8-1.8-7.7-2.8-11.5-.8-3.2-1.2-6.8-3-9.7-.9-1.6-3.5-.1-2.5 1.5z"/><path class="prefix__st3" d="M551.3 608.8c4.8-.8 7.6 21.4 8.4 24.6 1.8 7.7 3.7 15.3 5.6 23 .5 1.9 3.4 1.1 2.9-.8-2.9-11-5.5-22-7.9-33.1-1.2-5.5-1.4-18-9.8-16.5-1.9.3-1.1 3.2.8 2.8z"/><path class="prefix__st3" d="M552 608.3c4.2 15.4 8 31 11.4 46.6.4 1.9 3.3 1.1 2.9-.8-3.5-15.6-7.3-31.2-11.4-46.6-.5-1.9-3.4-1.1-2.9.8zM538 609.9c2.4 2.9 3.1 7.2 4.2 10.7 1.1 3.6 2.2 7.3 3.2 10.9 2.1 7.3 4.1 14.6 6.1 21.9.5 1.9 3.4 1.1 2.9-.8-2.3-8.6-4.6-17.1-7.1-25.6-1.8-6.3-2.9-14.2-7.1-19.3-1.3-1.4-3.4.7-2.2 2.2z"/><path class="prefix__st3" d="M544.3 650.8c7.3-.9 14.7-2.3 22-2.5 7.2-.2 14.5 1.4 21.7 2.4 1.9.3 2.7-2.6.8-2.9-6.8-1-13.7-2.4-20.6-2.5-7.9-.1-16 1.5-23.9 2.5-1.9.3-1.9 3.3 0 3z"/><path class="prefix__st3" d="M552.5 649.1c-.6-.2-1.2-.3-1.8-.5-.1 1-.3 2-.4 2.9.9.4 1.8.8 2.7 1.1.2-.8.4-1.7.7-2.5.3 1.4 1.1 2.4 2.4 3.2.3-.7.6-1.5.9-2.2.2.9.4 1.9.6 2.8h3c.7-.2 1.4-.4 2.1-.5-1-1-.9-1.2.2-.6 1.4.2 1.2.9-.5 2 .6-.1 1.2-.2 1.8-.2-.4-3.1.6-3.8 2.9-2.1-1.7-3.5-1.1-3.5 1.8.2-1.9-1.5-1.3-2.4 1.7-2.6.2 1.4-.2 2.7-1.3 3.9.6.1 1.2.2 1.8.2.2-.2.4-.4.5-.6l2.4-.3c.4-.7.8-1.4 1.3-2.1.6.5 1.3 1 1.9 1.4.2-.5.4-1.1.6-1.6l2.4 1.8c.7-1.5-3-.5-3.9-.6.4.9.7 1.7 1.1 2.6 2.5-2.7 5.6-3.6 9.2-2.7-.2-.8-.4-1.7-.7-2.5-1.4 1.5-3 2.1-5 1.7.4.8.9 1.5 1.3 2.3 1.4-.7 2.7-1.3 4.1-2-.1-1-.3-2-.4-2.9-1 .2-2 .3-3 .5-1.9.3-1.1 3.2.8 2.9 1-.2 2-.3 3-.5 1.7-.3 1.2-2.9-.4-2.9-3-.1-5 1-6.7 3.4-.7 1 .3 2.2 1.3 2.3 2.9.2 5-.7 7.1-2.6.8-.8.4-2.2-.7-2.5-4.6-1.2-8.8 0-12.1 3.5-.9 1-.2 2.5 1.1 2.6 2.1.1 11.5-1.2 8.4-5.2-1.7-2.3-6.8-.7-6.5 2.4.3 3.4 5.3 3.3 5.8 0 .6-4.2-4.8-4.3-6.3-1.1-.7 1.4 1.2 3.2 2.4 1.8 4.1-4.7-6.3-8.5-5.7-.5.1.9.9 1.8 1.9 1.4 3.6-1.3 3.7-6.5-.5-7-4.5-.5-6.4 5.4-3.7 8.3.6.7 1.9.6 2.4-.3 1.4-2.9 2.2-9.7-3.2-8.7-4.8.9-4.3 7.1-2.1 9.9.4.5 1.3.6 1.8.2 2.7-1.7 4.4-7.4 1.5-9.7-3.5-2.8-8.1 2.9-8 6.2.2 4 4.9 5.2 7 1.8 1.9-3.2.6-8.5-3.6-8.7-4-.1-7.2 5.4-5.3 8.9 1.9 3.6 6.6 2.7 7.6-1 1-4-2-8-5.9-5.6-3.2 2-5.1 6.3-1.3 8.7.5.3 1.4.3 1.8-.2 1.5-1.8 3.2-3.9 2.6-6.4-.4-2-2.2-3.8-4.4-3.4-3.8.7-5.1 7.1-1.5 8.9.7.3 1.7.3 2.1-.5 1.2-2.8 2.1-8.4-2.7-8.3-4.6.2-4.3 5.4-2.8 8.3.5 1 2.1 1 2.6 0 1.2-2.2 1.8-4.7.1-6.9-1.3-1.6-3.8-2.3-5.7-1.1-3.9 2.5-1 8 3.2 6.5.9-.3 1.4-1.3.9-2.2-2-3.2-10.3-7.3-11.5-1.3-.1.5 0 1.1.4 1.5 2.1 1.7 4.4 1.7 6.9 1 1-.3 1.6-1.8.7-2.5-1.6-1.3-2.7-1.8-4.8-2-1.7-.2-2 2.5-.4 2.9.6.2 1.2.3 1.8.5 1.3.5 2-2.4.2-2.9z"/><path class="prefix__st3" d="M584.7 651.8c5.8-8.7 11.7-17.4 17.5-26.1l-2.4.3c3 2.7-13.1 21-14.8 23l2.4 1.8c5.1-7 9.9-14.1 14.4-21.5.9-1.4-1.2-3.1-2.4-1.8-5.5 6.1-10.1 12.7-13.9 20-.9 1.7 1.7 3.2 2.6 1.5 3.7-7 8.1-13.5 13.4-19.4l-2.4-1.8c-4.5 7.4-9.3 14.6-14.4 21.5-1 1.4 1.3 3.1 2.4 1.8 4.5-5.3 8.7-10.8 12.5-16.6 1.9-2.9 5.7-7.4 2.3-10.6-.7-.7-1.8-.5-2.4.3-5.8 8.7-11.7 17.4-17.5 26.1-1 1.6 1.6 3.1 2.7 1.5z"/><path class="prefix__st14" d="M570.1 658.1c.9 8.9 1.4 19.1 1.1 30.3-.3 11.1-1.3 21.1-2.7 29.9 4.1-1 8.2-2 12.3-3.1 3.2-21.1 6.4-42.1 9.6-63.2-6.8 2-13.6 4.1-20.3 6.1z"/><path class="prefix__st9" d="M580.7 656.3c.3 9.2 0 20-1.5 31.9-1.4 10.7-3.5 20.3-5.8 28.4 3-.8 6.1-1.5 9.1-2.3 2.4-20.8 4.7-41.6 7.1-62.4-3 1.6-5.9 3-8.9 4.4z"/></g><path class="prefix__st15" d="M920 416.7c7.7-7.9 17.4-16 29.5-22.5 36-19.5 71.6-14.5 85.4-12.4 11 1.7 22.8 3.6 36.5 10.9 24.6 13.1 36.9 33.7 41.9 43.5 6.7 21.5 13 47.6 16.3 77.7 5.4 49.1 1.1 91.2-4.7 121.9-15 6.6-45.4 17.5-84.6 14.8-33.2-2.3-58.3-13.5-72.2-21-3-31.1-8-65.8-16.3-103.3-9.1-41.3-20.3-77.9-31.8-109.6z" id="prefix__torso"/><path class="prefix__st16" d="M1077.9 527.2c-23.9 6.8-19.1 36.9-52.2 71.5-21.9 22.9-45 31.8-49.9 33.7-34.7 12.9-66.5 6.1-80.7 2.1-5.8-5.1-19.1-15.2-38.7-18.4-31.1-5-54.5 11.3-59.4 14.9l26.7-4.2c-17.6 12.5-25.6 20.2-24.2 23.1 1.2 2.4 8.9 1.5 23-2.7-4.7 7-6.3 11.2-5 12.7 2.2 2.4 12.1-2.3 29.7-14.1 7.1 4.3 17.4 9.7 30.4 14.1 15.7 5.4 30 7.5 45.3 8.5 38.4 2.5 68.5 4.4 104-9.2 12.2-4.7 47.7-18.9 72.8-54.5 8.3-11.7 30.8-43.7 18.4-63.6-7.3-11.6-25.5-18.1-40.2-13.9z"/><path class="prefix__st3" d="M800.2 651.2c7.8-5.9 16.2-10.7 25.3-14.4 1.8-.7 1-3.6-.8-2.9-9.3 3.8-17.9 8.7-26 14.7-1.5 1.1 0 3.7 1.5 2.6zM819.3 660c2.2-7.6 6.6-14.1 12.9-18.9 1.5-1.2 0-3.8-1.5-2.6-6.9 5.3-11.8 12.3-14.3 20.7-.5 1.8 2.4 2.6 2.9.8z"/><path class="prefix__st15" d="M1086.8 443.6c-4.2 20.5-14.9 30-19 47.9-3.6 15.8-9.4 37.7-19 64.2 5.7 5.9 14.9 14.1 28 20.8 14.4 7.4 27.7 9.9 36.2 10.9 5.8-8.1 14.9-22.6 19.9-42.5 17.6-70.2-33.2-139.2-42.3-136.4-3.4 1.1.9 11.8-3.8 35.1z"/><path d="M1078.6 578.5c-8.1 22.4-22.2 48.5-47.9 66.7-39.1 27.7-85 22.8-84.9 23.7.1 1.2 54.1 9.1 106.8-22.7 32.1-19.4 49.8-45 57.8-58.8-4.2-.7-8.6-1.6-13.3-2.8-6.8-1.8-13-3.9-18.5-6.1z" opacity=".21" fill="#6d6c6c"/><path class="prefix__st16" d="M901.8 493.1c-5.6 5.7-6.4 9.1-14.9 21.1-5.6 8-10.9 14-14.3 17.8-11.6-4.6-28.7-9.7-49.7-10.1-9.5-.2-18 .7-25.3 1.9-4.4-1.4-11-2.9-19-2-20.4 2.4-34.6 19.3-33.3 21.4 1.6 2.4 27.3-10.7 27-11.5-.1-.3-4.3.6-8.2 3-9.3 5.7-13.3 17.7-11.5 19.1 1.8 1.3 7.5-7.8 22.6-15.8 9.6-5.1 17.6-6.9 17.8-6.6.1.4-10.7 3.1-21 11.8-8.4 7.1-14.1 16.3-12.6 17.9 1.6 1.8 11.1-7.1 29.4-12.3 6-1.7 14.3-4.1 16.1-1.3 3.3 5.2-20.2 22.7-17.3 26.9 2 3 17.2-2.1 28.9-10.9 6.8-5.1 11.3-10.7 14.1-14.9 2.2 4.7 6.6 12.4 14.9 18.8 17.8 13.8 38.9 10.3 43.8 9.4 17.9-3.5 28.5-14.8 34.4-21.1 5.8-6.1 19.4-20.7 19.5-41.4 0-3.2.2-25-12.5-30.5-9.5-4.3-22.2 2.6-28.9 9.3z"/><path class="prefix__st3" d="M873 534c7.6 1.4 14.5 4.9 20.1 10.3 1.4 1.4 3.5-.8 2.1-2.1-5.9-5.8-13.3-9.6-21.4-11.1-1.9-.3-2.7 2.6-.8 2.9z"/><path class="prefix__st15" d="M935.6 401.1c-15 12.6-21.8 25-25.1 34.1-5.8 15.7-3.9 27.7-12.5 52.4-2.6 7.4-5.2 13.3-7 17.2 8.1 3.6 17.5 8.4 27.4 14.9 9.7 6.3 17.8 12.9 24.2 18.8 4.3-15.9 10-38.7 14.9-66.5 7-39.7 12.4-72 .9-78.1-3.7-1.9-10.2-2-22.8 7.2z"/><path class="prefix__st7" d="M911.6 516.1c.9 3.1 1.8 8 1.1 13.9-2 15.3-15 28.1-29 31.7-5.1 1.3-12.3-1.5-26.4-7.1-12.8-5.1-23-10-29.9-13.5-3.3 4.4-7.4 9.1-12.2 13.8-9.5 9.3-19.1 15.9-27 20.4 1.5.1 3.9.2 6.9-.2 9-1.3 15.4-6 21.4-10.5 3.9-2.9 6-5 6.7-5.8 3-3.2 5-6.2 6.2-8.5 1.6 1.8 4.2 4.7 7.4 8.5 3.4 4 5.7 6.7 6 7.1 5.2 6.2 23.4 15.2 43.7 12.3 0 0 20.8-3 38.8-23.4 4-4.5 6.8-9.4 6.8-9.4 2.7-4.6 4.3-8.8 5.3-11.9v.1c-8.6-5.7-17.2-11.6-25.8-17.5z"/><path class="prefix__st14" d="M928.2 527.6c4.9 3.8 9.7 7.3 14.4 10.7-1.4-1.2-2.9-2.4-4.3-3.6-2.9 6.3-8.8 17-20.2 26.2-5.4 4.4-25 20.3-50 15.4-16.3-3.2-26.6-13.5-30.7-18.1 3.8 1.9 11.9 5.6 22.2 7.7 8.1 1.7 22.7 4.2 35.6-2 22-10.7 24.7-40.4 24.9-42.8 2.6 2.1 5.3 4.3 8.1 6.5z"/><path class="prefix__st16" d="M1036.5 310.8c7.6 25.3 10.5 39.9 21.4 63 5.1 10.8 10 19.4 13.4 25-11.1 5.2-29.1 11.9-52.2 12.7-13.7.5-25.4-1.2-34.4-3.3.9-7 1.5-15.6.7-25.4-.9-12.4-3.6-22.7-6.2-30.4-12.3-1.6-24.6-3.1-37-4.7l-7.2-15.9c-3.4-.1-6.8-.2-10.1-.4 2.5-7.3 6.4-18.7 10.9-33 8.3-26.8 8.2-30.6 12.7-36.6 12.3-16.4 40.1-27 58.3-18.1 10.9 5.4 17.3 26 29.7 67.1z"/><path class="prefix__st3" d="M915.3 323.2c6.3.1 12.6-.3 18.8-1.3 1.9-.3 1.1-3.2-.8-2.9-6 .9-12 1.3-18 1.2-1.9 0-1.9 3 0 3zM912.7 275.2c3.8-2 8.7-1 11.2 2.5 1.1 1.5 3.7.1 2.6-1.5-3.5-4.8-10-6.4-15.3-3.6-1.8.9-.2 3.5 1.5 2.6zM916.9 290.4c-.3-1.1-.3-2.3 0-3.4.2-.5.4-1.1.7-1.6.2-.3.4-.6.7-.7-.2.1-.3.2-.2.4.2 2.2-1 4.2-2.6 5.6.9.4 1.7.7 2.6 1.1 0-2 .5-3.9 1.4-5.7.9-1.7-1.7-3.2-2.6-1.5-1.1 2.3-1.7 4.6-1.8 7.2 0 1.4 1.6 1.9 2.6 1.1 1.7-1.4 2.9-3.4 3.3-5.6.3-1.8.5-4.6-1.6-5.4-2-.8-3.8 1-4.6 2.6-1.1 2.1-1.3 4.5-.8 6.9.4 1.7 3.3.9 2.9-1zM942.9 279.6c4.7-1.5 9.9.2 12.8 4.3 1.1 1.6 3.7.1 2.6-1.5-3.6-5.2-10.1-7.6-16.2-5.7-1.9.6-1.1 3.5.8 2.9zM943.4 294c-.1-1.5.1-2.9.9-4.2.2-.3.4-.7.7-.9v.1c0 .7-.1 1.4-.2 2-.2.7-.3 1.3-.6 2-.1.3-.3.5-.4.8.2.7.4.6.6-.1.5-.5.8-1.6 1.1-2.2.4-.7.8-1.5 1.1-2.2.8-1.5-1.1-3-2.4-1.8-.8.8-1.4 1.7-1.7 2.8-.5 1.9 2.3 2.6 2.9.8.2-.6.4-1 .9-1.4l-2.4-1.8c-.9 1.8-2 3.6-2.7 5.4-.5 1.2-.4 2.6.8 3.4 3.1 2 5.1-2.3 5.6-4.6.5-2.2.6-7.2-3.1-6.1-3.1.9-4.3 5.5-4.1 8.3.2 1.6 3.2 1.6 3-.3z"/><path d="M934 258.6c.9-5.5 3.1-14.4 9.1-23.7 2.1-3.3 6.7-10.2 14-14.9 13.9-8.9 35.2-8.2 50.7 2.7 15.2 10.7 22.7 29.8 19.4 48.9-31-4.3-62.1-8.6-93.2-13z" fill="#4c4c4c"/><path class="prefix__st3" d="M883.2 257.9c47.8 5.9 95.7 11.8 143.5 17.7 5.7.7 5.7-8.3 0-9-47.8-5.9-95.7-11.8-143.5-17.7-5.8-.8-5.7 8.2 0 9z"/><path d="M996.2 270.4c-8.5 3-13.4 8.7-19 15.5-12 14.3-8.5 19.6-16.9 28.5-13.4 14.2-27.1 5.8-39.1 19.7-10.2 11.8-8.9 27.7-8.5 31.4.4 3.5 2.2 17.7 14.1 27.5 10.3 8.4 24.2 10.4 25 8.5.3-.7-.8-2.4-8.5-7.4 2.2 1.5 5.7 3.4 10.2 4.2 5.2.9 10.2 0 10.2-.7 0-.6-2.8-.6-4.9-2.8-1.3-1.3-1.8-2.9-2.1-4.2 4.1 2.7 9.4 5 14.4 3.5 13.7-4.1 16.1-33.8 16.9-43.7 2.6-31.9-6.8-49.4 4.6-60.6 1-.9 5.5-5.5 10.6-4.6 6.4 1.2 11.3 10.9 9.2 17.3-1.8 5.5-8.2 7.1-7.8 8.1.6 1.3 11.4-.7 20.4-7.8 3.3-2.6 6-4.7 7.4-8.5 2.5-6.6-.4-14.2-4.2-18.7-7.8-9.1-22.8-8.5-32-5.2z" fill="#161616" stroke="#161616" stroke-width="2" stroke-miterlimit="10"/><path class="prefix__st11" d="M1008.9 311.6c-2 .2-4.9.3-5.1-.4-.1-.3.6-.8.6-.8 0-.1-2.4 3-5.5 3.4-1.5.2-2.7-.3-3.5-.7 5.4 11.2 10.9 24.7 15.6 40.2 5.1 17 8 32.6 9.7 45.8 5.5 0 13.3-.6 22.2-3.3 7.3-2.3 13.1-5.3 17.3-7.9-11.5-17.8-17.4-31.9-20.6-41.6-1.5-4.5-4.8-15.2-6.4-20.5-3-9.6-5.3-17.5-6.9-22.8-.8.7-2.1 1.8-3.9 3-2.4 1.7-7.2 4.9-13.5 5.6z"/><path d="M974.5 214.6c12.4 2.4 21.8 12.1 23.2 23.7 1.7 13.7-8.6 23.1-9.6 23.9 13.2 1.6 26.4 3.2 39.7 4.8.2-3 .3-7.1-.5-11.9-2.5-15.3-11.7-24.8-13.6-26.8-3.1-3.1-14-13.2-30.1-14.1-3.7-.3-6.9 0-9.1.4z" fill="#383838"/></svg>